<?xml version="1.0" standalone="no"?>
<!DOCTYPE svg PUBLIC "-//W3C//DTD SVG 1.1//EN" "http://www.w3.org/Graphics/SVG/1.1/DTD/svg11.dtd" >
<svg xmlns="http://www.w3.org/2000/svg">
<metadata></metadata>
<defs>
<font id="tex_gyre_bonumbold" horiz-adv-x="580" >
<font-face units-per-em="1000" ascent="787" descent="-213" />
<missing-glyph horiz-adv-x="340" />
<glyph unicode="IJ" horiz-adv-x="1101" d="M40 0v82l24 2q45 4 56.5 22.5t11.5 61.5v345q0 45 -11.5 63t-56.5 21l-24 2v82h359v-82l-24 -2q-45 -4 -56.5 -22.5t-11.5 -61.5v-345q0 -45 11.5 -63t56.5 -21l24 -2v-82h-359zM427 189q0 50 28.5 82t72.5 32q33 0 55 -21.5t22 -54.5q0 -34 -27 -65q-9 -10 -9 -17 q0 -22 33 -39t74 -17q35 0 59.5 11.5t36.5 25.5t18 37t7 35.5t1 32.5v282q0 48 -13 63.5t-55 20.5l-20 2v82h351v-82l-20 -2q-42 -5 -55 -20.5t-13 -63.5v-272q0 -44 -5.5 -77.5t-23 -68t-47.5 -57t-81.5 -37t-121.5 -14.5q-118 0 -192.5 56.5t-74.5 145.5z" />
<glyph unicode="ij" horiz-adv-x="693" d="M40 0v81l32 7q28 6 36 19.5t8 56.5v144q0 46 -11.5 62.5t-43.5 19.5l-21 2v81l176 29h62v-338q0 -43 7.5 -56t36.5 -20l31 -7v-81h-313zM105 671q0 41 27 68t68 27q38 0 67 -29.5t29 -69.5q0 -37 -28 -64.5t-66 -27.5q-40 0 -68.5 28t-28.5 68zM284 -142q0 28 20.5 47 t52.5 19q20 0 33 -7t36 -32q14 -14 28 -14q37 0 37 68v369q0 46 -11 62t-44 20l-18 2v81l173 29h62v-515q0 -213 -233 -213q-64 0 -100 22.5t-36 61.5zM480 671q0 41 27 68t68 27q38 0 67 -29.5t29 -69.5q0 -37 -28 -64.5t-66 -27.5q-40 0 -68.5 28t-28.5 68z" />
<glyph unicode="fk" horiz-adv-x="1040" d="M22 0v82l31 7q29 6 36.5 19.5t7.5 56.5v252h-67v85h67v18q0 113 69.5 164.5t220.5 51.5q123 0 246 -12v-420l65 70q20 22 20 32q0 13 -26 14l-11 1v81h289v-81l-14 -1q-45 -6 -82 -33l-88 -65l136 -190q32 -45 79 -49l18 -2v-81h-305v81l11 2q21 4 21 17q0 10 -9 24 l-67 104l-37 -33v-31q0 -70 46 -80l14 -3v-81h-295v81l29 7q29 7 36.5 20t7.5 56v338q0 32 -0.5 47.5t-5.5 38t-15 33t-29.5 18.5t-48.5 8q-40 0 -65 -10t-34.5 -31.5t-11.5 -37.5t-2 -46v-20h89v-85h-89v-252q0 -43 7.5 -56.5t36.5 -19.5l31 -7v-82h-312z" />
<glyph unicode="ff" horiz-adv-x="760" d="M22 417v85h75v46q0 82 64.5 135t165.5 53q63 0 98.5 -21.5t35.5 -60.5q0 -29 -23.5 -49.5t-57.5 -20.5q-20 0 -32.5 8t-28.5 31q-8 11 -23 11q-37 0 -37 -59v-73h214v46q0 82 64.5 135t165.5 53q63 0 98.5 -21.5t35.5 -60.5q0 -30 -24 -50t-57 -20q-20 0 -32.5 8 t-28.5 31q-8 11 -23 11q-37 0 -37 -59v-73h94v-85h-94v-252q0 -43 8.5 -56t41.5 -20l33 -7v-82h-318v82l29 7q29 7 36.5 20t7.5 56v252h-214v-252q0 -43 8.5 -56t41.5 -20l33 -7v-82h-318v82l29 7q29 7 36.5 20t7.5 56v252h-75z" />
<glyph unicode="fi" horiz-adv-x="740" d="M22 0v82l31 7q34 7 42.5 20t8.5 56v252h-74v85h74v31q0 98 63 150.5t222 52.5q107 0 175 -33t68 -86q0 -32 -27 -53.5t-67 -21.5q-36 0 -57.5 14.5t-36.5 47.5q-13 29 -29 39.5t-50 10.5q-35 0 -56.5 -9t-30 -30.5t-10.5 -39t-2 -53.5v-20h369v-337q0 -43 8 -56.5 t36 -19.5l31 -7v-82h-312v82l31 7q28 6 36 19.5t8 56.5v157q0 60 -17 77.5t-70 17.5h-120v-252q0 -43 8 -56.5t36 -19.5l31 -7v-82h-319z" />
<glyph unicode="fl" horiz-adv-x="740" d="M22 0v82l31 7q28 6 36 19.5t8 56.5v252h-67v85h67v18q0 105 63.5 160.5t226.5 55.5q50 0 248 -18v-553q0 -43 8 -56.5t36 -19.5l31 -7v-82h-312v82l31 7q28 6 36 19.5t8 56.5v337q0 32 -0.5 47.5t-6 38t-15.5 33t-30 18.5t-49 8q-40 0 -65 -10t-34.5 -31.5t-11.5 -37.5 t-2 -46v-20h89v-85h-89v-252q0 -43 8 -56.5t36 -19.5l31 -7v-82h-312z" />
<glyph unicode="ffi" horiz-adv-x="1120" d="M22 417v85h75v46q0 82 64.5 135t165.5 53q63 0 98.5 -21.5t35.5 -60.5q0 -29 -23.5 -49.5t-57.5 -20.5q-20 0 -32.5 8t-28.5 31q-8 11 -23 11q-37 0 -37 -59v-73h214v31q0 49 6 73.5t23 44.5q70 85 256 85q107 0 175 -33t68 -86q0 -32 -27 -53.5t-67 -21.5 q-36 0 -57.5 14.5t-36.5 47.5q-13 29 -29 39.5t-50 10.5q-35 0 -56.5 -9t-30 -30.5t-10.5 -39t-2 -53.5v-20h369v-337q0 -43 8 -56.5t36 -19.5l31 -7v-82h-312v82l31 7q28 6 36 19.5t8 56.5v157q0 65 -14.5 80t-72.5 15h-120v-252q0 -43 8 -56.5t36 -19.5l31 -7v-82h-319v82 l31 7q34 7 42.5 20t8.5 56v252h-214v-252q0 -43 8.5 -56t41.5 -20l33 -7v-82h-318v82l29 7q29 7 36.5 20t7.5 56v252h-75z" />
<glyph unicode="ffl" horiz-adv-x="1120" d="M22 417v85h75v46q0 82 64.5 135t165.5 53q63 0 98.5 -21.5t35.5 -60.5q0 -29 -23.5 -49.5t-57.5 -20.5q-20 0 -32.5 8t-28.5 31q-8 11 -23 11q-37 0 -37 -59v-73h207v18q0 49 7.5 76.5t28.5 55.5q63 84 254 84q50 0 248 -18v-553q0 -43 8 -56.5t36 -19.5l31 -7v-82h-312 v82l31 7q28 6 36 19.5t8 56.5v337q0 32 -0.5 47.5t-6 38t-15.5 33t-30 18.5t-49 8q-40 0 -65 -10t-34.5 -31.5t-11.5 -37.5t-2 -46v-20h89v-85h-89v-252q0 -43 8 -56.5t36 -19.5l31 -7v-82h-312v82l31 7q28 6 36 19.5t8 56.5v252h-207v-252q0 -43 8.5 -56t41.5 -20l33 -7 v-82h-318v82l29 7q29 7 36.5 20t7.5 56v252h-75z" />
<glyph unicode=" "  horiz-adv-x="340" />
<glyph unicode="&#x09;" horiz-adv-x="340" />
<glyph unicode="&#xa0;" horiz-adv-x="340" />
<glyph unicode="!" horiz-adv-x="360" d="M82 594q0 42 29 71t72 29q45 0 72 -30t27 -80q0 -27 -24 -133q-26 -118 -35 -235h-82q-12 125 -35 229q-24 110 -24 149zM89 82q0 37 27.5 63.5t65.5 26.5t65 -27t27 -65q-1 -39 -27.5 -66t-65.5 -27q-38 0 -65 27.5t-27 67.5z" />
<glyph unicode="&#x22;" horiz-adv-x="420" d="M11 625q0 29 19.5 49t48.5 20t48.5 -20t19.5 -50q0 -7 -4 -28l-40 -213h-48l-40 213q-4 21 -4 29zM233 625q0 29 19.5 49t48.5 20t48.5 -20t19.5 -50q0 -7 -4 -28l-40 -213h-48l-40 213q-4 21 -4 29z" />
<glyph unicode="#" horiz-adv-x="660" d="M84 219v85h114l13 86h-99v85h112l30 206h86l-30 -206h87l30 206h86l-30 -206h93v-85h-105l-13 -86h90v-85h-102l-33 -219h-86l32 219h-86l-33 -219h-86l32 219h-102zM285 304h86l13 86h-86z" />
<glyph unicode="$" horiz-adv-x="660" d="M48 184q0 34 22 56t56 22q32 0 56 -19.5t24 -46.5q0 -3 -2 -15t-2 -20q0 -28 34.5 -45.5t90.5 -17.5q67 0 107.5 26t40.5 69q0 32 -18 48t-70 28l-89 21q-6 2 -35.5 8.5t-40.5 9t-37 11.5t-38 16.5t-31 21t-27.5 29t-15.5 37.5t-7 48q0 84 64.5 137.5t175.5 60.5v136h63 v-135q94 -7 155.5 -47t61.5 -93q0 -28 -17 -45.5t-44 -17.5q-67 0 -78 82q-3 22 -39 37.5t-82 15.5q-52 0 -83.5 -21.5t-31.5 -56.5q0 -39 32.5 -58.5t105.5 -36.5l71 -16q107 -24 153.5 -66t46.5 -116q0 -84 -67 -138.5t-184 -66.5v-146h-63v146q-121 9 -189.5 51 t-68.5 107z" />
<glyph unicode="%" horiz-adv-x="940" d="M12 474q0 98 53.5 156.5t141.5 58.5q85 0 137 -58t52 -153q0 -97 -52 -155t-140 -58t-140 56.5t-52 152.5zM135 479q0 -152 69 -152q33 0 51 39t18 111q0 71 -18 110.5t-51 39.5t-51 -39t-18 -109zM212 0l425 681h81l-428 -681h-78zM540 201q0 98 53.5 156.5t141.5 58.5 q85 0 137 -58t52 -153q0 -97 -52 -155t-140 -58t-140 56.5t-52 152.5zM663 206q0 -152 69 -152q33 0 51 39t18 111q0 71 -18 110.5t-51 39.5t-51 -39t-18 -109z" />
<glyph unicode="&#x26;" horiz-adv-x="800" d="M21 195q0 34 10.5 68.5t46 74t92.5 60.5q-57 57 -57 130t55.5 119.5t144.5 46.5q79 0 130 -41t51 -104q0 -43 -26.5 -83t-75.5 -68q92 -94 126 -152q32 75 32 115q0 20 -11.5 29t-43.5 14v78h263v-78q-59 -5 -81 -22t-30 -63q-28 -107 -70 -157q29 -41 63.5 -59.5 t84.5 -18.5q23 0 47 2v-82q-42 -7 -107 -7q-67 0 -107.5 13t-78.5 46q-86 -69 -203 -69q-112 0 -183.5 58.5t-71.5 149.5zM195 219q0 -59 30 -94.5t81 -35.5q52 0 109 35l-11 12q-7 8 -41 57q-67 92 -126 138q-42 -36 -42 -112zM275 553q0 -38 45 -91q54 36 54 88 q0 22 -14 37t-34 15q-21 0 -36 -14.5t-15 -34.5z" />
<glyph unicode="'" horiz-adv-x="240" d="M42 625q0 29 19.5 49t48.5 20t48.5 -20t19.5 -50q0 -7 -4 -28l-40 -213h-48l-40 213q-4 21 -4 29z" />
<glyph unicode="(" horiz-adv-x="320" d="M48 184v214q0 168 63 252t178 87v-81q-55 -15 -79 -77.5t-24 -183.5v-208q0 -123 25 -185t78 -75v-82q-121 2 -181 90.5t-60 248.5z" />
<glyph unicode=")" horiz-adv-x="320" d="M20 -73q54 13 78.5 75t24.5 185v208q0 124 -25 185t-78 76v81q121 -2 181.5 -90.5t60.5 -248.5v-214q0 -169 -63.5 -252.5t-178.5 -86.5v82z" />
<glyph unicode="*" horiz-adv-x="460" d="M62 440q0 33 55 43l74 15l2 19l-75 12q-55 9 -55 43q0 21 14 37.5t33 16.5q20 0 46 -30l49 -57l19 7l-28 72q-8 22 -8 34q0 19 12.5 30.5t34.5 11.5q20 0 33 -11t13 -29q0 -11 -8 -36l-25 -72l16 -12l48 59q24 31 47 31q17 0 31.5 -16.5t14.5 -36.5q0 -34 -55 -44 l-74 -14l-2 -20l75 -12q55 -9 55 -43q0 -20 -14 -36.5t-32 -16.5q-21 0 -47 30l-49 57l-19 -8l27 -71q9 -22 9 -35q0 -19 -12.5 -30t-33.5 -11t-34 11t-13 28q0 14 8 37l25 71l-16 12l-48 -59q-24 -30 -48 -30q-17 0 -31 16.5t-14 36.5z" />
<glyph unicode="+" horiz-adv-x="600" d="M40 192v116h202v202h116v-202h202v-116h-202v-202h-116v202h-202z" />
<glyph unicode="," horiz-adv-x="340" d="M78 78q0 38 25 63.5t62 25.5q41 0 66.5 -29.5t25.5 -76.5q0 -98 -113 -181l-48 51q37 33 54 66q-72 15 -72 81z" />
<glyph unicode="-" horiz-adv-x="360" d="M20 210l47 108h273l-45 -108h-275z" />
<glyph unicode="." horiz-adv-x="340" d="M76 79q0 37 26.5 63t64.5 26q37 0 63.5 -26t26.5 -64t-26.5 -64.5t-64.5 -26.5q-37 0 -63.5 27t-26.5 65z" />
<glyph unicode="/" horiz-adv-x="600" d="M50 -138l374 858h131l-374 -858h-131z" />
<glyph unicode="0" horiz-adv-x="660" d="M30 336q0 44 8 89t30 95t55 87.5t89 62t127 24.5q136 0 218 -96t82 -255q0 -163 -82.5 -259.5t-222.5 -96.5t-222 94t-82 255zM217 344q0 -128 30 -196.5t87 -68.5t87.5 68t30.5 193q0 126 -30.5 194t-87.5 68q-56 0 -86.5 -67.5t-30.5 -190.5z" />
<glyph unicode="1" horiz-adv-x="660" d="M137 0v82l26 2q69 5 85.5 17.5t16.5 57.5v337q0 23 -2 33.5t-7 20t-21 12.5t-37 5t-61 2v78q56 0 155.5 13t99.5 21h48v-522q0 -43 15 -55.5t68 -17.5l45 -4v-82h-431z" />
<glyph unicode="2" horiz-adv-x="660" d="M41 112q112 74 149.5 101.5t81.5 68.5q122 114 122 225q0 46 -29 73t-78 27q-39 0 -70 -17t-31 -39q0 -10 10 -26q16 -24 16 -47q0 -31 -24.5 -54t-58.5 -23q-38 0 -63 26.5t-25 68.5q0 86 77.5 142t196.5 56q126 0 202 -56.5t76 -148.5q0 -50 -25 -94t-82 -96 q-79 -70 -244 -159h125q42 0 63.5 2t40.5 6t30.5 16.5t21 28t24.5 46.5l81 -22l-61 -217h-510z" />
<glyph unicode="3" horiz-adv-x="660" d="M37 153q0 39 24.5 65.5t61.5 26.5q36 0 61 -22t25 -54q0 -15 -10 -42q0 -19 33 -33.5t75 -14.5q59 0 93.5 32.5t34.5 88.5q0 70 -41.5 97t-117.5 27q-20 0 -37 -1v89h28q140 0 140 106q0 38 -27 61t-73 23q-32 0 -62.5 -15.5t-30.5 -31.5q0 -5 8.5 -22t8.5 -33 q0 -31 -25 -52.5t-62 -21.5q-38 0 -61.5 24.5t-23.5 63.5q0 78 77.5 129t194.5 51q118 0 193 -51.5t75 -132.5q0 -45 -30.5 -82.5t-82.5 -56.5q70 -17 107.5 -59t37.5 -103q0 -99 -91 -160.5t-233 -61.5q-116 0 -193 47.5t-77 118.5z" />
<glyph unicode="4" horiz-adv-x="660" d="M19 242q210 256 327 439h158v-414h145l-43 -97h-102v-37q0 -45 62 -49l25 -2v-82h-336v82l25 2q62 4 62 49v37h-288zM158 267h184v259q-36 -64 -184 -259z" />
<glyph unicode="5" horiz-adv-x="660" d="M44 145q0 40 24.5 65.5t63.5 25.5t65 -24.5t26 -60.5q0 -8 -2.5 -20.5t-2.5 -20.5q0 -16 19.5 -26t48.5 -10q59 0 96.5 42.5t37.5 110.5q0 65 -35.5 108t-88.5 43q-40 0 -78.5 -26.5t-60.5 -67.5q-9 3 -79 22v375h243q87 0 106.5 1t32.5 6q14 6 27 36h81l-29 -183h-363 v-119q76 53 185 53q116 0 189 -65.5t73 -168.5q0 -115 -86 -184.5t-228 -69.5q-116 0 -190.5 44t-74.5 114z" />
<glyph unicode="6" horiz-adv-x="660" d="M34 322q0 67 15 127.5t49.5 118t102 92t160.5 34.5q100 0 170.5 -39.5t70.5 -95.5q0 -32 -23.5 -54.5t-57.5 -22.5q-33 0 -56 19t-26 50q-3 34 -18 45t-51 11q-74 0 -116 -56t-51 -159q77 57 186 57q107 0 176 -63.5t69 -161.5q0 -107 -80.5 -172t-213.5 -65 q-149 0 -227.5 86t-78.5 249zM216 212q0 -63 31 -98t86 -35q56 0 87.5 36.5t31.5 101.5q0 62 -30.5 98.5t-83.5 36.5q-56 0 -89 -37.5t-33 -102.5z" />
<glyph unicode="7" horiz-adv-x="660" d="M36 472l33 209h550l13 -103q-46 -37 -105 -121t-110 -209.5t-51 -233.5q0 -8 1 -14h-204q8 116 99 269.5t233 288.5h-248q-67 0 -89 -15.5t-50 -80.5z" />
<glyph unicode="8" horiz-adv-x="660" d="M36 183q0 108 122 156q-95 48 -95 147q0 34 15 68t45 66.5t85.5 53t127.5 20.5q115 0 186 -47.5t71 -123.5q0 -85 -95 -140q70 -28 102.5 -68.5t32.5 -100.5q0 -102 -86.5 -164.5t-227.5 -62.5q-129 0 -206 53.5t-77 142.5zM169 185q0 -50 40.5 -78t113.5 -28 q69 0 108.5 23t39.5 64q0 54 -107 92l-107 38q-47 -20 -67.5 -45.5t-20.5 -65.5zM225 532q0 -31 38.5 -56t126.5 -56q39 26 54.5 47t15.5 49q0 39 -34.5 62.5t-90.5 23.5q-49 0 -79.5 -19.5t-30.5 -50.5z" />
<glyph unicode="9" horiz-adv-x="660" d="M33 453q0 105 84 173t214 68q45 0 86 -9t82 -33t70.5 -61.5t48 -99t18.5 -140.5q0 -84 -20.5 -149.5t-53.5 -105t-78.5 -65t-90.5 -35t-94 -9.5q-100 0 -167 38t-67 94q0 32 23 54.5t56 22.5q36 0 56 -20t32 -66q8 -31 70 -31q72 0 115 56.5t43 150.5q-72 -57 -182 -57 q-107 0 -176 63t-69 161zM207 468q0 -63 31 -100t84 -37q59 0 93.5 36.5t34.5 98.5q0 63 -32 99.5t-88 36.5q-57 0 -90 -36t-33 -98z" />
<glyph unicode=":" horiz-adv-x="340" d="M76 79q0 37 26.5 63t64.5 26q37 0 63.5 -26t26.5 -64t-26.5 -64.5t-64.5 -26.5q-37 0 -63.5 27t-26.5 65zM76 427q0 37 26.5 63t64.5 26q37 0 63.5 -26t26.5 -64t-26.5 -64.5t-64.5 -26.5q-37 0 -63.5 27t-26.5 65z" />
<glyph unicode=";" horiz-adv-x="340" d="M75 427q0 37 27 63t64 26q38 0 64 -26t26 -64t-27 -64.5t-64 -26.5t-63.5 27t-26.5 65zM79 78q0 38 25 63.5t62 25.5q41 0 67 -29.5t26 -76.5q0 -98 -114 -181l-48 51q37 33 54 66q-72 15 -72 81z" />
<glyph unicode="&#x3c;" horiz-adv-x="600" d="M51 200v100l469 269v-134l-323 -185l323 -185v-134z" />
<glyph unicode="=" horiz-adv-x="600" d="M40 107v116h520v-116h-520zM40 277v116h520v-116h-520z" />
<glyph unicode="&#x3e;" horiz-adv-x="600" d="M51 65l323 185l-323 185v134l469 -269v-100l-469 -269v134z" />
<glyph unicode="?" horiz-adv-x="660" d="M61 509q0 79 78.5 132t194.5 53q129 0 201.5 -50t72.5 -139q0 -126 -134 -184q-53 -23 -67.5 -40.5t-14.5 -55.5v-8h-100q-2 12 -2 33q0 55 15.5 83t71.5 72q49 39 49 97q0 48 -29.5 76.5t-78.5 28.5q-40 0 -71 -16t-31 -37q0 -6 7.5 -25.5t7.5 -36.5q0 -33 -23.5 -54.5 t-59.5 -21.5q-41 0 -64 25t-23 68zM254 82q0 37 27 63.5t65 26.5q39 0 66 -27t27 -65t-27.5 -65.5t-65.5 -27.5t-65 27.5t-27 67.5z" />
<glyph unicode="@" horiz-adv-x="820" d="M60 346q0 106 55 188.5t137.5 124t173.5 41.5q55 0 111.5 -18.5t107 -53t82 -92.5t31.5 -128q0 -59 -25 -107.5t-61.5 -75.5t-73.5 -41t-67 -14q-66 0 -80 52q-44 -52 -110 -52q-56 0 -92.5 40t-36.5 101q0 84 58.5 146t138.5 62q53 0 89 -31l5 25h94l-39 -212 q-5 -20 -5 -34q0 -11 7 -18.5t17 -7.5q9 0 25.5 8.5t35.5 25.5t33 49t14 72q0 100 -74.5 168t-184.5 68q-126 0 -209.5 -81t-83.5 -204q0 -126 83 -209t210 -83q166 0 255 129h70q-53 -96 -136 -146.5t-189 -50.5q-153 0 -259.5 105t-106.5 254zM325 295q0 -28 12 -44 t33 -16q36 0 61.5 39.5t50.5 165.5q-31 21 -55 21q-40 0 -71 -50.5t-31 -115.5z" />
<glyph unicode="A" horiz-adv-x="720" d="M-34 0v82l16 2q42 5 65 29t52 93l198 475h155l196 -488q31 -65 46.5 -83.5t52.5 -25.5l16 -2v-82h-365v82l25 2q32 2 45 9.5t13 22.5q-1 15 -10 41l-30 85h-215l-32 -86q-9 -23 -9 -30q0 -20 17 -28.5t57 -13.5l16 -2v-82h-309zM258 327h150l-74 195z" />
<glyph unicode="B" horiz-adv-x="720" d="M20 0v82l20 2q42 5 55 20.5t13 63.5v345q0 48 -13 63.5t-55 20.5l-20 2v82h380q78 0 133 -13t92.5 -52.5t37.5 -105.5q0 -46 -25.5 -84t-70.5 -60q61 -20 93.5 -62.5t32.5 -103.5q0 -54 -19.5 -93t-46.5 -59t-68.5 -31.5t-71 -14t-67.5 -2.5h-400zM283 140 q0 -26 16 -38.5t71 -12.5q66 0 103.5 32t37.5 89t-34 82.5t-111 25.5h-83v-178zM283 410h80q62 0 96 22.5t34 62.5q0 43 -33.5 67t-94.5 24q-39 0 -57.5 -7.5t-21.5 -16t-3 -28.5v-124z" />
<glyph unicode="C" horiz-adv-x="740" d="M35 341q0 47 10.5 94t36 94t63.5 83.5t98 59t134 22.5q92 0 167 -36l8 23h69l84 -236l-77 -29q-54 94 -83 125q-69 71 -142 71q-81 0 -128.5 -73t-47.5 -197q0 -73 18.5 -127.5t49 -82t61.5 -40.5t63 -13q131 0 221 158l84 -38q-36 -96 -126.5 -154t-203.5 -58 q-157 0 -258 99.5t-101 254.5z" />
<glyph unicode="D" horiz-adv-x="780" d="M20 0v82l20 2q42 5 55 20.5t13 63.5v345q0 48 -13 63.5t-55 20.5l-20 2v82h318q70 0 126 -8t111 -30.5t91.5 -59.5t59 -99.5t22.5 -145.5q0 -69 -17.5 -125t-59 -106.5t-120.5 -78.5t-190 -28h-341zM283 162q0 -44 10 -58t57 -14q94 0 150 69.5t56 185.5 q0 115 -53.5 180.5t-147.5 65.5q-43 0 -57.5 -11t-14.5 -42v-376z" />
<glyph unicode="E" horiz-adv-x="720" d="M20 0v82l20 2q42 5 55 20.5t13 63.5v345q0 48 -13 63.5t-55 20.5l-20 2v82h577l99 -206l-68 -34q-104 150 -239 150q-32 0 -52 -3.5t-31 -8.5t-16 -19t-6 -25t-1 -37v-85h29q32 0 47 2t29.5 12.5t19.5 32.5t6 62h78v-311h-78q-9 70 -31.5 90t-71.5 20h-28v-118 q0 -79 11.5 -96t71.5 -17q86 0 154.5 42.5t133.5 136.5l70 -33l-110 -236h-594z" />
<glyph unicode="F" horiz-adv-x="680" d="M20 0v82l20 2q42 5 55 20.5t13 63.5v345q0 48 -13 63.5t-55 20.5l-20 2v82h571l95 -205l-69 -35q-58 79 -115 112t-135 33q-59 0 -71.5 -15.5t-12.5 -69.5v-94h29q58 0 76.5 17.5t25.5 91.5h74v-324h-74q-4 43 -11 67.5t-23 35t-29.5 12.5t-44.5 2h-23v-141 q0 -44 11.5 -62t56.5 -22l27 -2v-82h-358z" />
<glyph unicode="G" horiz-adv-x="780" d="M35 340q0 155 95 254.5t243 99.5q44 0 93.5 -12t80.5 -30l15 29h64l61 -229l-72 -25q-39 70 -69 100q-68 70 -154 70q-74 0 -119.5 -74.5t-45.5 -195.5q0 -107 48.5 -175t124.5 -68q54 0 95 36t41 83q0 64 -88 65v82h325v-82q-21 -3 -27.5 -4t-19.5 -4.5t-16 -8t-8.5 -14 t-6.5 -22.5t-1 -33v-191h-109l-23 58q-90 -62 -206 -62q-147 0 -234 101t-87 252z" />
<glyph unicode="H" horiz-adv-x="820" d="M20 0v82l20 2q42 5 55 20.5t13 63.5v345q0 48 -13 63.5t-55 20.5l-20 2v82h351v-82l-20 -2q-42 -5 -55 -20.5t-13 -63.5v-98h254v98q0 48 -13 63.5t-55 20.5l-20 2v82h351v-82l-20 -2q-42 -5 -55 -20.5t-13 -63.5v-345q0 -48 13 -63.5t55 -20.5l20 -2v-82h-351v82l20 2 q42 5 55 20.5t13 63.5v150h-254v-150q0 -48 13 -63.5t55 -20.5l20 -2v-82h-351z" />
<glyph unicode="I" horiz-adv-x="400" d="M20 0v82l24 2q45 4 56.5 22.5t11.5 61.5v345q0 45 -11.5 63t-56.5 21l-24 2v82h359v-82l-24 -2q-45 -4 -56.5 -22.5t-11.5 -61.5v-345q0 -45 11.5 -63t56.5 -21l24 -2v-82h-359z" />
<glyph unicode="J" horiz-adv-x="640" d="M-12 189q0 50 28.5 82t72.5 32q33 0 55 -21.5t22 -54.5q0 -34 -27 -65q-9 -10 -9 -17q0 -22 33 -39t74 -17q35 0 59.5 11.5t36.5 25.5t18 37t7 35.5t1 32.5v282q0 48 -13 63.5t-55 20.5l-20 2v82h351v-82l-20 -2q-42 -5 -55 -20.5t-13 -63.5v-272q0 -44 -5.5 -77.5 t-23 -68t-47.5 -57t-81.5 -37t-121.5 -14.5q-118 0 -192.5 56.5t-74.5 145.5z" />
<glyph unicode="K" horiz-adv-x="800" d="M20 0v82l20 2q42 5 55 20.5t13 63.5v345q0 48 -13 63.5t-55 20.5l-20 2v82h344v-82l-13 -2q-46 -7 -57 -20.5t-11 -63.5v-135l168 160q33 31 33 41q0 20 -50 20h-17v82h338v-82q-65 -9 -112 -33.5t-112 -84.5l-41 -38l146 -229q52 -81 78 -102.5t82 -29.5v-82h-379v82 l18 2q40 4 50.5 8.5t10.5 17.5q0 7 -7 20t-14 23l-7 10l-103 170l-82 -71v-94q0 -50 11 -63.5t57 -20.5l13 -2v-82h-344z" />
<glyph unicode="L" horiz-adv-x="640" d="M20 0v82l20 2q42 5 55 20.5t13 63.5v345q0 48 -13 63.5t-55 20.5l-20 2v82h351v-82l-20 -2q-42 -5 -55 -20.5t-13 -63.5v-332q0 -62 8.5 -76.5t52.5 -14.5q151 0 255 185l69 -37l-104 -238h-544z" />
<glyph unicode="M" horiz-adv-x="940" d="M20 0v82l20 2q42 5 55 20.5t13 63.5v345q0 48 -13 63.5t-55 20.5l-20 2v82h311l138 -426l142 426h313v-82l-20 -2q-42 -5 -55 -20.5t-13 -63.5v-345q0 -48 13 -63.5t55 -20.5l20 -2v-82h-351v82l20 2q42 5 55 20.5t13 63.5v347l-175 -515h-108l-172 522v-354 q0 -48 13 -63.5t55 -20.5l20 -2v-82h-274z" />
<glyph unicode="N" horiz-adv-x="740" d="M20 0v82l20 2q42 5 55 20.5t13 63.5v345q0 48 -13 63.5t-55 20.5l-20 2v82h295l228 -393v225q0 48 -13 63.5t-55 20.5l-20 2v82h269v-82l-20 -2q-42 -5 -55 -20.5t-13 -63.5v-513h-124l-311 526v-358q0 -48 13 -63.5t55 -20.5l20 -2v-82h-269z" />
<glyph unicode="O" horiz-adv-x="800" d="M35 334q0 156 105 258t265 102q157 0 260.5 -96t103.5 -252q0 -153 -108 -256t-269 -103q-150 0 -253.5 95t-103.5 252zM227 338q0 -41 8 -81t26 -79.5t54 -64t85 -24.5q79 0 128 70.5t49 184.5q0 117 -45.5 182.5t-125.5 65.5t-129.5 -70.5t-49.5 -183.5z" />
<glyph unicode="P" horiz-adv-x="660" d="M20 0v82l20 2q42 5 55 20.5t13 63.5v345q0 48 -13 63.5t-55 20.5l-20 2v82h359q64 0 111.5 -9t87 -30.5t60 -62.5t20.5 -101q0 -99 -71.5 -150.5t-208.5 -51.5h-95v-108q0 -48 13 -63.5t55 -20.5l20 -2v-82h-351zM283 367q16 -2 33 -2q72 0 111 30t39 85q0 49 -32 79 t-83 30q-25 0 -39.5 -4t-20.5 -15.5t-7 -21.5t-1 -32v-149z" />
<glyph unicode="Q" horiz-adv-x="800" d="M35 335q0 156 105 257.5t266 101.5q157 0 260 -97.5t103 -246.5q0 -121 -61 -208q67 -68 67 -137q0 -99 -109 -165t-272 -66q-137 0 -235.5 45t-98.5 108q0 29 21.5 49.5t51.5 20.5q37 0 60 -28q13 -17 20 -47q4 -24 26 -36q41 -25 127 -25q106 0 176.5 35.5t70.5 88.5 q0 30 -22 55q-96 -53 -200 -53q-153 0 -254.5 99.5t-101.5 248.5zM227 339q0 -134 65 -208q-1 4 -1 11q0 37 47 68t115 31q41 0 106 -17q18 56 18 131q0 107 -47 172t-124 65q-51 0 -88 -25.5t-55.5 -66.5t-27 -81.5t-8.5 -79.5zM364 113q0 -24 46 -24q43 0 80 26 q-36 23 -77 23q-22 0 -35.5 -7t-13.5 -18z" />
<glyph unicode="R" horiz-adv-x="780" d="M20 0v82l20 2q42 5 55 20.5t13 63.5v345q0 48 -13 63.5t-55 20.5l-20 2v82h389q67 0 117.5 -8t93 -28t64.5 -56.5t22 -89.5q0 -69 -44.5 -118t-122.5 -67l126 -163q38 -42 59 -55.5t59 -13.5v-82h-232l-216 293h-52v-125q0 -48 13 -63.5t55 -20.5l20 -2v-82h-351z M283 388h71q85 0 116.5 30.5t31.5 70.5q0 32 -13 53.5t-37 30.5t-44.5 12t-47.5 3q-28 0 -44.5 -3.5t-23 -11t-8 -13t-1.5 -16.5v-156z" />
<glyph unicode="S" horiz-adv-x="660" d="M21 244l75 25q101 -185 262 -185q55 0 90.5 25t35.5 64q0 28 -20 42.5t-76 28.5l-99 25q-7 2 -33 8t-37.5 9t-36 10.5t-37 15t-32.5 19t-30.5 25t-21.5 31t-16 40.5t-5 49q0 95 72.5 156.5t185.5 61.5q93 0 160 -45l12 32h60l66 -203l-72 -27q-58 80 -104 113t-115 33 q-48 0 -79 -19.5t-31 -50.5q0 -19 16 -34.5t41.5 -25t44 -14t35.5 -7.5l91 -19q29 -6 47.5 -10t54.5 -19.5t57.5 -34.5t39 -55t17.5 -81q0 -104 -80.5 -172t-202.5 -68q-110 0 -179 51l-14 -49h-59z" />
<glyph unicode="T" horiz-adv-x="700" d="M-4 474l75 207h551l81 -207l-73 -29q-23 38 -42 64t-56.5 53.5t-76.5 27.5q-14 0 -17 -5.5t-3 -29.5v-387q0 -17 0.5 -26t4 -21.5t10.5 -19t20.5 -11.5t32.5 -6l30 -2v-82h-371v82l30 2q24 1 39 7.5t21 20.5t7 24.5t1 31.5v384q0 26 -3 32t-14 6q-50 0 -98 -40.5 t-74 -104.5z" />
<glyph unicode="U" horiz-adv-x="740" d="M15 599v82h351v-82l-20 -2q-42 -5 -55 -20.5t-13 -63.5v-264q0 -75 27.5 -116t98.5 -41q46 0 75.5 15t41 42.5t14.5 47.5t3 49v267q0 48 -13 63.5t-55 20.5l-20 2v82h274v-82l-20 -2q-42 -5 -55 -20.5t-13 -63.5v-262q0 -45 -4.5 -78.5t-20.5 -70.5t-43.5 -60.5 t-77.5 -39t-119 -15.5q-55 0 -99 10.5t-71.5 25.5t-47.5 39t-29 43.5t-14.5 47.5t-6 41.5t-0.5 35.5v283q0 48 -13 63.5t-55 20.5z" />
<glyph unicode="V" horiz-adv-x="720" d="M-20 599v82h368v-82l-15 -2q-42 -6 -57 -12t-15 -22q0 -10 8 -31l129 -351l122 348q3 11 6 32q0 18 -14 25t-48 11l-17 2v82h283v-82l-12 -2q-38 -5 -57 -23.5t-43 -72.5l-191 -501h-136l-198 518q-18 47 -34 59.5t-65 19.5z" />
<glyph unicode="W" horiz-adv-x="940" d="M-20 599v82h301v-82q-42 -3 -42 -30q0 -11 5 -29l87 -327l78 240l-33 91q-12 32 -24.5 43t-39.5 12v82h312v-82l-24 -3q-25 -3 -35 -10t-10 -22q0 -12 4 -27l92 -331l97 328q1 5 1 15q0 48 -74 48l-13 2v82h301v-82l-16 -2q-50 -7 -69 -26.5t-42 -90.5l-156 -480h-131 l-93 311l-99 -311h-129l-164 517q-14 46 -31.5 63.5t-52.5 18.5z" />
<glyph unicode="X" horiz-adv-x="780" d="M1 0v82q67 5 123 74l152 187l-118 157q-47 63 -68.5 79t-69.5 20v82h372v-82q-63 -3 -63 -21q0 -10 12 -27l74 -105l73 103q9 20 9 28q0 22 -48 22h-16v82h313v-82q-101 -14 -176 -110l-98 -124l135 -176q52 -60 77.5 -80t60.5 -25l25 -2v-82h-391v82l20 2q47 4 47 21 q0 5 -12 24l-100 141l-86 -124q-15 -23 -15 -35q0 -23 53 -27l25 -2v-82h-310z" />
<glyph unicode="Y" horiz-adv-x="700" d="M-20 599v82h380v-82q-78 -1 -78 -22q0 -10 16 -38l82 -149l78 129q28 46 28 58q0 21 -74 22v82h306v-82q-52 -3 -86 -26.5t-73 -84.5l-129 -200v-120q0 -44 11.5 -62.5t56.5 -21.5l28 -2v-82h-367v82l28 2q45 3 56.5 22t11.5 62v108l-140 219q-36 57 -63 78.5t-72 25.5z " />
<glyph unicode="Z" horiz-adv-x="640" d="M6 65l381 525q-44 4 -60 4q-170 0 -252 -160l-69 29l99 218h483l17 -64l-378 -523q42 -7 71 -7q121 0 191 62q46 39 72 109l74 -24l-89 -234h-524z" />
<glyph unicode="[" horiz-adv-x="300" d="M75 -138v858h210v-78h-29q-25 0 -34 -9.5t-9 -37.5v-608q0 -28 9 -37.5t34 -9.5h29v-78h-210z" />
<glyph unicode="\" horiz-adv-x="600" d="M50 725h134l371 -725h-134z" />
<glyph unicode="]" horiz-adv-x="300" d="M21 -60h29q26 0 35 9.5t9 37.5v608q0 28 -9 37.5t-35 9.5h-29v78h210v-858h-210v78z" />
<glyph unicode="^" horiz-adv-x="600" d="M52 318l209 404h85l208 -404h-119l-131 250l-133 -250h-119z" />
<glyph unicode="_" horiz-adv-x="500" d="M0 -95h500v-60h-500v60z" />
<glyph unicode="`" horiz-adv-x="400" d="M53 689q0 30 20.5 51.5t49.5 21.5q37 0 84 -41l105 -94l-20 -49l-159 34q-80 17 -80 77z" />
<glyph unicode="a" d="M28 128q0 114 150 159q65 20 146 27v51q0 54 -63 54q-24 0 -44 -10t-20 -34q0 -33 -14 -50q-22 -27 -63 -27q-31 0 -52.5 21.5t-21.5 53.5q0 60 62.5 99t159.5 39q218 0 218 -165v-197q0 -56 21 -56q8 0 25 17l56 -68q-64 -51 -127 -51q-34 0 -65.5 14t-49.5 37 q-75 -51 -159 -51q-71 0 -115 38t-44 99zM198 149q0 -22 13 -36t34 -14q41 0 79 35v100q-126 -23 -126 -85z" />
<glyph unicode="b" horiz-adv-x="600" d="M-20 600v81q74 0 171 43h65v-242q68 29 122 29q101 0 165.5 -73.5t64.5 -189.5q0 -112 -66 -184.5t-169 -72.5q-37 0 -65 8t-78 33l-18 -32h-118v517q0 46 -11 61.5t-48 19.5zM216 128q32 -35 81 -35q101 0 101 168q0 74 -24.5 113.5t-71.5 39.5q-49 0 -86 -38v-248z" />
<glyph unicode="c" d="M31 251q0 118 75 189t199 71q93 0 157.5 -42.5t64.5 -104.5q0 -35 -24 -58.5t-59 -23.5q-32 0 -57.5 21t-25.5 47v29q0 16 -17 28t-39 12q-46 0 -71 -41.5t-25 -117.5q0 -78 32.5 -125t86.5 -47q87 0 141 98l81 -42q-30 -72 -96.5 -112.5t-155.5 -40.5q-119 0 -193 72.5 t-74 187.5z" />
<glyph unicode="d" horiz-adv-x="640" d="M31 245q0 113 68 189.5t169 76.5q63 0 115 -29v35q0 46 -11 61t-48 20l-14 2v81q83 7 182 43h53v-560q0 -43 7.5 -56.5t36.5 -19.5l33 -7v-81h-224v38q-54 -47 -138 -47q-109 0 -169 77t-60 177zM201 243q0 -65 26 -106t66 -41q54 0 90 42v236q-35 29 -80 29 q-46 0 -74 -43.5t-28 -116.5z" />
<glyph unicode="e" d="M31 253q0 113 74 185.5t189 72.5q72 0 129.5 -29.5t86.5 -81.5q26 -47 26 -146h-324q0 -75 31 -115t90 -40q74 0 131 85l84 -41q-20 -32 -35.5 -52t-45 -46.5t-71 -40t-93.5 -13.5q-118 0 -195 74t-77 188zM218 331h141q-1 47 -16.5 67.5t-49.5 20.5t-53.5 -23t-21.5 -65 z" />
<glyph unicode="f" horiz-adv-x="380" d="M22 417v85h75v46q0 82 64.5 135t165.5 53q63 0 98.5 -21.5t35.5 -60.5q0 -29 -23.5 -49.5t-57.5 -20.5q-20 0 -32.5 8t-28.5 31q-8 11 -23 11q-37 0 -37 -59v-73h94v-85h-94v-252q0 -43 8.5 -56t41.5 -20l33 -7v-82h-318v82l29 7q29 7 36.5 20t7.5 56v252h-75z" />
<glyph unicode="g" d="M9 -113q0 59 68 90q-50 37 -50 87q0 45 26 78t70 43q-69 52 -69 138q0 83 63 137.5t159 54.5q34 0 87 -12l4 6q4 6 7.5 10.5t10 12t13.5 14t16 14t18.5 13t21 10.5t24.5 7.5t27 2.5q33 0 55.5 -19.5t22.5 -48.5q0 -23 -18 -40t-43 -17q-9 0 -26.5 6t-28.5 6 q-18 0 -31 -12q78 -60 78 -146q0 -83 -62 -136t-160 -53q-17 0 -53.5 5.5t-44.5 5.5q-22 0 -22 -22q0 -17 15.5 -23.5t65.5 -11.5l158 -14q155 -14 155 -133q0 -25 -6.5 -48.5t-26 -50t-51 -45.5t-86.5 -31.5t-127 -12.5q-48 0 -90.5 6t-82.5 20.5t-63.5 42t-23.5 66.5z M122 -108q0 -25 41 -41.5t103 -16.5q145 0 145 48q0 18 -16.5 26.5t-62.5 13.5l-177 19q-33 -20 -33 -49zM216 315q0 -100 68 -100t68 98q0 58 -16 84t-52 26q-35 0 -51.5 -26t-16.5 -82z" />
<glyph unicode="h" horiz-adv-x="680" d="M22 0v81l35 7q28 5 36 19.5t8 56.5v353q0 42 -10 59.5t-49 21.5l-20 2v81q74 0 176 43h65v-258q80 45 155 45q26 0 50 -6.5t49.5 -22.5t41 -49t15.5 -79v-190q0 -42 8 -56.5t36 -19.5l36 -7v-81h-299v81l13 5q31 12 37.5 23t6.5 55v177q0 62 -42 62q-24 0 -56.5 -11.5 t-50.5 -27.5v-200q0 -44 6.5 -55t37.5 -23l13 -5v-81h-298z" />
<glyph unicode="i" horiz-adv-x="360" d="M22 0v81l32 7q28 6 36 19.5t8 56.5v144q0 46 -11.5 62.5t-43.5 19.5l-21 2v81l176 29h62v-338q0 -43 7.5 -56t36.5 -20l31 -7v-81h-313zM87 671q0 41 27 68t68 27q38 0 67 -29.5t29 -69.5q0 -37 -28 -64.5t-66 -27.5q-40 0 -68.5 28t-28.5 68z" />
<glyph unicode="j" horiz-adv-x="340" d="M-94 -142q0 28 20.5 47t52.5 19q20 0 33 -7t36 -32q14 -14 28 -14q37 0 37 68v369q0 46 -11 62t-44 20l-18 2v81l173 29h62v-515q0 -213 -233 -213q-64 0 -100 22.5t-36 61.5zM102 671q0 41 27 68t68 27q38 0 67 -29.5t29 -69.5q0 -37 -28 -64.5t-66 -27.5 q-40 0 -68.5 28t-28.5 68z" />
<glyph unicode="k" horiz-adv-x="660" d="M22 0v81l29 7q29 7 36.5 20t7.5 56v353q0 46 -11 61t-48 20l-14 2v81q73 0 170 43h65v-420l65 70q19 20 19 32q0 13 -25 14l-11 1v81h289v-81l-14 -1q-45 -6 -82 -33l-88 -65l136 -190q32 -45 79 -49l18 -2v-81h-305v81l11 2q21 4 21 17q0 10 -9 24l-67 104l-37 -33v-31 q0 -70 46 -80l14 -3v-81h-295z" />
<glyph unicode="l" horiz-adv-x="340" d="M9 0v81l32 7q28 6 36 19.5t8 56.5v353q0 42 -10 59.5t-49 21.5l-17 2v81q92 8 172 43h66v-560q0 -43 7.5 -56t36.5 -20l31 -7v-81h-313z" />
<glyph unicode="m" horiz-adv-x="1000" d="M22 0v81l33 7q28 6 36 19.5t8 56.5v144q0 45 -11.5 62t-43.5 20l-22 2v81l160 29h62v-37q78 46 178 46q80 0 135 -52q86 52 186 52q68 0 114 -35t46 -118v-194q0 -43 8 -56.5t36 -19.5l33 -7v-81h-301v81l18 5q29 8 36.5 21.5t7.5 56.5v182q0 26 -15 41.5t-40 15.5 q-48 0 -104 -35v-204q0 -43 7.5 -56.5t36.5 -21.5l18 -5v-81h-286v81l18 5q29 8 36.5 21.5t7.5 56.5v186q0 59 -44 59q-53 0 -115 -41v-204q0 -43 7.5 -56.5t36.5 -21.5l18 -5v-81h-301z" />
<glyph unicode="n" horiz-adv-x="680" d="M22 0v81l29 7q29 7 36.5 20t7.5 56v144q0 46 -11 62t-44 20l-18 2v81l156 29h62v-43q94 52 182 52q65 0 110.5 -36t45.5 -123v-188q0 -43 7.5 -56t36.5 -20l30 -7v-81h-298v81l18 5q29 8 36.5 21.5t7.5 56.5v175q0 64 -45 64q-49 0 -114 -44v-195q0 -43 7.5 -56.5 t36.5 -21.5l18 -5v-81h-297z" />
<glyph unicode="o" horiz-adv-x="620" d="M31 258q0 113 75 183t197 70q129 0 205.5 -71t76.5 -192q0 -117 -75.5 -187t-201.5 -70q-128 0 -202.5 72t-74.5 195zM213 246q0 -158 96 -158q94 0 94 156q0 165 -94 165q-96 0 -96 -163z" />
<glyph unicode="p" horiz-adv-x="640" d="M22 -132l29 7q29 7 36.5 20t7.5 56v357q0 46 -11 62t-44 20l-18 2v81l156 29h62v-29q80 38 134 38q100 0 168.5 -73t68.5 -179q0 -116 -66.5 -192t-167.5 -76q-49 0 -120 28v-68q0 -43 7.5 -56t36.5 -20l29 -7v-81h-308v81zM257 124q34 -31 77 -31q51 0 79 44.5t28 124.5 q0 70 -26 111t-71 41q-51 0 -87 -41v-249z" />
<glyph unicode="q" horiz-adv-x="620" d="M31 251q0 116 67 188t174 72q79 0 147 -43l19 34h115v-551q0 -44 8 -57.5t36 -18.5l36 -7v-81h-322v81l36 7q28 5 36 19t8 57v73q-38 -33 -118 -33q-106 0 -174 73t-68 187zM201 246q0 -30 4.5 -56t15.5 -50t32 -38t50 -14q43 0 88 29v260q-38 32 -83 32 q-107 0 -107 -163z" />
<glyph unicode="r" horiz-adv-x="460" d="M22 0v81l29 7q29 7 36.5 20t7.5 56v144q0 46 -11 62t-44 20l-18 2v81l156 29h62v-49q50 35 75.5 46.5t56.5 11.5q38 0 64 -26.5t26 -65.5q0 -33 -22.5 -54.5t-56.5 -21.5q-27 0 -50 15.5t-36 15.5q-21 0 -40 -16v-194q0 -43 7.5 -56t36.5 -20l29 -7v-81h-308z" />
<glyph unicode="s" horiz-adv-x="520" d="M22 165l77 16q37 -41 45 -48q45 -40 111 -40q37 0 62 12.5t25 29.5q0 35 -88 46l-64 8q-78 10 -119 48t-41 100q0 76 57.5 125t146.5 49q59 0 128 -33l12 24h63l19 -148l-82 -12q-56 77 -130 77q-30 0 -49.5 -11t-19.5 -28q0 -31 78 -45l75 -14q27 -5 40 -8t41 -14.5 t43 -25.5t27.5 -41t12.5 -61q0 -76 -64 -128t-157 -52q-64 0 -131 30l-12 -25h-66z" />
<glyph unicode="t" horiz-adv-x="460" d="M22 412v79q129 18 144 170h94v-159h137v-85h-137v-242q0 -39 8 -53.5t28 -14.5q19 0 37.5 11.5t51.5 43.5l60 -71q-44 -53 -94 -76.5t-117 -23.5q-39 0 -66 11.5t-40.5 26.5t-20.5 42t-8 43t-1 45v253h-76z" />
<glyph unicode="u" horiz-adv-x="660" d="M22 392v81l173 29h62v-330q0 -43 10 -57.5t40 -14.5q45 0 109 38v170q0 46 -11 62t-44 20l-18 2v81l173 29h62v-338q0 -43 7.5 -56t36.5 -20l31 -7v-81h-220v39q-50 -29 -88 -40.5t-87 -11.5q-46 0 -79 14t-49 32t-24.5 47.5t-9.5 46t-1 42.5v139q0 46 -11 62t-44 20z " />
<glyph unicode="v" horiz-adv-x="600" d="M-6 421v81h304v-81q-25 -3 -37 -17.5t-12 -32.5q0 -10 3 -17l65 -167l61 160q6 16 8 34q0 15 -11 23.5t-38 16.5v81h256v-81q-53 -25 -69.5 -41.5t-43.5 -75.5l-143 -304h-101l-155 333q-25 53 -36 64.5t-51 23.5z" />
<glyph unicode="w" horiz-adv-x="800" d="M-6 421v81h269v-81l-13 -2q-40 -6 -40 -38q0 -8 3 -17l73 -187l57 181l-4 11q-11 29 -16.5 35.5t-25.5 13.5l-11 3v81h262v-81l-15 -2q-40 -5 -40 -35q0 -9 4 -20l60 -175l66 175q3 9 3 16q0 27 -43 38l-12 3v81h239v-81l-11 -2q-27 -5 -44.5 -23t-32.5 -58l-129 -338 h-121l-74 215l-75 -215h-116l-135 333q-18 45 -28.5 58.5t-38.5 25.5z" />
<glyph unicode="x" horiz-adv-x="600" d="M8 0v81q33 10 53 25.5t76 75.5l72 78l-62 84q-31 43 -52 57t-66 20v81h288v-81q-40 -3 -40 -18q0 -7 10 -20l32 -42l43 41q16 15 16 23q0 13 -34 16v81h240v-81q-78 -15 -155 -93l-60 -53l93 -120q28 -35 52 -49t77 -25v-81h-310v81q40 7 40 21q0 10 -15 29l-40 54 l-48 -54q-16 -19 -16 -27q0 -18 51 -23v-81h-245z" />
<glyph unicode="y" horiz-adv-x="620" d="M6 420v82h311v-82h-11q-55 0 -55 -25q0 -4 4 -20l74 -188l71 186q4 8 4 17q0 30 -46 30h-12v82h267v-82l-12 -2q-39 -10 -58.5 -28t-41.5 -66l-172 -371q-14 -30 -23.5 -48t-28.5 -45t-38 -42.5t-49 -27t-65 -11.5q-48 0 -78 24.5t-30 63.5q0 35 22.5 58.5t56.5 23.5 t66 -29q8 -8 14 -8q9 0 30.5 29.5t37.5 63.5l-151 341q-19 42 -31 55t-40 17z" />
<glyph unicode="z" horiz-adv-x="560" d="M22 81l287 329q-16 1 -30 1q-73 0 -116 -43q-18 -18 -43 -59l-80 28l60 165h396l32 -74l-287 -333q14 -2 30 -2q73 0 118.5 27.5t80.5 92.5l77 -27l-63 -186h-437z" />
<glyph unicode="{" horiz-adv-x="320" d="M34 252v76q39 5 56 20t17 43v202q0 127 125 127q22 0 48 -2v-78q-40 -5 -57.5 -18.5t-17.5 -40.5v-179q0 -47 -16 -71.5t-56 -40.5q40 -16 56 -40.5t16 -71.5v-179q0 -27 17.5 -40.5t57.5 -18.5v-78q-32 -2 -52 -2q-121 0 -121 127v202q0 28 -17 43t-56 20z" />
<glyph unicode="|" horiz-adv-x="600" d="M242 -138v858h116v-858h-116z" />
<glyph unicode="}" horiz-adv-x="320" d="M35 -60q42 6 58.5 19t16.5 40v179q0 47 16 71.5t56 40.5q-40 16 -56 40.5t-16 71.5v179q0 27 -16.5 40t-58.5 19v78q25 2 48 2q125 0 125 -127v-202q0 -28 17 -42.5t55 -20.5v-76q-38 -6 -55 -20.5t-17 -42.5v-202q0 -66 -32 -96.5t-101 -30.5q-8 0 -40 2v78z" />
<glyph unicode="~" horiz-adv-x="600" d="M51 321q36 66 69 93t77 27q30 0 74 -18l65 -28q43 -18 72 -18q40 0 83 66l64 -71q-25 -52 -63.5 -82t-78.5 -30q-29 0 -91 26l-55 22q-36 16 -65 16q-25 0 -43.5 -15t-45.5 -58z" />
<glyph unicode="&#xa1;" horiz-adv-x="360" d="M78 -82q0 27 24 133q26 118 35 235h82q12 -125 35 -229q24 -110 24 -149q0 -42 -29 -71t-72 -29q-45 0 -72 30t-27 80zM86 422q1 39 27.5 66t65.5 27q38 0 65 -27.5t27 -67.5q0 -37 -27.5 -63.5t-65.5 -26.5t-65 27t-27 65z" />
<glyph unicode="&#xa2;" horiz-adv-x="660" d="M133 350q0 77 46.5 128.5t130.5 65.5v130h59v-130q64 -1 106.5 -31t42.5 -74q0 -25 -18 -42.5t-43 -17.5q-26 0 -46 18q-10 9 -13.5 16t-10.5 34q-8 26 -37 26q-38 0 -61 -33t-23 -88q0 -52 28 -84t75 -32q60 0 123 54l43 -35q-25 -39 -70 -66.5t-96 -34.5v-138h-59v138 q-82 13 -129.5 65.5t-47.5 130.5z" />
<glyph unicode="&#xa3;" horiz-adv-x="660" d="M10 96q0 47 36 75.5t96 28.5q43 0 85 -15q-17 89 -54 160h-131l22 63h85q-11 41 -11 76q0 67 41.5 116.5t100.5 71.5t125 22q93 0 154 -44t61 -111q0 -40 -22 -66t-56 -26q-29 0 -50.5 19t-21.5 45q0 9 8.5 29t8.5 29q0 20 -25 33.5t-61 13.5q-54 0 -86 -32.5t-32 -87.5 q0 -35 21 -88h199l-21 -63h-153q47 -79 47 -151q0 -20 -5 -45q95 -49 145 -49q19 0 32.5 9t13.5 23t-13.5 22.5t-34.5 8.5q-16 0 -32 -3l-22 56q37 19 79 19q51 0 85.5 -34.5t34.5 -85.5q0 -54 -41 -91t-101 -37q-33 0 -59 9.5t-66.5 34t-62.5 35.5q-29 -36 -77 -57.5 t-100 -21.5q-63 0 -102.5 30.5t-39.5 78.5zM102 96q0 -12 12 -19.5t32 -7.5q48 0 71 39q-34 14 -63 14q-52 0 -52 -26z" />
<glyph unicode="&#xa4;" horiz-adv-x="660" d="M77 156l48 48q-42 68 -42 135q0 75 42 138l-48 48l67 68l48 -48q68 43 140 43q71 0 137 -43l48 48l66 -68l-48 -47q43 -62 43 -138t-42 -136l48 -48l-66 -68l-48 48q-67 -43 -139 -43q-75 0 -139 43l-48 -48zM206 340q0 -50 36.5 -86t87.5 -36t88 36t37 85q0 51 -36.5 87 t-88.5 36q-51 0 -87.5 -36t-36.5 -86z" />
<glyph unicode="&#xa5;" horiz-adv-x="660" d="M-28 599v82h367v-82q-78 -1 -78 -21q1 -12 16 -38l83 -151l76 130q28 47 28 58q0 12 -16 16t-58 6v82h306v-82q-58 -2 -93 -31.5t-93 -123.5h129v-63h-171l-53 -86h224v-63h-230v-64q0 -44 12 -62.5t56 -21.5l28 -2v-82h-354v82l28 2q45 3 56.5 22t11.5 62v64h-216v63 h206l-54 86h-152v63h111l-33 52q-36 57 -63 77t-74 26z" />
<glyph unicode="&#xa6;" horiz-adv-x="600" d="M242 -138v343h116v-343h-116zM242 377v343h116v-343h-116z" />
<glyph unicode="&#xa7;" horiz-adv-x="600" d="M36 -6q0 29 21.5 48t54.5 19q23 0 40 -7.5t25.5 -19t13 -22.5t5.5 -18l1 -8q2 -17 14.5 -29t30.5 -16t29 -5.5t21 -1.5q44 0 85 19.5t41 63.5q0 28 -18 42.5t-68 26.5l-86 20q-39 9 -68.5 19.5t-59 28.5t-45 44.5t-15.5 61.5q0 85 71 131q-35 25 -49 51.5t-14 67.5 q0 80 68.5 132t174.5 52q93 0 162.5 -43t69.5 -101q0 -24 -22 -42.5t-50 -18.5q-29 0 -52.5 19.5t-30.5 49.5q-11 49 -81 49q-42 0 -68 -18.5t-26 -48.5q0 -23 15 -33.5t51 -21.5q2 0 3.5 -0.5t3.5 -1.5l113 -32q65 -18 95 -38q67 -45 67 -125q0 -69 -54 -117 q55 -51 55 -119q0 -100 -83 -155t-199 -55q-103 0 -172.5 43.5t-69.5 108.5zM198 300q0 -20 12.5 -30.5t47.5 -19.5l154 -41q14 22 14 42q0 23 -13.5 36t-47.5 23l-137 40q-30 -22 -30 -50z" />
<glyph unicode="&#xa8;" horiz-adv-x="500" d="M68 671q0 30 19.5 49.5t49.5 19.5q28 0 49 -21.5t21 -50.5q0 -27 -20.5 -47t-48.5 -20q-29 0 -49.5 20.5t-20.5 49.5zM302 671q0 30 19.5 49.5t49.5 19.5q28 0 49 -21.5t21 -50.5q0 -27 -20.5 -47t-48.5 -20q-29 0 -49.5 20.5t-20.5 49.5z" />
<glyph unicode="&#xa9;" horiz-adv-x="740" d="M20 337q0 145 102.5 247.5t247.5 102.5t247.5 -102.5t102.5 -247.5t-102.5 -247.5t-247.5 -102.5t-247.5 102.5t-102.5 247.5zM78 337q0 -121 85.5 -206.5t206.5 -85.5t206.5 85.5t85.5 206.5t-85.5 206.5t-206.5 85.5t-206.5 -85.5t-85.5 -206.5zM178 337 q0 68 46.5 123.5t143.5 55.5q48 0 85 -15l3 9h48l49 -127l-54 -18q-31 49 -46 64q-36 33 -71 33q-40 0 -63.5 -33.5t-23.5 -90.5q0 -63 29.5 -92t65.5 -29q66 0 112 74l9 3l52 -22q-18 -51 -69.5 -82.5t-116.5 -31.5q-87 0 -143 50.5t-56 128.5z" />
<glyph unicode="&#xaa;" horiz-adv-x="400" d="M27 286v57h362v-57h-362zM27 459q0 25 16 44.5t45.5 32t59 19.5t69.5 13v38q0 28 -35 28q-39 0 -37 -19q0 -20 -14.5 -32t-39.5 -12q-22 0 -36.5 11t-14.5 28q0 37 41 60.5t104 23.5q82 0 119 -32q26 -23 26 -67v-123q0 -27 9 -27q4 0 17 10l40 -44q-41 -34 -86 -34 q-41 0 -75 29l-5 -2q-48 -27 -97 -27q-47 0 -76.5 23t-29.5 59zM140 472q0 -11 8 -19t19 -8q27 0 50 20v50q-77 -12 -77 -43z" />
<glyph unicode="&#xab;" horiz-adv-x="400" d="M34 253l104 176l55 -27l-55 -141l55 -159l-49 -31zM206 261l102 169l52 -28l-52 -141l52 -156l-52 -31z" />
<glyph unicode="&#xac;" horiz-adv-x="600" d="M40 277v116h520v-228h-116v112h-404z" />
<glyph unicode="&#xad;" horiz-adv-x="360" d="M20 210l47 108h273l-45 -108h-275z" />
<glyph unicode="&#xae;" horiz-adv-x="740" d="M20 337q0 145 102.5 247.5t247.5 102.5t247.5 -102.5t102.5 -247.5t-102.5 -247.5t-247.5 -102.5t-247.5 102.5t-102.5 247.5zM78 337q0 -121 85.5 -206.5t206.5 -85.5t206.5 85.5t85.5 206.5t-85.5 206.5t-206.5 85.5t-206.5 -85.5t-85.5 -206.5zM162 164v55l15 1 q18 1 23.5 7.5t5.5 25.5v168q0 19 -5.5 25.5t-23.5 7.5l-15 2v54h212q166 0 166 -96q0 -34 -21.5 -59t-61.5 -35l59 -70q21 -20 31.5 -26t30.5 -5v-55h-132l-115 142h-17v-53q0 -19 5.5 -25.5t24.5 -7.5l13 -2v-54h-195zM314 368h31q71 0 71 41t-68 41q-16 0 -23.5 -2 t-9 -4.5t-1.5 -7.5v-68z" />
<glyph unicode="&#xaf;" horiz-adv-x="460" d="M68 628v85h315v-85h-315z" />
<glyph unicode="&#xb0;" horiz-adv-x="400" d="M50 534q0 64 44.5 108t108.5 44q62 0 104.5 -44t42.5 -109q0 -64 -43.5 -108.5t-106.5 -44.5t-106.5 44.5t-43.5 109.5zM106 533q0 -40 28 -68t66 -28q39 0 66 28t27 68t-26.5 68t-64.5 28q-40 0 -68 -28t-28 -68z" />
<glyph unicode="&#xb1;" horiz-adv-x="600" d="M40 0v116h520v-116h-520zM40 308v116h202v202h116v-202h202v-116h-202v-88h-116v88h-202z" />
<glyph unicode="&#xb2;" horiz-adv-x="396" d="M14 344q104 64 147 101q75 67 75 130q0 26 -17.5 41t-47.5 15q-23 0 -41.5 -9.5t-18.5 -20.5q0 -4 8 -17.5t8 -25.5q0 -20 -16 -34.5t-39 -14.5q-25 0 -41.5 17t-16.5 42q0 52 49 86.5t124 34.5q79 0 127.5 -34.5t48.5 -90.5q0 -50 -48.5 -97.5t-158.5 -104.5h74 q57 0 72.5 8.5t36.5 50.5l57 -14l-40 -134h-331z" />
<glyph unicode="&#xb3;" horiz-adv-x="396" d="M5 366q0 25 16.5 41.5t39.5 16.5q24 0 40.5 -14t16.5 -34q0 -6 -6 -24q0 -10 20.5 -17.5t46.5 -7.5q40 0 62.5 18t22.5 50q0 36 -25 52.5t-78 16.5q-13 0 -26 -1v60h19q84 0 84 58q0 21 -16 33.5t-42 12.5q-18 0 -36 -8t-18 -16q0 -2 5.5 -13.5t5.5 -19.5 q0 -19 -17 -32.5t-41 -13.5q-25 0 -40.5 15.5t-15.5 40.5q0 47 49 78t123 31t122 -31.5t48 -80.5q0 -25 -17 -47.5t-45 -33.5q42 -12 65 -37.5t23 -59.5q0 -59 -58.5 -96.5t-150.5 -37.5q-76 0 -126.5 28.5t-50.5 72.5z" />
<glyph unicode="&#xb4;" horiz-adv-x="400" d="M88 627l105 94q47 41 84 41q29 0 49.5 -21.5t20.5 -51.5q0 -60 -80 -77l-159 -34z" />
<glyph unicode="&#xb5;" horiz-adv-x="660" d="M22 392v81l173 29h62v-330q0 -43 10 -57.5t40 -14.5q45 0 109 38v170q0 46 -11 62t-44 20l-18 2v81l173 29h62v-338q0 -43 8 -56.5t36 -19.5l31 -7v-81h-220v39q-88 -52 -172 -52q-69 0 -108 49v-12q0 -37 17 -77q28 -67 28 -91q0 -34 -20 -54.5t-52 -20.5 q-33 0 -53.5 20t-20.5 52q0 24 26 91q17 45 17 76v289q0 45 -11 61t-44 20z" />
<glyph unicode="&#xb6;" horiz-adv-x="800" d="M14 481q0 200 265 200h478v-85l-16 -2q-47 -6 -57.5 -24t-10.5 -95v-371q0 -72 11 -91.5t55 -23.5l18 -2v-85h-548v85l16 2q44 5 56 26.5t12 88.5v170q-61 3 -105.5 12t-86.5 30.5t-64.5 63t-22.5 101.5zM441 -13h85v609h-85v-609z" />
<glyph unicode="&#xb7;" horiz-adv-x="340" d="M80 250q0 38 26 64t64 26t64 -26t26 -64t-26 -64t-64 -26t-64 26t-26 64z" />
<glyph unicode="&#xb8;" horiz-adv-x="360" d="M68 -166q0 16 9.5 25t24.5 9q14 0 31 -12q21 -17 37 -17q13 0 22 12t9 33q0 41 -61 41q-20 0 -33 -2l9 79h73v-46h36q34 0 57 -21.5t23 -53.5q0 -42 -43 -74.5t-95 -32.5q-43 0 -71 17t-28 43z" />
<glyph unicode="&#xb9;" horiz-adv-x="396" d="M65 273v55h22q27 0 42 10.5t17 21.5l1 10v198q0 22 -12.5 31t-54.5 9h-12v53q8 -1 15 -1q57 0 134 19l11 2h34v-311q0 -13 3 -20.5t17.5 -14.5t42.5 -7h20v-55h-280z" />
<glyph unicode="&#xba;" horiz-adv-x="400" d="M17 537q0 74 48.5 115.5t136.5 41.5q83 0 132 -43.5t49 -117.5q0 -72 -49 -114t-133 -42q-86 0 -135 42.5t-49 117.5zM19 286v57h362v-57h-362zM140 531q0 -92 60 -92t60 94q0 99 -59 99q-32 0 -46.5 -23.5t-14.5 -77.5z" />
<glyph unicode="&#xbb;" horiz-adv-x="400" d="M34 105l52 156l-52 141l52 28l102 -169l-102 -187zM201 102l55 159l-55 141l55 27l104 -176l-110 -182z" />
<glyph unicode="&#xbc;" horiz-adv-x="990" d="M65 273v55h22q27 0 42 10.5t17 21.5l1 10v198q0 22 -12.5 31t-54.5 9h-12v53q7 -1 14 -1q58 0 135 19l11 2h34v-311q0 -13 3 -20.5t17.5 -14.5t42.5 -7h20v-55h-280zM262 0l425 681h81l-428 -681h-78zM567 146q129 148 205 262h99v-244h96l-30 -64h-66v-18q0 -25 38 -26 l20 -1v-55h-215v55l18 1q36 2 36 26v18h-177zM664 164h104v137q-18 -28 -104 -137z" />
<glyph unicode="&#xbd;" horiz-adv-x="990" d="M65 273v55h22q27 0 42 10.5t17 21.5l1 10v198q0 22 -12.5 31t-54.5 9h-12v53q8 -1 14 -1q53 0 135 19l11 2h34v-311q0 -13 3 -20.5t17.5 -14.5t42.5 -7h20v-55h-280zM236 0l425 681h81l-428 -681h-78zM598 71q104 64 147 101q75 67 75 130q0 26 -17.5 41t-47.5 15 q-23 0 -41.5 -9.5t-18.5 -20.5q0 -4 8 -17.5t8 -25.5q0 -20 -16 -34.5t-39 -14.5q-25 0 -41.5 17t-16.5 42q0 52 49 86.5t124 34.5q79 0 127.5 -34.5t48.5 -90.5q0 -50 -48.5 -97.5t-158.5 -104.5h74q57 0 72.5 8.5t36.5 50.5l57 -14l-40 -134h-331z" />
<glyph unicode="&#xbe;" horiz-adv-x="990" d="M15 366q0 25 16.5 41.5t39.5 16.5q24 0 40.5 -14t16.5 -34q0 -6 -6 -24q0 -10 20.5 -17.5t46.5 -7.5q40 0 62.5 18t22.5 50q0 36 -25 52.5t-78 16.5q-13 0 -26 -1v60h19q84 0 84 58q0 21 -16 33.5t-42 12.5q-18 0 -36 -8t-18 -16q0 -2 5.5 -13.5t5.5 -19.5 q0 -19 -17 -32.5t-41 -13.5q-25 0 -40.5 15.5t-15.5 40.5q0 47 49 78t123 31t122 -31.5t48 -80.5q0 -25 -17 -47.5t-45 -33.5q42 -12 65 -37.5t23 -59.5q0 -59 -58.5 -96.5t-150.5 -37.5q-76 0 -126.5 28.5t-50.5 72.5zM272 0l425 681h81l-428 -681h-78zM567 146 q129 148 205 262h99v-244h96l-30 -64h-66v-18q0 -25 38 -26l20 -1v-55h-215v55l18 1q36 2 36 26v18h-177zM664 164h104v137q-18 -28 -104 -137z" />
<glyph unicode="&#xbf;" horiz-adv-x="660" d="M52 -3q0 126 134 184q53 23 67.5 40.5t14.5 55.5v8h100q2 -12 2 -33q0 -55 -15.5 -83t-71.5 -72q-49 -39 -49 -97q0 -48 29.5 -76.5t78.5 -28.5q40 0 71 16t31 37q0 6 -7.5 25.5t-7.5 36.5q0 33 23.5 54.5t59.5 21.5q41 0 64 -25t23 -68q0 -79 -78.5 -132t-194.5 -53 q-129 0 -201.5 50t-72.5 139zM221 422q0 38 27.5 65.5t65.5 27.5t65 -27.5t27 -67.5q0 -37 -27 -63.5t-65 -26.5q-39 0 -66 27t-27 65z" />
<glyph unicode="&#xc0;" horiz-adv-x="720" d="M-34 0v82l16 2q42 5 65 29t52 93l198 475h155l196 -488q31 -65 46.5 -83.5t52.5 -25.5l16 -2v-82h-365v82l25 2q32 2 45 9.5t13 22.5q-1 15 -10 41l-30 85h-215l-32 -86q-9 -23 -9 -30q0 -20 17 -28.5t57 -13.5l16 -2v-82h-309zM192 825q0 27 23 46.5t54 19.5 q42 0 92 -37l116 -84l-22 -44l-175 30q-88 15 -88 69zM258 327h150l-74 195z" />
<glyph unicode="&#xc1;" horiz-adv-x="720" d="M-34 0v82l16 2q42 5 65 29t52 93l198 475h155l196 -488q31 -65 46.5 -83.5t52.5 -25.5l16 -2v-82h-365v82l25 2q32 2 45 9.5t13 22.5q-1 15 -10 41l-30 85h-215l-32 -86q-9 -23 -9 -30q0 -20 17 -28.5t57 -13.5l16 -2v-82h-309zM258 327h150l-74 195zM273 770l116 84 q50 37 92 37q31 0 54 -19.5t23 -46.5q0 -54 -88 -69l-175 -30z" />
<glyph unicode="&#xc2;" horiz-adv-x="720" d="M-34 0v82l16 2q42 5 65 29t52 93l198 475h155l196 -488q31 -65 46.5 -83.5t52.5 -25.5l16 -2v-82h-365v82l25 2q32 2 45 9.5t13 22.5q-1 15 -10 41l-30 85h-215l-32 -86q-9 -23 -9 -30q0 -20 17 -28.5t57 -13.5l16 -2v-82h-309zM176 791l200 98l198 -98l-42 -61l-158 49 l-156 -49zM258 327h150l-74 195z" />
<glyph unicode="&#xc3;" horiz-adv-x="720" d="M-34 0v82l16 2q42 5 65 29t52 93l198 475h155l196 -488q31 -65 46.5 -83.5t52.5 -25.5l16 -2v-82h-365v82l25 2q32 2 45 9.5t13 22.5q-1 15 -10 41l-30 85h-215l-32 -86q-9 -23 -9 -30q0 -20 17 -28.5t57 -13.5l16 -2v-82h-309zM204 779q16 45 50 71.5t76 26.5 q29 0 73 -14.5t62 -14.5q27 0 41 24l50 -25q-16 -55 -45 -80t-78 -25q-32 0 -76.5 15t-62.5 15q-21 0 -38 -24zM258 327h150l-74 195z" />
<glyph unicode="&#xc4;" horiz-adv-x="720" d="M-34 0v82l16 2q42 5 65 29t52 93l198 475h155l196 -488q31 -65 46.5 -83.5t52.5 -25.5l16 -2v-82h-365v82l25 2q32 2 45 9.5t13 22.5q-1 15 -10 41l-30 85h-215l-32 -86q-9 -23 -9 -30q0 -20 17 -28.5t57 -13.5l16 -2v-82h-309zM193 810q0 30 19.5 49.5t49.5 19.5 q28 0 49 -21.5t21 -50.5q0 -27 -20.5 -47t-48.5 -20q-29 0 -49.5 20.5t-20.5 49.5zM258 327h150l-74 195zM427 810q0 30 19.5 49.5t49.5 19.5q28 0 49 -21.5t21 -50.5q0 -27 -20.5 -47t-48.5 -20q-29 0 -49.5 20.5t-20.5 49.5z" />
<glyph unicode="&#xc5;" horiz-adv-x="720" d="M-34 0v82l16 2q42 5 65 29t52 93l198 475h155l196 -488q31 -65 46.5 -83.5t52.5 -25.5l16 -2v-82h-365v82l25 2q32 2 45 9.5t13 22.5q-1 15 -10 41l-30 85h-215l-32 -86q-9 -23 -9 -30q0 -20 17 -28.5t57 -13.5l16 -2v-82h-309zM258 327h150l-74 195zM273 822 q0 42 30.5 72t72.5 30q44 0 74 -30t30 -74q0 -41 -30.5 -70.5t-72.5 -29.5q-43 0 -73.5 30t-30.5 72zM341 823q0 -16 10.5 -27t24.5 -11q15 0 25.5 11t10.5 26t-10.5 26t-25.5 11q-14 0 -24.5 -10.5t-10.5 -25.5z" />
<glyph unicode="&#xc6;" horiz-adv-x="1140" d="M-34 0v82l15 3q55 14 88 36t76 72l377 488h498l99 -193l-70 -36q-61 83 -121 114t-159 31q-44 0 -58 -15t-14 -62v-107h31q57 0 77.5 25t22.5 95h79v-340h-79q-2 68 -23.5 94.5t-75.5 26.5q-16 0 -32 -1v-152q0 -41 16.5 -54t69.5 -13q91 0 156.5 40t139.5 140l70 -26 l-110 -248h-596v82l20 2q42 5 55 20.5t13 63.5v80h-219l-74 -98q-14 -18 -14 -34q0 -34 73 -34h15v-82h-346zM373 333h158v200z" />
<glyph unicode="&#xc7;" horiz-adv-x="740" d="M35 341q0 47 10.5 94t36 94t63.5 83.5t98 59t134 22.5q92 0 167 -36l8 23h69l84 -236l-77 -29q-54 94 -83 125q-69 71 -142 71q-81 0 -128.5 -73t-47.5 -197q0 -73 18.5 -127.5t49 -82t61.5 -40.5t63 -13q131 0 221 158l84 -38q-33 -88 -113 -145t-182 -65v-33h36 q34 0 57 -21.5t23 -53.5q0 -42 -43 -74.5t-95 -32.5q-43 0 -71 17t-28 43q0 16 9.5 25t24.5 9q14 0 31 -12q21 -17 37 -17q13 0 22 12t9 33q0 41 -61 41q-20 0 -33 -2l7 66q-141 13 -230 110.5t-89 241.5z" />
<glyph unicode="&#xc8;" horiz-adv-x="720" d="M20 0v82l20 2q42 5 55 20.5t13 63.5v345q0 48 -13 63.5t-55 20.5l-20 2v82h577l99 -206l-68 -34q-104 150 -239 150q-32 0 -52 -3.5t-31 -8.5t-16 -19t-6 -25t-1 -37v-85h29q32 0 47 2t29.5 12.5t19.5 32.5t6 62h78v-311h-78q-9 70 -31.5 90t-71.5 20h-28v-118 q0 -79 11.5 -96t71.5 -17q86 0 154.5 42.5t133.5 136.5l70 -33l-110 -236h-594zM134 825q0 27 23 46.5t54 19.5q42 0 92 -37l116 -84l-22 -44l-175 30q-88 15 -88 69z" />
<glyph unicode="&#xc9;" horiz-adv-x="720" d="M20 0v82l20 2q42 5 55 20.5t13 63.5v345q0 48 -13 63.5t-55 20.5l-20 2v82h577l99 -206l-68 -34q-104 150 -239 150q-32 0 -52 -3.5t-31 -8.5t-16 -19t-6 -25t-1 -37v-85h29q32 0 47 2t29.5 12.5t19.5 32.5t6 62h78v-311h-78q-9 70 -31.5 90t-71.5 20h-28v-118 q0 -79 11.5 -96t71.5 -17q86 0 154.5 42.5t133.5 136.5l70 -33l-110 -236h-594zM215 770l116 84q50 37 92 37q31 0 54 -19.5t23 -46.5q0 -54 -88 -69l-175 -30z" />
<glyph unicode="&#xca;" horiz-adv-x="720" d="M20 0v82l20 2q42 5 55 20.5t13 63.5v345q0 48 -13 63.5t-55 20.5l-20 2v82h577l99 -206l-68 -34q-104 150 -239 150q-32 0 -52 -3.5t-31 -8.5t-16 -19t-6 -25t-1 -37v-85h29q32 0 47 2t29.5 12.5t19.5 32.5t6 62h78v-311h-78q-9 70 -31.5 90t-71.5 20h-28v-118 q0 -79 11.5 -96t71.5 -17q86 0 154.5 42.5t133.5 136.5l70 -33l-110 -236h-594zM118 791l200 98l198 -98l-42 -61l-158 49l-156 -49z" />
<glyph unicode="&#xcb;" horiz-adv-x="720" d="M20 0v82l20 2q42 5 55 20.5t13 63.5v345q0 48 -13 63.5t-55 20.5l-20 2v82h577l99 -206l-68 -34q-104 150 -239 150q-32 0 -52 -3.5t-31 -8.5t-16 -19t-6 -25t-1 -37v-85h29q32 0 47 2t29.5 12.5t19.5 32.5t6 62h78v-311h-78q-9 70 -31.5 90t-71.5 20h-28v-118 q0 -79 11.5 -96t71.5 -17q86 0 154.5 42.5t133.5 136.5l70 -33l-110 -236h-594zM135 810q0 30 19.5 49.5t49.5 19.5q28 0 49 -21.5t21 -50.5q0 -27 -20.5 -47t-48.5 -20q-29 0 -49.5 20.5t-20.5 49.5zM369 810q0 30 19.5 49.5t49.5 19.5q28 0 49 -21.5t21 -50.5 q0 -27 -20.5 -47t-48.5 -20q-29 0 -49.5 20.5t-20.5 49.5z" />
<glyph unicode="&#xcc;" horiz-adv-x="400" d="M17 825q0 27 22.5 46.5t54.5 19.5q42 0 92 -37l116 -84l-22 -44l-175 30q-88 15 -88 69zM20 0v82l24 2q45 4 56.5 22.5t11.5 61.5v345q0 45 -11.5 63t-56.5 21l-24 2v82h359v-82l-24 -2q-45 -4 -56.5 -22.5t-11.5 -61.5v-345q0 -45 11.5 -63t56.5 -21l24 -2v-82h-359z " />
<glyph unicode="&#xcd;" horiz-adv-x="400" d="M20 0v82l24 2q45 4 56.5 22.5t11.5 61.5v345q0 45 -11.5 63t-56.5 21l-24 2v82h359v-82l-24 -2q-45 -4 -56.5 -22.5t-11.5 -61.5v-345q0 -45 11.5 -63t56.5 -21l24 -2v-82h-359zM98 770l116 84q50 37 92 37q32 0 54.5 -19.5t22.5 -46.5q0 -54 -88 -69l-175 -30z" />
<glyph unicode="&#xce;" horiz-adv-x="400" d="M1 791l200 98l198 -98l-42 -61l-158 49l-156 -49zM20 0v82l24 2q45 4 56.5 22.5t11.5 61.5v345q0 45 -11.5 63t-56.5 21l-24 2v82h359v-82l-24 -2q-45 -4 -56.5 -22.5t-11.5 -61.5v-345q0 -45 11.5 -63t56.5 -21l24 -2v-82h-359z" />
<glyph unicode="&#xcf;" horiz-adv-x="400" d="M18 810q0 30 19.5 49.5t49.5 19.5q28 0 49 -21.5t21 -50.5q0 -27 -20.5 -47t-48.5 -20q-29 0 -49.5 20.5t-20.5 49.5zM20 0v82l24 2q45 4 56.5 22.5t11.5 61.5v345q0 45 -11.5 63t-56.5 21l-24 2v82h359v-82l-24 -2q-45 -4 -56.5 -22.5t-11.5 -61.5v-345q0 -45 11.5 -63 t56.5 -21l24 -2v-82h-359zM252 810q0 30 19.5 49.5t49.5 19.5q28 0 49 -21.5t21 -50.5q0 -27 -20.5 -47t-48.5 -20q-29 0 -49.5 20.5t-20.5 49.5z" />
<glyph unicode="&#xd0;" horiz-adv-x="780" d="M20 0v82l20 2q42 5 55 20.5t13 63.5v153h-88v87h88v103q0 49 -13 65t-55 20l-20 2v83h318q70 0 126 -8t111 -30.5t91.5 -59.5t59 -99.5t22.5 -146.5q0 -337 -387 -337h-341zM283 162q0 -44 10 -58t57 -14q94 0 150 69t56 185q0 114 -54 180t-148 66q-42 0 -56.5 -11 t-14.5 -42v-129h153v-87h-153v-159z" />
<glyph unicode="&#xd1;" horiz-adv-x="740" d="M20 0v82l20 2q42 5 55 20.5t13 63.5v345q0 48 -13 63.5t-55 20.5l-20 2v82h295l228 -393v225q0 48 -13 63.5t-55 20.5l-20 2v82h269v-82l-20 -2q-42 -5 -55 -20.5t-13 -63.5v-513h-124l-311 526v-358q0 -48 13 -63.5t55 -20.5l20 -2v-82h-269zM201 779q16 45 50 71.5 t76 26.5q29 0 73 -14.5t62 -14.5q27 0 41 24l50 -25q-16 -55 -45 -80t-78 -25q-32 0 -76.5 15t-62.5 15q-21 0 -38 -24z" />
<glyph unicode="&#xd2;" horiz-adv-x="800" d="M35 334q0 156 105 258t265 102q157 0 260.5 -96t103.5 -252q0 -153 -108 -256t-269 -103q-150 0 -253.5 95t-103.5 252zM222 825q0 27 23 46.5t54 19.5q42 0 92 -37l116 -84l-22 -44l-175 30q-88 15 -88 69zM227 338q0 -41 8 -81t26 -79.5t54 -64t85 -24.5q79 0 128 70.5 t49 184.5q0 117 -45.5 182.5t-125.5 65.5t-129.5 -70.5t-49.5 -183.5z" />
<glyph unicode="&#xd3;" horiz-adv-x="800" d="M35 334q0 156 105 258t265 102q157 0 260.5 -96t103.5 -252q0 -153 -108 -256t-269 -103q-150 0 -253.5 95t-103.5 252zM227 338q0 -41 8 -81t26 -79.5t54 -64t85 -24.5q79 0 128 70.5t49 184.5q0 117 -45.5 182.5t-125.5 65.5t-129.5 -70.5t-49.5 -183.5zM303 770 l116 84q50 37 92 37q31 0 54 -19.5t23 -46.5q0 -54 -88 -69l-175 -30z" />
<glyph unicode="&#xd4;" horiz-adv-x="800" d="M35 334q0 156 105 258t265 102q157 0 260.5 -96t103.5 -252q0 -153 -108 -256t-269 -103q-150 0 -253.5 95t-103.5 252zM206 791l200 98l198 -98l-42 -61l-158 49l-156 -49zM227 338q0 -41 8 -81t26 -79.5t54 -64t85 -24.5q79 0 128 70.5t49 184.5q0 117 -45.5 182.5 t-125.5 65.5t-129.5 -70.5t-49.5 -183.5z" />
<glyph unicode="&#xd5;" horiz-adv-x="800" d="M35 334q0 156 105 258t265 102q157 0 260.5 -96t103.5 -252q0 -153 -108 -256t-269 -103q-150 0 -253.5 95t-103.5 252zM227 338q0 -41 8 -81t26 -79.5t54 -64t85 -24.5q79 0 128 70.5t49 184.5q0 117 -45.5 182.5t-125.5 65.5t-129.5 -70.5t-49.5 -183.5zM234 779 q16 45 50 71.5t76 26.5q29 0 73 -14.5t62 -14.5q27 0 41 24l50 -25q-16 -55 -45 -80t-78 -25q-32 0 -76.5 15t-62.5 15q-21 0 -38 -24z" />
<glyph unicode="&#xd6;" horiz-adv-x="800" d="M35 334q0 156 105 258t265 102q157 0 260.5 -96t103.5 -252q0 -153 -108 -256t-269 -103q-150 0 -253.5 95t-103.5 252zM223 810q0 30 19.5 49.5t49.5 19.5q28 0 49 -21.5t21 -50.5q0 -27 -20.5 -47t-48.5 -20q-29 0 -49.5 20.5t-20.5 49.5zM227 338q0 -41 8 -81 t26 -79.5t54 -64t85 -24.5q79 0 128 70.5t49 184.5q0 117 -45.5 182.5t-125.5 65.5t-129.5 -70.5t-49.5 -183.5zM457 810q0 30 19.5 49.5t49.5 19.5q28 0 49 -21.5t21 -50.5q0 -27 -20.5 -47t-48.5 -20q-29 0 -49.5 20.5t-20.5 49.5z" />
<glyph unicode="&#xd7;" horiz-adv-x="600" d="M75 107l143 143l-143 143l82 82l143 -143l143 143l82 -82l-143 -143l143 -143l-82 -82l-143 143l-143 -143z" />
<glyph unicode="&#xd8;" horiz-adv-x="800" d="M35 341q0 151 102.5 252t257.5 101q68 0 126 -16l52 101h84l-66 -125q26 -16 46 -31t47 -42.5t44.5 -58.5t30 -76.5t12.5 -98.5q0 -155 -101 -257.5t-254 -102.5q-85 0 -148 20l-56 -117h-87l73 146q-74 40 -118.5 123t-44.5 182zM217 337q0 -108 48 -178l207 421 q-34 17 -66 17q-63 0 -107.5 -40t-63 -97t-18.5 -123zM320 105q38 -21 84 -21q85 0 135 71t50 192q0 122 -56 189z" />
<glyph unicode="&#xd9;" horiz-adv-x="740" d="M15 599v82h351v-82l-20 -2q-42 -5 -55 -20.5t-13 -63.5v-264q0 -75 27.5 -116t98.5 -41q46 0 75.5 15t41 42.5t14.5 47.5t3 49v267q0 48 -13 63.5t-55 20.5l-20 2v82h274v-82l-20 -2q-42 -5 -55 -20.5t-13 -63.5v-262q0 -45 -4.5 -78.5t-20.5 -70.5t-43.5 -60.5 t-77.5 -39t-119 -15.5q-55 0 -99 10.5t-71.5 25.5t-47.5 39t-29 43.5t-14.5 47.5t-6 41.5t-0.5 35.5v283q0 48 -13 63.5t-55 20.5zM206 825q0 27 23 46.5t54 19.5q42 0 92 -37l116 -84l-22 -44l-175 30q-88 15 -88 69z" />
<glyph unicode="&#xda;" horiz-adv-x="740" d="M15 599v82h351v-82l-20 -2q-42 -5 -55 -20.5t-13 -63.5v-264q0 -75 27.5 -116t98.5 -41q46 0 75.5 15t41 42.5t14.5 47.5t3 49v267q0 48 -13 63.5t-55 20.5l-20 2v82h274v-82l-20 -2q-42 -5 -55 -20.5t-13 -63.5v-262q0 -45 -4.5 -78.5t-20.5 -70.5t-43.5 -60.5 t-77.5 -39t-119 -15.5q-55 0 -99 10.5t-71.5 25.5t-47.5 39t-29 43.5t-14.5 47.5t-6 41.5t-0.5 35.5v283q0 48 -13 63.5t-55 20.5zM287 770l116 84q50 37 92 37q31 0 54 -19.5t23 -46.5q0 -54 -88 -69l-175 -30z" />
<glyph unicode="&#xdb;" horiz-adv-x="740" d="M15 599v82h351v-82l-20 -2q-42 -5 -55 -20.5t-13 -63.5v-264q0 -75 27.5 -116t98.5 -41q46 0 75.5 15t41 42.5t14.5 47.5t3 49v267q0 48 -13 63.5t-55 20.5l-20 2v82h274v-82l-20 -2q-42 -5 -55 -20.5t-13 -63.5v-262q0 -45 -4.5 -78.5t-20.5 -70.5t-43.5 -60.5 t-77.5 -39t-119 -15.5q-55 0 -99 10.5t-71.5 25.5t-47.5 39t-29 43.5t-14.5 47.5t-6 41.5t-0.5 35.5v283q0 48 -13 63.5t-55 20.5zM190 791l200 98l198 -98l-42 -61l-158 49l-156 -49z" />
<glyph unicode="&#xdc;" horiz-adv-x="740" d="M15 599v82h351v-82l-20 -2q-42 -5 -55 -20.5t-13 -63.5v-264q0 -75 27.5 -116t98.5 -41q46 0 75.5 15t41 42.5t14.5 47.5t3 49v267q0 48 -13 63.5t-55 20.5l-20 2v82h274v-82l-20 -2q-42 -5 -55 -20.5t-13 -63.5v-262q0 -45 -4.5 -78.5t-20.5 -70.5t-43.5 -60.5 t-77.5 -39t-119 -15.5q-55 0 -99 10.5t-71.5 25.5t-47.5 39t-29 43.5t-14.5 47.5t-6 41.5t-0.5 35.5v283q0 48 -13 63.5t-55 20.5zM207 810q0 30 19.5 49.5t49.5 19.5q28 0 49 -21.5t21 -50.5q0 -27 -20.5 -47t-48.5 -20q-29 0 -49.5 20.5t-20.5 49.5zM441 810 q0 30 19.5 49.5t49.5 19.5q28 0 49 -21.5t21 -50.5q0 -27 -20.5 -47t-48.5 -20q-29 0 -49.5 20.5t-20.5 49.5z" />
<glyph unicode="&#xdd;" horiz-adv-x="700" d="M-20 599v82h380v-82q-78 -1 -78 -22q0 -10 16 -38l82 -149l78 129q28 46 28 58q0 21 -74 22v82h306v-82q-52 -3 -86 -26.5t-73 -84.5l-129 -200v-120q0 -44 11.5 -62.5t56.5 -21.5l28 -2v-82h-367v82l28 2q45 3 56.5 22t11.5 62v108l-140 219q-36 57 -63 78.5t-72 25.5z M241 770l116 84q50 37 92 37q31 0 54 -19.5t23 -46.5q0 -54 -88 -69l-175 -30z" />
<glyph unicode="&#xde;" horiz-adv-x="660" d="M20 0v82l20 2q42 5 55 20.5t13 63.5v346q0 48 -13 63.5t-55 20.5l-20 2v81h356v-81l-24 -2q-37 -4 -51 -16t-14 -40h92q64 0 111 -8.5t87 -30t60.5 -61.5t20.5 -99q0 -196 -280 -196h-94q0 -32 13.5 -45t53.5 -18l20 -2v-82h-351zM283 236h39q144 0 144 107 q0 106 -144 106h-39v-213z" />
<glyph unicode="&#xdf;" horiz-adv-x="660" d="M-61 -78l18 67q24 -3 39 -3q33 0 54.5 13t30.5 38t11.5 45.5t2.5 51.5v280h-75v88h75q35 186 268 186q86 0 143 -36.5t57 -91.5q0 -50 -54 -91q-35 -27 -35 -46q0 -15 29 -26q141 -55 141 -180q0 -89 -78 -157.5t-179 -68.5q-44 0 -102 8l20 76q53 3 83 16q36 16 57 46 t21 63q0 17 -6 33t-12.5 26.5t-22 24.5t-23.5 20.5t-29 20.5t-28 19q-41 28 -41 66q0 20 13.5 36.5t53.5 42.5q54 37 54 73q0 23 -17 38.5t-42 15.5q-109 0 -109 -174v-259q0 -79 -19.5 -135t-54 -85.5t-73 -42t-84.5 -12.5q-31 0 -87 14z" />
<glyph unicode="&#xe0;" d="M28 128q0 114 150 159q65 20 146 27v51q0 54 -63 54q-24 0 -44 -10t-20 -34q0 -33 -14 -50q-22 -27 -63 -27q-31 0 -52.5 21.5t-21.5 53.5q0 60 62.5 99t159.5 39q218 0 218 -165v-197q0 -56 21 -56q8 0 25 17l56 -68q-64 -51 -127 -51q-34 0 -65.5 14t-49.5 37 q-75 -51 -159 -51q-71 0 -115 38t-44 99zM121 689q0 30 20.5 51.5t49.5 21.5q37 0 84 -41l105 -94l-20 -49l-159 34q-80 17 -80 77zM198 149q0 -22 13 -36t34 -14q41 0 79 35v100q-126 -23 -126 -85z" />
<glyph unicode="&#xe1;" d="M28 128q0 114 150 159q65 20 146 27v51q0 54 -63 54q-24 0 -44 -10t-20 -34q0 -33 -14 -50q-22 -27 -63 -27q-31 0 -52.5 21.5t-21.5 53.5q0 60 62.5 99t159.5 39q218 0 218 -165v-197q0 -56 21 -56q8 0 25 17l56 -68q-64 -51 -127 -51q-34 0 -65.5 14t-49.5 37 q-75 -51 -159 -51q-71 0 -115 38t-44 99zM156 627l105 94q47 41 84 41q29 0 49.5 -21.5t20.5 -51.5q0 -60 -80 -77l-159 -34zM198 149q0 -22 13 -36t34 -14q41 0 79 35v100q-126 -23 -126 -85z" />
<glyph unicode="&#xe2;" d="M28 128q0 114 150 159q65 20 146 27v51q0 54 -63 54q-24 0 -44 -10t-20 -34q0 -33 -14 -50q-22 -27 -63 -27q-31 0 -52.5 21.5t-21.5 53.5q0 60 62.5 99t159.5 39q218 0 218 -165v-197q0 -56 21 -56q8 0 25 17l56 -68q-64 -51 -127 -51q-34 0 -65.5 14t-49.5 37 q-75 -51 -159 -51q-71 0 -115 38t-44 99zM87 649l182 109l180 -109l-38 -67l-142 54l-144 -54zM198 149q0 -22 13 -36t34 -14q41 0 79 35v100q-126 -23 -126 -85z" />
<glyph unicode="&#xe3;" d="M28 128q0 114 150 159q65 20 146 27v51q0 54 -63 54q-24 0 -44 -10t-20 -34q0 -33 -14 -50q-22 -27 -63 -27q-31 0 -52.5 21.5t-21.5 53.5q0 60 62.5 99t159.5 39q218 0 218 -165v-197q0 -56 21 -56q8 0 25 17l56 -68q-64 -51 -127 -51q-34 0 -65.5 14t-49.5 37 q-75 -51 -159 -51q-71 0 -115 38t-44 99zM97 640q16 45 50 71.5t76 26.5q29 0 73 -14.5t62 -14.5q27 0 41 24l50 -25q-16 -55 -45 -80t-78 -25q-32 0 -76.5 15t-62.5 15q-21 0 -38 -24zM198 149q0 -22 13 -36t34 -14q41 0 79 35v100q-126 -23 -126 -85z" />
<glyph unicode="&#xe4;" d="M28 128q0 114 150 159q65 20 146 27v51q0 54 -63 54q-24 0 -44 -10t-20 -34q0 -33 -14 -50q-22 -27 -63 -27q-31 0 -52.5 21.5t-21.5 53.5q0 60 62.5 99t159.5 39q218 0 218 -165v-197q0 -56 21 -56q8 0 25 17l56 -68q-64 -51 -127 -51q-34 0 -65.5 14t-49.5 37 q-75 -51 -159 -51q-71 0 -115 38t-44 99zM86 671q0 30 19.5 49.5t49.5 19.5q28 0 49 -21.5t21 -50.5q0 -27 -20.5 -47t-48.5 -20q-29 0 -49.5 20.5t-20.5 49.5zM198 149q0 -22 13 -36t34 -14q41 0 79 35v100q-126 -23 -126 -85zM320 671q0 30 19.5 49.5t49.5 19.5 q28 0 49 -21.5t21 -50.5q0 -27 -20.5 -47t-48.5 -20q-29 0 -49.5 20.5t-20.5 49.5z" />
<glyph unicode="&#xe5;" d="M28 128q0 114 150 159q65 20 146 27v51q0 54 -63 54q-24 0 -44 -10t-20 -34q0 -33 -14 -50q-22 -27 -63 -27q-31 0 -52.5 21.5t-21.5 53.5q0 60 62.5 99t159.5 39q218 0 218 -165v-197q0 -56 21 -56q8 0 25 17l56 -68q-64 -51 -127 -51q-34 0 -65.5 14t-49.5 37 q-75 -51 -159 -51q-71 0 -115 38t-44 99zM166 670q0 42 30.5 72t72.5 30q43 0 73.5 -30t30.5 -74q0 -41 -30.5 -70.5t-72.5 -29.5q-43 0 -73.5 30t-30.5 72zM198 149q0 -22 13 -36t34 -14q41 0 79 35v100q-126 -23 -126 -85zM234 671q0 -16 10.5 -27t24.5 -11q15 0 25.5 11 t10.5 26t-10.5 26t-25.5 11q-14 0 -24.5 -10.5t-10.5 -25.5z" />
<glyph unicode="&#xe6;" horiz-adv-x="880" d="M28 133q0 82 84.5 127.5t243.5 49.5q0 30 -1.5 46.5t-8.5 34t-23 25t-42 7.5q-38 0 -56 -18q-11 -11 -22 -51q-7 -25 -27 -39.5t-47 -14.5q-33 0 -53 19.5t-20 51.5q0 62 63.5 101t163.5 39t166 -44q73 44 155 44q107 0 174 -62t67 -161q0 -16 -2 -51h-332 q10 -138 125 -138q77 0 134 86l82 -42q-32 -72 -97.5 -112t-150.5 -40q-111 0 -200 82q-73 -82 -195 -82q-82 0 -131.5 38.5t-49.5 103.5zM198 139q0 -23 16 -36.5t43 -13.5q43 0 70.5 38t27.5 97h-7q-61 0 -105.5 -24.5t-44.5 -60.5zM516 314h159v16q0 41 -19.5 67 t-53.5 26q-74 0 -86 -109z" />
<glyph unicode="&#xe7;" d="M31 251q0 118 75 189t199 71q93 0 157.5 -42.5t64.5 -104.5q0 -35 -24 -58.5t-59 -23.5q-32 0 -57.5 21t-25.5 47v29q0 16 -17 28t-39 12q-46 0 -71 -41.5t-25 -117.5q0 -78 32.5 -125t86.5 -47q87 0 141 98l81 -42q-29 -68 -89 -108t-142 -44v-36h36q34 0 57 -21.5 t23 -53.5q0 -42 -43 -74.5t-95 -32.5q-43 0 -71 17t-28 43q0 16 9.5 25t24.5 9q14 0 31 -12q21 -17 37 -17q13 0 22 12t9 33q0 41 -61 41q-20 0 -33 -2l8 72q-97 16 -155.5 85t-58.5 171z" />
<glyph unicode="&#xe8;" d="M31 253q0 113 74 185.5t189 72.5q72 0 129.5 -29.5t86.5 -81.5q26 -47 26 -146h-324q0 -75 31 -115t90 -40q74 0 131 85l84 -41q-20 -32 -35.5 -52t-45 -46.5t-71 -40t-93.5 -13.5q-118 0 -195 74t-77 188zM147 689q0 30 20.5 51.5t49.5 21.5q37 0 84 -41l105 -94 l-20 -49l-159 34q-80 17 -80 77zM218 331h141q-1 47 -16.5 67.5t-49.5 20.5t-53.5 -23t-21.5 -65z" />
<glyph unicode="&#xe9;" d="M31 253q0 113 74 185.5t189 72.5q72 0 129.5 -29.5t86.5 -81.5q26 -47 26 -146h-324q0 -75 31 -115t90 -40q74 0 131 85l84 -41q-20 -32 -35.5 -52t-45 -46.5t-71 -40t-93.5 -13.5q-118 0 -195 74t-77 188zM182 627l105 94q47 41 84 41q29 0 49.5 -21.5t20.5 -51.5 q0 -60 -80 -77l-159 -34zM218 331h141q-1 47 -16.5 67.5t-49.5 20.5t-53.5 -23t-21.5 -65z" />
<glyph unicode="&#xea;" d="M31 253q0 113 74 185.5t189 72.5q72 0 129.5 -29.5t86.5 -81.5q26 -47 26 -146h-324q0 -75 31 -115t90 -40q74 0 131 85l84 -41q-20 -32 -35.5 -52t-45 -46.5t-71 -40t-93.5 -13.5q-118 0 -195 74t-77 188zM113 649l182 109l180 -109l-38 -67l-142 54l-144 -54zM218 331 h141q-1 47 -16.5 67.5t-49.5 20.5t-53.5 -23t-21.5 -65z" />
<glyph unicode="&#xeb;" d="M31 253q0 113 74 185.5t189 72.5q72 0 129.5 -29.5t86.5 -81.5q26 -47 26 -146h-324q0 -75 31 -115t90 -40q74 0 131 85l84 -41q-20 -32 -35.5 -52t-45 -46.5t-71 -40t-93.5 -13.5q-118 0 -195 74t-77 188zM112 671q0 30 19.5 49.5t49.5 19.5q28 0 49 -21.5t21 -50.5 q0 -27 -20.5 -47t-48.5 -20q-29 0 -49.5 20.5t-20.5 49.5zM218 331h141q-1 47 -16.5 67.5t-49.5 20.5t-53.5 -23t-21.5 -65zM346 671q0 30 19.5 49.5t49.5 19.5q28 0 49 -21.5t21 -50.5q0 -27 -20.5 -47t-48.5 -20q-29 0 -49.5 20.5t-20.5 49.5z" />
<glyph unicode="&#xec;" horiz-adv-x="360" d="M22 0v81l32 7q28 6 36 19.5t8 56.5v144q0 46 -11.5 62.5t-43.5 19.5l-21 2v81l176 29h62v-338q0 -43 7.5 -56t36.5 -20l31 -7v-81h-313zM32 689q0 30 20.5 51.5t49.5 21.5q37 0 84 -41l105 -94l-20 -49l-159 34q-80 17 -80 77z" />
<glyph unicode="&#xed;" horiz-adv-x="360" d="M22 0v81l32 7q28 6 36 19.5t8 56.5v144q0 46 -11.5 62.5t-43.5 19.5l-21 2v81l176 29h62v-338q0 -43 7.5 -56t36.5 -20l31 -7v-81h-313zM67 627l105 94q47 41 84 41q29 0 49.5 -21.5t20.5 -51.5q0 -60 -80 -77l-159 -34z" />
<glyph unicode="&#xee;" horiz-adv-x="360" d="M-2 649l182 109l180 -109l-38 -67l-142 54l-144 -54zM22 0v81l32 7q28 6 36 19.5t8 56.5v144q0 46 -11.5 62.5t-43.5 19.5l-21 2v81l176 29h62v-338q0 -43 7.5 -56t36.5 -20l31 -7v-81h-313z" />
<glyph unicode="&#xef;" horiz-adv-x="360" d="M-3 671q0 30 19.5 49.5t49.5 19.5q28 0 49 -21.5t21 -50.5q0 -27 -20.5 -47t-48.5 -20q-29 0 -49.5 20.5t-20.5 49.5zM22 0v81l32 7q28 6 36 19.5t8 56.5v144q0 46 -11.5 62.5t-43.5 19.5l-21 2v81l176 29h62v-338q0 -43 7.5 -56t36.5 -20l31 -7v-81h-313zM231 671 q0 30 19.5 49.5t49.5 19.5q28 0 49 -21.5t21 -50.5q0 -27 -20.5 -47t-48.5 -20q-29 0 -49.5 20.5t-20.5 49.5z" />
<glyph unicode="&#xf0;" horiz-adv-x="620" d="M31 254q0 66 25 117.5t64 81t81 44t82 14.5q27 0 56 -6q-64 78 -135 109l-121 -80l-34 51l85 57q-48 14 -103 24l26 54q76 -1 151 -19l119 78l35 -55l-70 -45q105 -45 165 -102q59 -58 93.5 -143.5t34.5 -173.5q0 -127 -73.5 -198t-203.5 -71q-126 0 -201.5 71.5 t-75.5 191.5zM213 246q0 -158 96 -158q94 0 94 156q0 165 -94 165q-96 0 -96 -163z" />
<glyph unicode="&#xf1;" horiz-adv-x="680" d="M22 0v81l29 7q29 7 36.5 20t7.5 56v144q0 46 -11 62t-44 20l-18 2v81l156 29h62v-43q94 52 182 52q65 0 110.5 -36t45.5 -123v-188q0 -43 7.5 -56t36.5 -20l30 -7v-81h-298v81l18 5q29 8 36.5 21.5t7.5 56.5v175q0 64 -45 64q-49 0 -114 -44v-195q0 -43 7.5 -56.5 t36.5 -21.5l18 -5v-81h-297zM166 640q16 45 50 71.5t76 26.5q29 0 73 -14.5t62 -14.5q27 0 41 24l50 -25q-16 -55 -45 -80t-78 -25q-32 0 -76.5 15t-62.5 15q-21 0 -38 -24z" />
<glyph unicode="&#xf2;" horiz-adv-x="620" d="M31 258q0 113 75 183t197 70q129 0 205.5 -71t76.5 -192q0 -117 -75.5 -187t-201.5 -70q-128 0 -202.5 72t-74.5 195zM156 689q0 30 20.5 51.5t49.5 21.5q37 0 84 -41l105 -94l-20 -49l-159 34q-80 17 -80 77zM213 246q0 -158 96 -158q94 0 94 156q0 165 -94 165 q-96 0 -96 -163z" />
<glyph unicode="&#xf3;" horiz-adv-x="620" d="M31 258q0 113 75 183t197 70q129 0 205.5 -71t76.5 -192q0 -117 -75.5 -187t-201.5 -70q-128 0 -202.5 72t-74.5 195zM191 627l105 94q47 41 84 41q29 0 49.5 -21.5t20.5 -51.5q0 -60 -80 -77l-159 -34zM213 246q0 -158 96 -158q94 0 94 156q0 165 -94 165 q-96 0 -96 -163z" />
<glyph unicode="&#xf4;" horiz-adv-x="620" d="M31 258q0 113 75 183t197 70q129 0 205.5 -71t76.5 -192q0 -117 -75.5 -187t-201.5 -70q-128 0 -202.5 72t-74.5 195zM122 649l182 109l180 -109l-38 -67l-142 54l-144 -54zM213 246q0 -158 96 -158q94 0 94 156q0 165 -94 165q-96 0 -96 -163z" />
<glyph unicode="&#xf5;" horiz-adv-x="620" d="M31 258q0 113 75 183t197 70q129 0 205.5 -71t76.5 -192q0 -117 -75.5 -187t-201.5 -70q-128 0 -202.5 72t-74.5 195zM132 640q16 45 50 71.5t76 26.5q29 0 73 -14.5t62 -14.5q27 0 41 24l50 -25q-16 -55 -45 -80t-78 -25q-32 0 -76.5 15t-62.5 15q-21 0 -38 -24z M213 246q0 -158 96 -158q94 0 94 156q0 165 -94 165q-96 0 -96 -163z" />
<glyph unicode="&#xf6;" horiz-adv-x="620" d="M31 258q0 113 75 183t197 70q129 0 205.5 -71t76.5 -192q0 -117 -75.5 -187t-201.5 -70q-128 0 -202.5 72t-74.5 195zM121 671q0 30 19.5 49.5t49.5 19.5q28 0 49 -21.5t21 -50.5q0 -27 -20.5 -47t-48.5 -20q-29 0 -49.5 20.5t-20.5 49.5zM213 246q0 -158 96 -158 q94 0 94 156q0 165 -94 165q-96 0 -96 -163zM355 671q0 30 19.5 49.5t49.5 19.5q28 0 49 -21.5t21 -50.5q0 -27 -20.5 -47t-48.5 -20q-29 0 -49.5 20.5t-20.5 49.5z" />
<glyph unicode="&#xf7;" horiz-adv-x="600" d="M40 192v116h520v-116h-520zM210 80q0 37 26.5 63.5t63.5 26.5t63.5 -26.5t26.5 -63.5q0 -38 -26 -64t-64 -26t-64 26t-26 64zM210 420q0 38 26 64t64 26t64 -26t26 -64q0 -37 -26.5 -63.5t-63.5 -26.5t-63.5 26.5t-26.5 63.5z" />
<glyph unicode="&#xf8;" horiz-adv-x="620" d="M31 255q0 117 73.5 186.5t197.5 69.5q71 0 130 -22l37 57h81l-58 -88q94 -72 94 -206q0 -117 -75.5 -189t-198.5 -72q-69 0 -120 20l-32 -51h-82l52 81q-99 73 -99 214zM213 245q0 -31 8 -78l145 225q-29 22 -57 22q-96 0 -96 -169zM259 105q23 -12 47 -12q98 0 98 154 q0 36 -5 76z" />
<glyph unicode="&#xf9;" horiz-adv-x="660" d="M22 392v81l173 29h62v-330q0 -43 10 -57.5t40 -14.5q45 0 109 38v170q0 46 -11 62t-44 20l-18 2v81l173 29h62v-338q0 -43 7.5 -56t36.5 -20l31 -7v-81h-220v39q-50 -29 -88 -40.5t-87 -11.5q-46 0 -79 14t-49 32t-24.5 47.5t-9.5 46t-1 42.5v139q0 46 -11 62t-44 20z M190 689q0 30 20.5 51.5t49.5 21.5q37 0 84 -41l105 -94l-20 -49l-159 34q-80 17 -80 77z" />
<glyph unicode="&#xfa;" horiz-adv-x="660" d="M22 392v81l173 29h62v-330q0 -43 10 -57.5t40 -14.5q45 0 109 38v170q0 46 -11 62t-44 20l-18 2v81l173 29h62v-338q0 -43 7.5 -56t36.5 -20l31 -7v-81h-220v39q-50 -29 -88 -40.5t-87 -11.5q-46 0 -79 14t-49 32t-24.5 47.5t-9.5 46t-1 42.5v139q0 46 -11 62t-44 20z M225 627l105 94q47 41 84 41q29 0 49.5 -21.5t20.5 -51.5q0 -60 -80 -77l-159 -34z" />
<glyph unicode="&#xfb;" horiz-adv-x="660" d="M22 392v81l173 29h62v-330q0 -43 10 -57.5t40 -14.5q45 0 109 38v170q0 46 -11 62t-44 20l-18 2v81l173 29h62v-338q0 -43 7.5 -56t36.5 -20l31 -7v-81h-220v39q-50 -29 -88 -40.5t-87 -11.5q-46 0 -79 14t-49 32t-24.5 47.5t-9.5 46t-1 42.5v139q0 46 -11 62t-44 20z M156 649l182 109l180 -109l-38 -67l-142 54l-144 -54z" />
<glyph unicode="&#xfc;" horiz-adv-x="660" d="M22 392v81l173 29h62v-330q0 -43 10 -57.5t40 -14.5q45 0 109 38v170q0 46 -11 62t-44 20l-18 2v81l173 29h62v-338q0 -43 7.5 -56t36.5 -20l31 -7v-81h-220v39q-50 -29 -88 -40.5t-87 -11.5q-46 0 -79 14t-49 32t-24.5 47.5t-9.5 46t-1 42.5v139q0 46 -11 62t-44 20z M155 671q0 30 19.5 49.5t49.5 19.5q28 0 49 -21.5t21 -50.5q0 -27 -20.5 -47t-48.5 -20q-29 0 -49.5 20.5t-20.5 49.5zM389 671q0 30 19.5 49.5t49.5 19.5q28 0 49 -21.5t21 -50.5q0 -27 -20.5 -47t-48.5 -20q-29 0 -49.5 20.5t-20.5 49.5z" />
<glyph unicode="&#xfd;" horiz-adv-x="620" d="M6 420v82h311v-82h-11q-55 0 -55 -25q0 -4 4 -20l74 -188l71 186q4 8 4 17q0 30 -46 30h-12v82h267v-82l-12 -2q-39 -10 -58.5 -28t-41.5 -66l-172 -371q-14 -30 -23.5 -48t-28.5 -45t-38 -42.5t-49 -27t-65 -11.5q-48 0 -78 24.5t-30 63.5q0 35 22.5 58.5t56.5 23.5 t66 -29q8 -8 14 -8q9 0 30.5 29.5t37.5 63.5l-151 341q-19 42 -31 55t-40 17zM220 627l105 94q47 41 84 41q29 0 49.5 -21.5t20.5 -51.5q0 -60 -80 -77l-159 -34z" />
<glyph unicode="&#xfe;" horiz-adv-x="640" d="M22 -132l29 7q29 7 36.5 20t7.5 56v579q0 46 -11 62t-44 20l-18 2v81l158 29h76v-246q54 33 120 33q102 0 168.5 -71.5t66.5 -180.5q0 -116 -66.5 -192t-167.5 -76q-49 0 -120 28v-68q0 -43 7.5 -56t36.5 -20l29 -7v-81h-308v81zM257 124q33 -31 78 -31q52 0 80.5 44 t28.5 124q0 71 -26.5 112t-72.5 41q-50 0 -88 -40v-250z" />
<glyph unicode="&#xff;" horiz-adv-x="620" d="M6 420v82h311v-82h-11q-55 0 -55 -25q0 -4 4 -20l74 -188l71 186q4 8 4 17q0 30 -46 30h-12v82h267v-82l-12 -2q-39 -10 -58.5 -28t-41.5 -66l-172 -371q-14 -30 -23.5 -48t-28.5 -45t-38 -42.5t-49 -27t-65 -11.5q-48 0 -78 24.5t-30 63.5q0 35 22.5 58.5t56.5 23.5 t66 -29q8 -8 14 -8q9 0 30.5 29.5t37.5 63.5l-151 341q-19 42 -31 55t-40 17zM150 671q0 30 19.5 49.5t49.5 19.5q28 0 49 -21.5t21 -50.5q0 -27 -20.5 -47t-48.5 -20q-29 0 -49.5 20.5t-20.5 49.5zM384 671q0 30 19.5 49.5t49.5 19.5q28 0 49 -21.5t21 -50.5 q0 -27 -20.5 -47t-48.5 -20q-29 0 -49.5 20.5t-20.5 49.5z" />
<glyph unicode="&#x100;" horiz-adv-x="720" d="M-34 0v82l16 2q42 5 65 29t52 93l198 475h155l196 -488q31 -65 46.5 -83.5t52.5 -25.5l16 -2v-82h-365v82l25 2q32 2 45 9.5t13 22.5q-1 15 -10 41l-30 85h-215l-32 -86q-9 -23 -9 -30q0 -20 17 -28.5t57 -13.5l16 -2v-82h-309zM213 767v85h315v-85h-315zM258 327h150 l-74 195z" />
<glyph unicode="&#x101;" d="M28 128q0 114 150 159q65 20 146 27v51q0 54 -63 54q-24 0 -44 -10t-20 -34q0 -33 -14 -50q-22 -27 -63 -27q-31 0 -52.5 21.5t-21.5 53.5q0 60 62.5 99t159.5 39q218 0 218 -165v-197q0 -56 21 -56q8 0 25 17l56 -68q-64 -51 -127 -51q-34 0 -65.5 14t-49.5 37 q-75 -51 -159 -51q-71 0 -115 38t-44 99zM106 628v85h315v-85h-315zM198 149q0 -22 13 -36t34 -14q41 0 79 35v100q-126 -23 -126 -85z" />
<glyph unicode="&#x102;" horiz-adv-x="720" d="M-34 0v82l16 2q42 5 65 29t52 93l198 475h155l196 -488q31 -65 46.5 -83.5t52.5 -25.5l16 -2v-82h-365v82l25 2q32 2 45 9.5t13 22.5q-1 15 -10 41l-30 85h-215l-32 -86q-9 -23 -9 -30q0 -20 17 -28.5t57 -13.5l16 -2v-82h-309zM177 862l55 23q60 -54 145 -54 q77 0 139 54l58 -23q-23 -56 -78.5 -92.5t-118.5 -36.5q-122 0 -200 129zM258 327h150l-74 195z" />
<glyph unicode="&#x103;" d="M28 128q0 114 150 159q65 20 146 27v51q0 54 -63 54q-24 0 -44 -10t-20 -34q0 -33 -14 -50q-22 -27 -63 -27q-31 0 -52.5 21.5t-21.5 53.5q0 60 62.5 99t159.5 39q218 0 218 -165v-197q0 -56 21 -56q8 0 25 17l56 -68q-64 -51 -127 -51q-34 0 -65.5 14t-49.5 37 q-75 -51 -159 -51q-71 0 -115 38t-44 99zM86 729l50 26q55 -61 132 -61q70 0 126 61l53 -26q-21 -62 -71.5 -102.5t-107.5 -40.5q-112 0 -182 143zM198 149q0 -22 13 -36t34 -14q41 0 79 35v100q-126 -23 -126 -85z" />
<glyph unicode="&#x104;" horiz-adv-x="720" d="M-34 0v82l16 2q42 5 65 29t52 93l198 475h155l196 -488q31 -65 46.5 -83.5t52.5 -25.5l16 -2v-82h-73q-40 0 -68.5 -26.5t-28.5 -64.5q0 -25 17 -40t41 -15q33 0 74 41l38 -35q-23 -41 -63 -65.5t-87 -24.5q-64 0 -107 25.5t-43 77.5q0 72 86 127h-151v82l25 2 q32 2 45 9.5t13 22.5q-1 15 -10 41l-30 85h-215l-32 -86q-9 -23 -9 -30q0 -20 17 -28.5t57 -13.5l16 -2v-82h-309zM258 327h150l-74 195z" />
<glyph unicode="&#x105;" d="M28 128q0 114 150 159q65 20 146 27v51q0 54 -63 54q-24 0 -44 -10t-20 -34q0 -33 -14 -50q-22 -27 -63 -27q-31 0 -52.5 21.5t-21.5 53.5q0 60 62.5 99t159.5 39q218 0 218 -165v-197q0 -56 21 -56q8 0 25 17l56 -68q-50 -39 -94 -48q-33 -6 -54.5 -30t-21.5 -55 q0 -25 17 -40t41 -15q33 0 74 41l38 -35q-23 -41 -63 -65.5t-87 -24.5q-64 0 -107 25.5t-43 77.5q0 46 27 77.5t73 58.5q-26 12 -42 33q-75 -51 -159 -51q-71 0 -115 38t-44 99zM198 149q0 -22 13 -36t34 -14q41 0 79 35v100q-126 -23 -126 -85z" />
<glyph unicode="&#x106;" horiz-adv-x="740" d="M35 341q0 47 10.5 94t36 94t63.5 83.5t98 59t134 22.5q92 0 167 -36l8 23h69l84 -236l-77 -29q-54 94 -83 125q-69 71 -142 71q-81 0 -128.5 -73t-47.5 -197q0 -73 18.5 -127.5t49 -82t61.5 -40.5t63 -13q131 0 221 158l84 -38q-36 -96 -126.5 -154t-203.5 -58 q-157 0 -258 99.5t-101 254.5zM275 770l116 84q50 37 92 37q31 0 54 -19.5t23 -46.5q0 -54 -88 -69l-175 -30z" />
<glyph unicode="&#x107;" d="M31 251q0 118 75 189t199 71q93 0 157.5 -42.5t64.5 -104.5q0 -35 -24 -58.5t-59 -23.5q-32 0 -57.5 21t-25.5 47v29q0 16 -17 28t-39 12q-46 0 -71 -41.5t-25 -117.5q0 -78 32.5 -125t86.5 -47q87 0 141 98l81 -42q-30 -72 -96.5 -112.5t-155.5 -40.5q-119 0 -193 72.5 t-74 187.5zM193 627l105 94q47 41 84 41q29 0 49.5 -21.5t20.5 -51.5q0 -60 -80 -77l-159 -34z" />
<glyph unicode="&#x108;" horiz-adv-x="740" d="M35 341q0 47 10.5 94t36 94t63.5 83.5t98 59t134 22.5q92 0 167 -36l8 23h69l84 -236l-77 -29q-54 94 -83 125q-69 71 -142 71q-81 0 -128.5 -73t-47.5 -197q0 -73 18.5 -127.5t49 -82t61.5 -40.5t63 -13q131 0 221 158l84 -38q-36 -96 -126.5 -154t-203.5 -58 q-157 0 -258 99.5t-101 254.5zM178 791l200 98l198 -98l-42 -61l-158 49l-156 -49z" />
<glyph unicode="&#x109;" d="M31 251q0 118 75 189t199 71q93 0 157.5 -42.5t64.5 -104.5q0 -35 -24 -58.5t-59 -23.5q-32 0 -57.5 21t-25.5 47v29q0 16 -17 28t-39 12q-46 0 -71 -41.5t-25 -117.5q0 -78 32.5 -125t86.5 -47q87 0 141 98l81 -42q-30 -72 -96.5 -112.5t-155.5 -40.5q-119 0 -193 72.5 t-74 187.5zM124 649l182 109l180 -109l-38 -67l-142 54l-144 -54z" />
<glyph unicode="&#x10a;" horiz-adv-x="740" d="M35 341q0 47 10.5 94t36 94t63.5 83.5t98 59t134 22.5q92 0 167 -36l8 23h69l84 -236l-77 -29q-54 94 -83 125q-69 71 -142 71q-81 0 -128.5 -73t-47.5 -197q0 -73 18.5 -127.5t49 -82t61.5 -40.5t63 -13q131 0 221 158l84 -38q-36 -96 -126.5 -154t-203.5 -58 q-157 0 -258 99.5t-101 254.5zM285 810q0 41 27 68t68 27q38 0 67 -29.5t29 -69.5q0 -37 -28 -64.5t-66 -27.5q-40 0 -68.5 28t-28.5 68z" />
<glyph unicode="&#x10b;" d="M31 251q0 118 75 189t199 71q93 0 157.5 -42.5t64.5 -104.5q0 -35 -24 -58.5t-59 -23.5q-32 0 -57.5 21t-25.5 47v29q0 16 -17 28t-39 12q-46 0 -71 -41.5t-25 -117.5q0 -78 32.5 -125t86.5 -47q87 0 141 98l81 -42q-30 -72 -96.5 -112.5t-155.5 -40.5q-119 0 -193 72.5 t-74 187.5zM213 671q0 41 27 68t68 27q38 0 67 -29.5t29 -69.5q0 -37 -28 -64.5t-66 -27.5q-40 0 -68.5 28t-28.5 68z" />
<glyph unicode="&#x10c;" horiz-adv-x="740" d="M35 341q0 47 10.5 94t36 94t63.5 83.5t98 59t134 22.5q92 0 167 -36l8 23h69l84 -236l-77 -29q-54 94 -83 125q-69 71 -142 71q-81 0 -128.5 -73t-47.5 -197q0 -73 18.5 -127.5t49 -82t61.5 -40.5t63 -13q131 0 221 158l84 -38q-36 -96 -126.5 -154t-203.5 -58 q-157 0 -258 99.5t-101 254.5zM178 828l42 61l158 -49l156 49l42 -61l-200 -98z" />
<glyph unicode="&#x10d;" d="M31 251q0 118 75 189t199 71q93 0 157.5 -42.5t64.5 -104.5q0 -35 -24 -58.5t-59 -23.5q-32 0 -57.5 21t-25.5 47v29q0 16 -17 28t-39 12q-46 0 -71 -41.5t-25 -117.5q0 -78 32.5 -125t86.5 -47q87 0 141 98l81 -42q-30 -72 -96.5 -112.5t-155.5 -40.5q-119 0 -193 72.5 t-74 187.5zM123 692l38 66l144 -53l142 53l38 -66l-180 -110z" />
<glyph unicode="&#x10e;" horiz-adv-x="780" d="M20 0v82l20 2q42 5 55 20.5t13 63.5v345q0 48 -13 63.5t-55 20.5l-20 2v82h318q70 0 126 -8t111 -30.5t91.5 -59.5t59 -99.5t22.5 -145.5q0 -69 -17.5 -125t-59 -106.5t-120.5 -78.5t-190 -28h-341zM162 828l42 61l158 -49l156 49l42 -61l-200 -98zM283 162q0 -44 10 -58 t57 -14q94 0 150 69.5t56 185.5q0 115 -53.5 180.5t-147.5 65.5q-43 0 -57.5 -11t-14.5 -42v-376z" />
<glyph unicode="&#x10f;" horiz-adv-x="640" d="M31 245q0 113 68 189.5t169 76.5q63 0 115 -29v35q0 46 -11 61t-48 20l-14 2v81q83 7 182 43h53v-560q0 -43 7.5 -56.5t36.5 -19.5l33 -7v-81h-224v38q-54 -47 -138 -47q-109 0 -169 77t-60 177zM201 243q0 -65 26 -106t66 -41q54 0 90 42v236q-35 29 -80 29 q-46 0 -74 -43.5t-28 -116.5zM585 645q0 34 22.5 56.5t55.5 22.5q37 0 59.5 -26.5t22.5 -68.5q0 -44 -27 -87t-74 -74l-43 45q33 29 49 59q-65 12 -65 73z" />
<glyph unicode="&#x110;" horiz-adv-x="780" d="M20 0v82l20 2q42 5 55 20.5t13 63.5v153h-88v87h88v103q0 49 -13 65t-55 20l-20 2v83h318q70 0 126 -8t111 -30.5t91.5 -59.5t59 -99.5t22.5 -146.5q0 -337 -387 -337h-341zM283 162q0 -44 10 -58t57 -14q94 0 150 69t56 185q0 114 -54 180t-148 66q-42 0 -56.5 -11 t-14.5 -42v-129h153v-87h-153v-159z" />
<glyph unicode="&#x111;" horiz-adv-x="640" d="M31 236q0 58 28 116t72 91q60 46 137 46q63 0 115 -29v66h-150v48h147q-4 38 -56 38h-14v69q85 7 182 43h53v-150h77v-48h-77v-362q0 -43 7.5 -56.5t36.5 -19.5l33 -7v-81h-224v38q-54 -47 -138 -47q-81 0 -133 43q-44 36 -70 90t-26 112zM201 236q0 -61 24.5 -102 t61.5 -41q25 0 52 13.5t44 34.5v207q-36 33 -81 33q-29 0 -50 -16q-23 -20 -37 -55.5t-14 -73.5z" />
<glyph unicode="&#x112;" horiz-adv-x="720" d="M20 0v82l20 2q42 5 55 20.5t13 63.5v345q0 48 -13 63.5t-55 20.5l-20 2v82h577l99 -206l-68 -34q-104 150 -239 150q-32 0 -52 -3.5t-31 -8.5t-16 -19t-6 -25t-1 -37v-85h29q32 0 47 2t29.5 12.5t19.5 32.5t6 62h78v-311h-78q-9 70 -31.5 90t-71.5 20h-28v-118 q0 -79 11.5 -96t71.5 -17q86 0 154.5 42.5t133.5 136.5l70 -33l-110 -236h-594zM155 767v85h315v-85h-315z" />
<glyph unicode="&#x113;" d="M31 253q0 113 74 185.5t189 72.5q72 0 129.5 -29.5t86.5 -81.5q26 -47 26 -146h-324q0 -75 31 -115t90 -40q74 0 131 85l84 -41q-20 -32 -35.5 -52t-45 -46.5t-71 -40t-93.5 -13.5q-118 0 -195 74t-77 188zM132 628v85h315v-85h-315zM218 331h141q-1 47 -16.5 67.5 t-49.5 20.5t-53.5 -23t-21.5 -65z" />
<glyph unicode="&#x114;" horiz-adv-x="720" d="M20 0v82l20 2q42 5 55 20.5t13 63.5v345q0 48 -13 63.5t-55 20.5l-20 2v82h577l99 -206l-68 -34q-104 150 -239 150q-32 0 -52 -3.5t-31 -8.5t-16 -19t-6 -25t-1 -37v-85h29q32 0 47 2t29.5 12.5t19.5 32.5t6 62h78v-311h-78q-9 70 -31.5 90t-71.5 20h-28v-118 q0 -79 11.5 -96t71.5 -17q86 0 154.5 42.5t133.5 136.5l70 -33l-110 -236h-594zM119 862l55 23q60 -54 145 -54q77 0 139 54l58 -23q-23 -56 -78.5 -92.5t-118.5 -36.5q-122 0 -200 129z" />
<glyph unicode="&#x115;" d="M31 253q0 113 74 185.5t189 72.5q72 0 129.5 -29.5t86.5 -81.5q26 -47 26 -146h-324q0 -75 31 -115t90 -40q74 0 131 85l84 -41q-20 -32 -35.5 -52t-45 -46.5t-71 -40t-93.5 -13.5q-118 0 -195 74t-77 188zM112 729l50 26q55 -61 132 -61q70 0 126 61l53 -26 q-21 -62 -71.5 -102.5t-107.5 -40.5q-112 0 -182 143zM218 331h141q-1 47 -16.5 67.5t-49.5 20.5t-53.5 -23t-21.5 -65z" />
<glyph unicode="&#x116;" horiz-adv-x="720" d="M20 0v82l20 2q42 5 55 20.5t13 63.5v345q0 48 -13 63.5t-55 20.5l-20 2v82h577l99 -206l-68 -34q-104 150 -239 150q-32 0 -52 -3.5t-31 -8.5t-16 -19t-6 -25t-1 -37v-85h29q32 0 47 2t29.5 12.5t19.5 32.5t6 62h78v-311h-78q-9 70 -31.5 90t-71.5 20h-28v-118 q0 -79 11.5 -96t71.5 -17q86 0 154.5 42.5t133.5 136.5l70 -33l-110 -236h-594zM225 810q0 41 27 68t68 27q38 0 67 -29.5t29 -69.5q0 -37 -28 -64.5t-66 -27.5q-40 0 -68.5 28t-28.5 68z" />
<glyph unicode="&#x117;" d="M31 253q0 113 74 185.5t189 72.5q72 0 129.5 -29.5t86.5 -81.5q26 -47 26 -146h-324q0 -75 31 -115t90 -40q74 0 131 85l84 -41q-20 -32 -35.5 -52t-45 -46.5t-71 -40t-93.5 -13.5q-118 0 -195 74t-77 188zM202 671q0 41 27 68t68 27q38 0 67 -29.5t29 -69.5 q0 -37 -28 -64.5t-66 -27.5q-40 0 -68.5 28t-28.5 68zM218 331h141q-1 47 -16.5 67.5t-49.5 20.5t-53.5 -23t-21.5 -65z" />
<glyph unicode="&#x118;" horiz-adv-x="720" d="M20 0v82l20 2q42 5 55 20.5t13 63.5v345q0 48 -13 63.5t-55 20.5l-20 2v82h577l99 -206l-68 -34q-104 150 -239 150q-32 0 -52 -3.5t-31 -8.5t-16 -19t-6 -25t-1 -37v-85h29q32 0 47 2t29.5 12.5t19.5 32.5t6 62h78v-311h-78q-9 70 -31.5 90t-71.5 20h-28v-118 q0 -79 11.5 -96t71.5 -17q86 0 154.5 42.5t133.5 136.5l70 -33l-110 -236q-44 0 -76 -26t-32 -65q0 -25 17 -40t41 -15q33 0 74 41l38 -35q-23 -41 -63 -65.5t-87 -24.5q-64 0 -107 25.5t-43 77.5q0 72 86 127h-442z" />
<glyph unicode="&#x119;" d="M31 253q0 113 74 185.5t189 72.5q72 0 129.5 -29.5t86.5 -81.5q26 -47 26 -146h-324q0 -75 31 -115t90 -40q74 0 131 85l84 -41q-19 -31 -34.5 -51.5t-47 -46.5t-68.5 -39q-32 -11 -51 -37.5t-19 -59.5q0 -25 17 -40t41 -15q33 0 74 41l38 -35q-23 -41 -63 -65.5 t-87 -24.5q-64 0 -107 25.5t-43 77.5q0 69 74 119q-107 11 -174 83t-67 178zM218 331h141q-1 47 -16.5 67.5t-49.5 20.5t-53.5 -23t-21.5 -65z" />
<glyph unicode="&#x11a;" horiz-adv-x="720" d="M20 0v82l20 2q42 5 55 20.5t13 63.5v345q0 48 -13 63.5t-55 20.5l-20 2v82h577l99 -206l-68 -34q-104 150 -239 150q-32 0 -52 -3.5t-31 -8.5t-16 -19t-6 -25t-1 -37v-85h29q32 0 47 2t29.5 12.5t19.5 32.5t6 62h78v-311h-78q-9 70 -31.5 90t-71.5 20h-28v-118 q0 -79 11.5 -96t71.5 -17q86 0 154.5 42.5t133.5 136.5l70 -33l-110 -236h-594zM118 828l42 61l158 -49l156 49l42 -61l-200 -98z" />
<glyph unicode="&#x11b;" d="M31 253q0 113 74 185.5t189 72.5q72 0 129.5 -29.5t86.5 -81.5q26 -47 26 -146h-324q0 -75 31 -115t90 -40q74 0 131 85l84 -41q-20 -32 -35.5 -52t-45 -46.5t-71 -40t-93.5 -13.5q-118 0 -195 74t-77 188zM112 692l38 66l144 -53l142 53l38 -66l-180 -110zM218 331h141 q-1 47 -16.5 67.5t-49.5 20.5t-53.5 -23t-21.5 -65z" />
<glyph unicode="&#x11c;" horiz-adv-x="780" d="M35 340q0 155 95 254.5t243 99.5q44 0 93.5 -12t80.5 -30l15 29h64l61 -229l-72 -25q-39 70 -69 100q-68 70 -154 70q-74 0 -119.5 -74.5t-45.5 -195.5q0 -107 48.5 -175t124.5 -68q54 0 95 36t41 83q0 64 -88 65v82h325v-82q-21 -3 -27.5 -4t-19.5 -4.5t-16 -8t-8.5 -14 t-6.5 -22.5t-1 -33v-191h-109l-23 58q-90 -62 -206 -62q-147 0 -234 101t-87 252zM174 791l200 98l198 -98l-42 -61l-158 49l-156 -49z" />
<glyph unicode="&#x11d;" d="M9 -113q0 59 68 90q-50 37 -50 87q0 45 26 78t70 43q-69 52 -69 138q0 83 63 137.5t159 54.5q34 0 87 -12l4 6q4 6 7.5 10.5t10 12t13.5 14t16 14t18.5 13t21 10.5t24.5 7.5t27 2.5q33 0 55.5 -19.5t22.5 -48.5q0 -23 -18 -40t-43 -17q-9 0 -26.5 6t-28.5 6 q-18 0 -31 -12q78 -60 78 -146q0 -83 -62 -136t-160 -53q-17 0 -53.5 5.5t-44.5 5.5q-22 0 -22 -22q0 -17 15.5 -23.5t65.5 -11.5l158 -14q155 -14 155 -133q0 -25 -6.5 -48.5t-26 -50t-51 -45.5t-86.5 -31.5t-127 -12.5q-48 0 -90.5 6t-82.5 20.5t-63.5 42t-23.5 66.5z M95 649l182 109l180 -109l-38 -67l-142 54l-144 -54zM122 -108q0 -25 41 -41.5t103 -16.5q145 0 145 48q0 18 -16.5 26.5t-62.5 13.5l-177 19q-33 -20 -33 -49zM216 315q0 -100 68 -100t68 98q0 58 -16 84t-52 26q-35 0 -51.5 -26t-16.5 -82z" />
<glyph unicode="&#x11e;" horiz-adv-x="780" d="M35 340q0 155 95 254.5t243 99.5q44 0 93.5 -12t80.5 -30l15 29h64l61 -229l-72 -25q-39 70 -69 100q-68 70 -154 70q-74 0 -119.5 -74.5t-45.5 -195.5q0 -107 48.5 -175t124.5 -68q54 0 95 36t41 83q0 64 -88 65v82h325v-82q-21 -3 -27.5 -4t-19.5 -4.5t-16 -8t-8.5 -14 t-6.5 -22.5t-1 -33v-191h-109l-23 58q-90 -62 -206 -62q-147 0 -234 101t-87 252zM175 862l55 23q60 -54 145 -54q77 0 139 54l58 -23q-23 -56 -78.5 -92.5t-118.5 -36.5q-122 0 -200 129z" />
<glyph unicode="&#x11f;" d="M9 -113q0 59 68 90q-50 37 -50 87q0 45 26 78t70 43q-69 52 -69 138q0 83 63 137.5t159 54.5q34 0 87 -12l4 6q4 6 7.5 10.5t10 12t13.5 14t16 14t18.5 13t21 10.5t24.5 7.5t27 2.5q33 0 55.5 -19.5t22.5 -48.5q0 -23 -18 -40t-43 -17q-9 0 -26.5 6t-28.5 6 q-18 0 -31 -12q78 -60 78 -146q0 -83 -62 -136t-160 -53q-17 0 -53.5 5.5t-44.5 5.5q-22 0 -22 -22q0 -17 15.5 -23.5t65.5 -11.5l158 -14q155 -14 155 -133q0 -25 -6.5 -48.5t-26 -50t-51 -45.5t-86.5 -31.5t-127 -12.5q-48 0 -90.5 6t-82.5 20.5t-63.5 42t-23.5 66.5z M94 729l50 26q55 -61 132 -61q70 0 126 61l53 -26q-21 -62 -71.5 -102.5t-107.5 -40.5q-112 0 -182 143zM122 -108q0 -25 41 -41.5t103 -16.5q145 0 145 48q0 18 -16.5 26.5t-62.5 13.5l-177 19q-33 -20 -33 -49zM216 315q0 -100 68 -100t68 98q0 58 -16 84t-52 26 q-35 0 -51.5 -26t-16.5 -82z" />
<glyph unicode="&#x120;" horiz-adv-x="780" d="M35 340q0 155 95 254.5t243 99.5q44 0 93.5 -12t80.5 -30l15 29h64l61 -229l-72 -25q-39 70 -69 100q-68 70 -154 70q-74 0 -119.5 -74.5t-45.5 -195.5q0 -107 48.5 -175t124.5 -68q54 0 95 36t41 83q0 64 -88 65v82h325v-82q-21 -3 -27.5 -4t-19.5 -4.5t-16 -8t-8.5 -14 t-6.5 -22.5t-1 -33v-191h-109l-23 58q-90 -62 -206 -62q-147 0 -234 101t-87 252zM281 810q0 41 27 68t68 27q38 0 67 -29.5t29 -69.5q0 -37 -28 -64.5t-66 -27.5q-40 0 -68.5 28t-28.5 68z" />
<glyph unicode="&#x121;" d="M9 -113q0 59 68 90q-50 37 -50 87q0 45 26 78t70 43q-69 52 -69 138q0 83 63 137.5t159 54.5q34 0 87 -12l4 6q4 6 7.5 10.5t10 12t13.5 14t16 14t18.5 13t21 10.5t24.5 7.5t27 2.5q33 0 55.5 -19.5t22.5 -48.5q0 -23 -18 -40t-43 -17q-9 0 -26.5 6t-28.5 6 q-18 0 -31 -12q78 -60 78 -146q0 -83 -62 -136t-160 -53q-17 0 -53.5 5.5t-44.5 5.5q-22 0 -22 -22q0 -17 15.5 -23.5t65.5 -11.5l158 -14q155 -14 155 -133q0 -25 -6.5 -48.5t-26 -50t-51 -45.5t-86.5 -31.5t-127 -12.5q-48 0 -90.5 6t-82.5 20.5t-63.5 42t-23.5 66.5z M122 -108q0 -25 41 -41.5t103 -16.5q145 0 145 48q0 18 -16.5 26.5t-62.5 13.5l-177 19q-33 -20 -33 -49zM184 671q0 41 27 68t68 27q38 0 67 -29.5t29 -69.5q0 -37 -28 -64.5t-66 -27.5q-40 0 -68.5 28t-28.5 68zM216 315q0 -100 68 -100t68 98q0 58 -16 84t-52 26 q-35 0 -51.5 -26t-16.5 -82z" />
<glyph unicode="&#x122;" horiz-adv-x="780" d="M35 340q0 155 95 254.5t243 99.5q44 0 93.5 -12t80.5 -30l15 29h64l61 -229l-72 -25q-39 70 -69 100q-68 70 -154 70q-74 0 -119.5 -74.5t-45.5 -195.5q0 -107 48.5 -175t124.5 -68q54 0 95 36t41 83q0 64 -88 65v82h325v-82q-21 -3 -27.5 -4t-19.5 -4.5t-16 -8t-8.5 -14 t-6.5 -22.5t-1 -33v-191h-109l-23 58q-90 -62 -206 -62q-147 0 -234 101t-87 252zM293 -129q0 34 22.5 56.5t55.5 22.5q37 0 59.5 -26.5t22.5 -68.5q0 -44 -27 -87t-74 -74l-43 45q33 29 49 59q-65 12 -65 73z" />
<glyph unicode="&#x123;" d="M9 -113q0 59 68 90q-50 37 -50 87q0 45 26 78t70 43q-69 52 -69 138q0 83 63 137.5t159 54.5q34 0 87 -12l4 6q4 6 7.5 10.5t10 12t13.5 14t16 14t18.5 13t21 10.5t24.5 7.5t27 2.5q33 0 55.5 -19.5t22.5 -48.5q0 -23 -18 -40t-43 -17q-9 0 -26.5 6t-28.5 6 q-18 0 -31 -12q78 -60 78 -146q0 -83 -62 -136t-160 -53q-17 0 -53.5 5.5t-44.5 5.5q-22 0 -22 -22q0 -17 15.5 -23.5t65.5 -11.5l158 -14q155 -14 155 -133q0 -25 -6.5 -48.5t-26 -50t-51 -45.5t-86.5 -31.5t-127 -12.5q-48 0 -90.5 6t-82.5 20.5t-63.5 42t-23.5 66.5z M122 -108q0 -25 41 -41.5t103 -16.5q145 0 145 48q0 18 -16.5 26.5t-62.5 13.5l-177 19q-33 -20 -33 -49zM196 657q0 44 27 87t74 74l43 -45q-33 -29 -49 -59q65 -12 65 -73q0 -34 -22.5 -56.5t-55.5 -22.5q-37 0 -59.5 26.5t-22.5 68.5zM216 315q0 -100 68 -100t68 98 q0 58 -16 84t-52 26q-35 0 -51.5 -26t-16.5 -82z" />
<glyph unicode="&#x124;" horiz-adv-x="820" d="M20 0v82l20 2q42 5 55 20.5t13 63.5v345q0 48 -13 63.5t-55 20.5l-20 2v82h351v-82l-20 -2q-42 -5 -55 -20.5t-13 -63.5v-98h254v98q0 48 -13 63.5t-55 20.5l-20 2v82h351v-82l-20 -2q-42 -5 -55 -20.5t-13 -63.5v-345q0 -48 13 -63.5t55 -20.5l20 -2v-82h-351v82l20 2 q42 5 55 20.5t13 63.5v150h-254v-150q0 -48 13 -63.5t55 -20.5l20 -2v-82h-351zM211 791l200 98l198 -98l-42 -61l-158 49l-156 -49z" />
<glyph unicode="&#x125;" horiz-adv-x="680" d="M22 0v81l35 7q28 5 36 19.5t8 56.5v353q0 42 -10 59.5t-49 21.5l-20 2v81q74 0 176 43h65v-258q80 45 155 45q26 0 50 -6.5t49.5 -22.5t41 -49t15.5 -79v-190q0 -42 8 -56.5t36 -19.5l36 -7v-81h-299v81l13 5q31 12 37.5 23t6.5 55v177q0 62 -42 62q-24 0 -56.5 -11.5 t-50.5 -27.5v-200q0 -44 6.5 -55t37.5 -23l13 -5v-81h-298zM141 834l200 98l198 -98l-42 -61l-158 49l-156 -49z" />
<glyph unicode="&#x126;" horiz-adv-x="820" d="M20 0v82l20 2q42 5 55 20.5t13 63.5v295h-88v96h84q-6 19 -20 27t-44 11l-20 2v82h351v-82l-20 -2q-30 -3 -44 -11t-20 -27h246q-6 19 -20 27t-44 11l-20 2v82h351v-82l-20 -2q-30 -3 -44 -11t-20 -27h84v-96h-88v-295q0 -48 13 -63.5t55 -20.5l20 -2v-82h-351v82l20 2 q42 5 55 20.5t13 63.5v150h-254v-150q0 -48 13 -63.5t55 -20.5l20 -2v-82h-351zM283 415h254v48h-254v-48z" />
<glyph unicode="&#x127;" horiz-adv-x="712" d="M40 0v81l35 7q28 5 36 19.5t8 56.5v320l-79 -22v80l75 21q-9 30 -55 35l-20 2v81q74 0 176 43h65v-114l77 21v-79l-77 -22v-64q80 45 155 45q26 0 50 -6.5t49.5 -22.5t41 -49t15.5 -79v-190q0 -42 8 -56.5t36 -19.5l36 -7v-81h-299v81l13 5q31 12 37.5 23t6.5 55v177 q0 62 -42 62q-24 0 -56.5 -11.5t-50.5 -27.5v-200q0 -44 6.5 -55t37.5 -23l13 -5v-81h-298z" />
<glyph unicode="&#x128;" horiz-adv-x="400" d="M20 0v82l24 2q45 4 56.5 22.5t11.5 61.5v345q0 45 -11.5 63t-56.5 21l-24 2v82h359v-82l-24 -2q-45 -4 -56.5 -22.5t-11.5 -61.5v-345q0 -45 11.5 -63t56.5 -21l24 -2v-82h-359zM29 779q16 45 50 71.5t76 26.5q29 0 73 -14.5t62 -14.5q27 0 41 24l50 -25q-16 -55 -45 -80 t-78 -25q-32 0 -76.5 15t-62.5 15q-21 0 -38 -24z" />
<glyph unicode="&#x129;" horiz-adv-x="360" d="M8 640q16 45 50 71.5t76 26.5q29 0 73 -14.5t62 -14.5q27 0 41 24l50 -25q-16 -55 -45 -80t-78 -25q-32 0 -76.5 15t-62.5 15q-21 0 -38 -24zM22 0v81l32 7q28 6 36 19.5t8 56.5v144q0 46 -11.5 62.5t-43.5 19.5l-21 2v81l176 29h62v-338q0 -43 7.5 -56t36.5 -20l31 -7 v-81h-313z" />
<glyph unicode="&#x12a;" horiz-adv-x="400" d="M20 0v82l24 2q45 4 56.5 22.5t11.5 61.5v345q0 45 -11.5 63t-56.5 21l-24 2v82h359v-82l-24 -2q-45 -4 -56.5 -22.5t-11.5 -61.5v-345q0 -45 11.5 -63t56.5 -21l24 -2v-82h-359zM38 767v85h315v-85h-315z" />
<glyph unicode="&#x12b;" horiz-adv-x="360" d="M17 628v85h315v-85h-315zM22 0v81l32 7q28 6 36 19.5t8 56.5v144q0 46 -11.5 62.5t-43.5 19.5l-21 2v81l176 29h62v-338q0 -43 7.5 -56t36.5 -20l31 -7v-81h-313z" />
<glyph unicode="&#x12c;" horiz-adv-x="400" d="M2 862l55 23q60 -54 145 -54q77 0 139 54l58 -23q-23 -56 -78.5 -92.5t-118.5 -36.5q-122 0 -200 129zM20 0v82l24 2q45 4 56.5 22.5t11.5 61.5v345q0 45 -11.5 63t-56.5 21l-24 2v82h359v-82l-24 -2q-45 -4 -56.5 -22.5t-11.5 -61.5v-345q0 -45 11.5 -63t56.5 -21l24 -2 v-82h-359z" />
<glyph unicode="&#x12d;" horiz-adv-x="360" d="M-3 729l50 26q55 -61 132 -61q70 0 126 61l53 -26q-21 -62 -71.5 -102.5t-107.5 -40.5q-112 0 -182 143zM22 0v81l32 7q28 6 36 19.5t8 56.5v144q0 46 -11.5 62.5t-43.5 19.5l-21 2v81l176 29h62v-338q0 -43 7.5 -56t36.5 -20l31 -7v-81h-313z" />
<glyph unicode="&#x12e;" horiz-adv-x="400" d="M20 0v82l24 2q45 4 56.5 22.5t11.5 61.5v345q0 45 -11.5 63t-56.5 21l-24 2v82h359v-82l-24 -2q-45 -4 -56.5 -22.5t-11.5 -61.5v-345q0 -45 11.5 -63t56.5 -21l24 -2v-82h-72q-40 0 -69 -26t-29 -65q0 -25 17 -40t41 -15q33 0 74 41l38 -35q-23 -41 -63 -65.5t-87 -24.5 q-64 0 -107 25.5t-43 77.5q0 72 86 127h-145z" />
<glyph unicode="&#x12f;" horiz-adv-x="360" d="M22 0v81l32 7q28 6 36 19.5t8 56.5v144q0 46 -11.5 62.5t-43.5 19.5l-21 2v81l176 29h62v-338q0 -43 7.5 -56t36.5 -20l31 -7v-81h-63q-43 0 -75 -26t-32 -65q0 -25 17 -40t41 -15q33 0 74 41l38 -35q-23 -41 -63 -65.5t-87 -24.5q-64 0 -107 25.5t-43 77.5q0 72 86 127 h-99zM87 671q0 41 27 68t68 27q38 0 67 -29.5t29 -69.5q0 -37 -28 -64.5t-66 -27.5q-40 0 -68.5 28t-28.5 68z" />
<glyph unicode="&#x130;" horiz-adv-x="400" d="M20 0v82l24 2q45 4 56.5 22.5t11.5 61.5v345q0 45 -11.5 63t-56.5 21l-24 2v82h359v-82l-24 -2q-45 -4 -56.5 -22.5t-11.5 -61.5v-345q0 -45 11.5 -63t56.5 -21l24 -2v-82h-359zM108 810q0 41 27 68t68 27q38 0 67 -29.5t29 -69.5q0 -37 -28 -64.5t-66 -27.5 q-40 0 -68.5 28t-28.5 68z" />
<glyph unicode="&#x131;" horiz-adv-x="360" d="M22 0v81l32 7q28 6 36 19.5t8 56.5v144q0 46 -11.5 62.5t-43.5 19.5l-21 2v81l176 29h62v-338q0 -43 7.5 -56t36.5 -20l31 -7v-81h-313z" />
<glyph unicode="&#x134;" horiz-adv-x="640" d="M-12 189q0 50 28.5 82t72.5 32q33 0 55 -21.5t22 -54.5q0 -34 -27 -65q-9 -10 -9 -17q0 -22 33 -39t74 -17q35 0 59.5 11.5t36.5 25.5t18 37t7 35.5t1 32.5v282q0 48 -13 63.5t-55 20.5l-20 2v82h351v-82l-20 -2q-42 -5 -55 -20.5t-13 -63.5v-272q0 -44 -5.5 -77.5 t-23 -68t-47.5 -57t-81.5 -37t-121.5 -14.5q-118 0 -192.5 56.5t-74.5 145.5zM248 791l200 98l198 -98l-42 -61l-158 49l-156 -49z" />
<glyph unicode="&#x135;" horiz-adv-x="340" d="M-94 -142q0 28 20.5 47t52.5 19q20 0 33 -7t36 -32q14 -14 28 -14q37 0 37 68v369q0 46 -11 62t-44 20l-18 2v81l173 29h62v-515q0 -213 -233 -213q-64 0 -100 22.5t-36 61.5zM13 649l182 109l180 -109l-38 -67l-142 54l-144 -54z" />
<glyph unicode="&#x136;" horiz-adv-x="800" d="M20 0v82l20 2q42 5 55 20.5t13 63.5v345q0 48 -13 63.5t-55 20.5l-20 2v82h344v-82l-13 -2q-46 -7 -57 -20.5t-11 -63.5v-135l168 160q33 31 33 41q0 20 -50 20h-17v82h338v-82q-65 -9 -112 -33.5t-112 -84.5l-41 -38l146 -229q52 -81 78 -102.5t82 -29.5v-82h-379v82 l18 2q40 4 50.5 8.5t10.5 17.5q0 7 -7 20t-14 23l-7 10l-103 170l-82 -71v-94q0 -50 11 -63.5t57 -20.5l13 -2v-82h-344zM311 -129q0 34 22.5 56.5t55.5 22.5q37 0 59.5 -26.5t22.5 -68.5q0 -44 -27 -87t-74 -74l-43 45q33 29 49 59q-65 12 -65 73z" />
<glyph unicode="&#x137;" horiz-adv-x="660" d="M22 0v81l29 7q29 7 36.5 20t7.5 56v353q0 46 -11 61t-48 20l-14 2v81q73 0 170 43h65v-420l65 70q19 20 19 32q0 13 -25 14l-11 1v81h289v-81l-14 -1q-45 -6 -82 -33l-88 -65l136 -190q32 -45 79 -49l18 -2v-81h-305v81l11 2q21 4 21 17q0 10 -9 24l-67 104l-37 -33v-31 q0 -70 46 -80l14 -3v-81h-295zM248 -129q0 34 22.5 56.5t55.5 22.5q37 0 59.5 -26.5t22.5 -68.5q0 -44 -27 -87t-74 -74l-43 45q33 29 49 59q-65 12 -65 73z" />
<glyph unicode="&#x139;" horiz-adv-x="640" d="M20 0v82l20 2q42 5 55 20.5t13 63.5v345q0 48 -13 63.5t-55 20.5l-20 2v82h351v-82l-20 -2q-42 -5 -55 -20.5t-13 -63.5v-332q0 -62 8.5 -76.5t52.5 -14.5q151 0 255 185l69 -37l-104 -238h-544zM94 770l116 84q50 37 92 37q32 0 54.5 -19.5t22.5 -46.5q0 -54 -88 -69 l-175 -30z" />
<glyph unicode="&#x13a;" horiz-adv-x="340" d="M9 0v81l32 7q28 6 36 19.5t8 56.5v353q0 42 -10 59.5t-49 21.5l-17 2v81q92 8 172 43h66v-560q0 -43 7.5 -56t36.5 -20l31 -7v-81h-313zM66 813l116 84q50 37 92 37q32 0 54.5 -19.5t22.5 -46.5q0 -54 -88 -69l-175 -30z" />
<glyph unicode="&#x13b;" horiz-adv-x="640" d="M20 0v82l20 2q42 5 55 20.5t13 63.5v345q0 48 -13 63.5t-55 20.5l-20 2v82h351v-82l-20 -2q-42 -5 -55 -20.5t-13 -63.5v-332q0 -62 8.5 -76.5t52.5 -14.5q151 0 255 185l69 -37l-104 -238h-544zM240 -129q0 34 22.5 56.5t55.5 22.5q37 0 59.5 -26.5t22.5 -68.5 q0 -44 -27 -87t-74 -74l-43 45q33 29 49 59q-65 12 -65 73z" />
<glyph unicode="&#x13c;" horiz-adv-x="340" d="M9 0v81l32 7q28 6 36 19.5t8 56.5v353q0 42 -10 59.5t-49 21.5l-17 2v81q92 8 172 43h66v-560q0 -43 7.5 -56t36.5 -20l31 -7v-81h-313zM86 -129q0 34 22.5 56.5t55.5 22.5q37 0 59.5 -26.5t22.5 -68.5q0 -44 -27 -87t-74 -74l-43 45q33 29 49 59q-65 12 -65 73z" />
<glyph unicode="&#x13d;" horiz-adv-x="640" d="M20 0v82l20 2q42 5 55 20.5t13 63.5v345q0 48 -13 63.5t-55 20.5l-20 2v82h351v-82l-20 -2q-42 -5 -55 -20.5t-13 -63.5v-332q0 -62 8.5 -76.5t52.5 -14.5q151 0 255 185l69 -37l-104 -238h-544zM411 602q0 34 22.5 56.5t55.5 22.5q37 0 59.5 -26.5t22.5 -68.5 q0 -44 -27 -87t-74 -74l-43 45q33 29 49 59q-65 12 -65 73z" />
<glyph unicode="&#x13e;" horiz-adv-x="340" d="M9 0v81l32 7q28 6 36 19.5t8 56.5v353q0 42 -10 59.5t-49 21.5l-17 2v81q92 8 172 43h66v-560q0 -43 7.5 -56t36.5 -20l31 -7v-81h-313zM287 645q0 34 22.5 56.5t55.5 22.5q37 0 59.5 -26.5t22.5 -68.5q0 -44 -27 -87t-74 -74l-43 45q33 29 49 59q-65 12 -65 73z" />
<glyph unicode="&#x13f;" horiz-adv-x="640" d="M20 0v82l20 2q42 5 55 20.5t13 63.5v345q0 48 -13 63.5t-55 20.5l-20 2v82h351v-82l-20 -2q-42 -5 -55 -20.5t-13 -63.5v-332q0 -62 8.5 -76.5t52.5 -14.5q151 0 255 185l69 -37l-104 -238h-544zM420 376q0 41 27 68t68 27q38 0 67 -29.5t29 -69.5q0 -37 -28 -64.5 t-66 -27.5q-40 0 -68.5 28t-28.5 68z" />
<glyph unicode="&#x140;" horiz-adv-x="545" d="M9 0v81l32 7q28 6 36 19.5t8 56.5v353q0 42 -10 59.5t-49 21.5l-17 2v81q92 8 172 43h66v-560q0 -43 7.5 -56t36.5 -20l31 -7v-81h-313zM343 376q0 41 27 68t68 27q38 0 67 -29.5t29 -69.5q0 -37 -28 -64.5t-66 -27.5q-40 0 -68.5 28t-28.5 68z" />
<glyph unicode="&#x141;" horiz-adv-x="640" d="M20 0v82l20 2q42 5 55 20.5t13 63.5v44l-88 -56v105l88 56v196q0 48 -13 63.5t-55 20.5l-20 2v82h351v-82l-20 -2q-42 -5 -55 -20.5t-13 -63.5v-95l144 92v-105l-144 -92v-132q0 -62 8.5 -76.5t52.5 -14.5q151 0 255 185l69 -37l-104 -238h-544z" />
<glyph unicode="&#x142;" horiz-adv-x="340" d="M9 0v81l32 7q28 6 36 19.5t8 56.5v126l-76 -54v109l76 53v119q0 42 -10 59.5t-49 21.5l-17 2v81q92 8 172 43h66v-222l75 53v-108l-75 -53v-230q0 -43 7.5 -56t36.5 -20l31 -7v-81h-313z" />
<glyph unicode="&#x143;" horiz-adv-x="740" d="M20 0v82l20 2q42 5 55 20.5t13 63.5v345q0 48 -13 63.5t-55 20.5l-20 2v82h295l228 -393v225q0 48 -13 63.5t-55 20.5l-20 2v82h269v-82l-20 -2q-42 -5 -55 -20.5t-13 -63.5v-513h-124l-311 526v-358q0 -48 13 -63.5t55 -20.5l20 -2v-82h-269zM270 770l116 84 q50 37 92 37q31 0 54 -19.5t23 -46.5q0 -54 -88 -69l-175 -30z" />
<glyph unicode="&#x144;" horiz-adv-x="680" d="M22 0v81l29 7q29 7 36.5 20t7.5 56v144q0 46 -11 62t-44 20l-18 2v81l156 29h62v-43q94 52 182 52q65 0 110.5 -36t45.5 -123v-188q0 -43 7.5 -56t36.5 -20l30 -7v-81h-298v81l18 5q29 8 36.5 21.5t7.5 56.5v175q0 64 -45 64q-49 0 -114 -44v-195q0 -43 7.5 -56.5 t36.5 -21.5l18 -5v-81h-297zM225 627l105 94q47 41 84 41q29 0 49.5 -21.5t20.5 -51.5q0 -60 -80 -77l-159 -34z" />
<glyph unicode="&#x145;" horiz-adv-x="740" d="M20 0v82l20 2q42 5 55 20.5t13 63.5v345q0 48 -13 63.5t-55 20.5l-20 2v82h295l228 -393v225q0 48 -13 63.5t-55 20.5l-20 2v82h269v-82l-20 -2q-42 -5 -55 -20.5t-13 -63.5v-513h-124l-311 526v-358q0 -48 13 -63.5t55 -20.5l20 -2v-82h-269zM292 -129q0 34 22.5 56.5 t55.5 22.5q37 0 59.5 -26.5t22.5 -68.5q0 -44 -27 -87t-74 -74l-43 45q33 29 49 59q-65 12 -65 73z" />
<glyph unicode="&#x146;" horiz-adv-x="680" d="M22 0v81l29 7q29 7 36.5 20t7.5 56v144q0 46 -11 62t-44 20l-18 2v81l156 29h62v-43q94 52 182 52q65 0 110.5 -36t45.5 -123v-188q0 -43 7.5 -56t36.5 -20l30 -7v-81h-298v81l18 5q29 8 36.5 21.5t7.5 56.5v175q0 64 -45 64q-49 0 -114 -44v-195q0 -43 7.5 -56.5 t36.5 -21.5l18 -5v-81h-297zM257 -129q0 34 22.5 56.5t55.5 22.5q37 0 59.5 -26.5t22.5 -68.5q0 -44 -27 -87t-74 -74l-43 45q33 29 49 59q-65 12 -65 73z" />
<glyph unicode="&#x147;" horiz-adv-x="740" d="M20 0v82l20 2q42 5 55 20.5t13 63.5v345q0 48 -13 63.5t-55 20.5l-20 2v82h295l228 -393v225q0 48 -13 63.5t-55 20.5l-20 2v82h269v-82l-20 -2q-42 -5 -55 -20.5t-13 -63.5v-513h-124l-311 526v-358q0 -48 13 -63.5t55 -20.5l20 -2v-82h-269zM173 828l42 61l158 -49 l156 49l42 -61l-200 -98z" />
<glyph unicode="&#x148;" horiz-adv-x="680" d="M22 0v81l29 7q29 7 36.5 20t7.5 56v144q0 46 -11 62t-44 20l-18 2v81l156 29h62v-43q94 52 182 52q65 0 110.5 -36t45.5 -123v-188q0 -43 7.5 -56t36.5 -20l30 -7v-81h-298v81l18 5q29 8 36.5 21.5t7.5 56.5v175q0 64 -45 64q-49 0 -114 -44v-195q0 -43 7.5 -56.5 t36.5 -21.5l18 -5v-81h-297zM155 692l38 66l144 -53l142 53l38 -66l-180 -110z" />
<glyph unicode="&#x14a;" horiz-adv-x="740" d="M20 0v82l20 2q42 5 55 20.5t13 63.5v345q0 48 -13 63.5t-55 20.5l-20 2v82h295l228 -393v225q0 48 -13 63.5t-55 20.5l-20 2v82h269v-82l-20 -2q-42 -5 -55 -20.5t-13 -63.5v-513q0 -97 -79 -161.5t-187 -64.5q-64 0 -100 22.5t-36 61.5q0 28 20.5 47t52.5 19q20 0 33 -7 t36 -32q14 -14 28 -14q47 0 77.5 38.5t30.5 90.5l-311 526v-358q0 -48 13 -63.5t55 -20.5l20 -2v-82h-269z" />
<glyph unicode="&#x14b;" horiz-adv-x="680" d="M22 0v81l29 7q29 7 36.5 20t7.5 56v144q0 46 -11 62t-44 20l-18 2v81l156 29h62v-43q94 52 182 52q65 0 110.5 -36t45.5 -123v-188q0 -101 -30 -188.5t-93.5 -144.5t-148.5 -57q-64 0 -100 22.5t-36 61.5q0 28 20.5 47t52.5 19q20 0 33 -7t36 -32q14 -14 28 -14 q18 0 32 11.5t22 36.5t12.5 48.5t6.5 64t2.5 64.5t0.5 68v175q0 64 -45 64q-49 0 -114 -44v-195q0 -43 7.5 -56.5t36.5 -21.5l18 -5v-81h-297z" />
<glyph unicode="&#x14c;" horiz-adv-x="800" d="M35 334q0 156 105 258t265 102q157 0 260.5 -96t103.5 -252q0 -153 -108 -256t-269 -103q-150 0 -253.5 95t-103.5 252zM227 338q0 -41 8 -81t26 -79.5t54 -64t85 -24.5q79 0 128 70.5t49 184.5q0 117 -45.5 182.5t-125.5 65.5t-129.5 -70.5t-49.5 -183.5zM243 767v85 h315v-85h-315z" />
<glyph unicode="&#x14d;" horiz-adv-x="620" d="M31 258q0 113 75 183t197 70q129 0 205.5 -71t76.5 -192q0 -117 -75.5 -187t-201.5 -70q-128 0 -202.5 72t-74.5 195zM141 628v85h315v-85h-315zM213 246q0 -158 96 -158q94 0 94 156q0 165 -94 165q-96 0 -96 -163z" />
<glyph unicode="&#x14e;" horiz-adv-x="800" d="M35 334q0 156 105 258t265 102q157 0 260.5 -96t103.5 -252q0 -153 -108 -256t-269 -103q-150 0 -253.5 95t-103.5 252zM207 862l55 23q60 -54 145 -54q77 0 139 54l58 -23q-23 -56 -78.5 -92.5t-118.5 -36.5q-122 0 -200 129zM227 338q0 -41 8 -81t26 -79.5t54 -64 t85 -24.5q79 0 128 70.5t49 184.5q0 117 -45.5 182.5t-125.5 65.5t-129.5 -70.5t-49.5 -183.5z" />
<glyph unicode="&#x14f;" horiz-adv-x="620" d="M31 258q0 113 75 183t197 70q129 0 205.5 -71t76.5 -192q0 -117 -75.5 -187t-201.5 -70q-128 0 -202.5 72t-74.5 195zM121 729l50 26q55 -61 132 -61q70 0 126 61l53 -26q-21 -62 -71.5 -102.5t-107.5 -40.5q-112 0 -182 143zM213 246q0 -158 96 -158q94 0 94 156 q0 165 -94 165q-96 0 -96 -163z" />
<glyph unicode="&#x150;" horiz-adv-x="800" d="M35 334q0 156 105 258t265 102q157 0 260.5 -96t103.5 -252q0 -153 -108 -256t-269 -103q-150 0 -253.5 95t-103.5 252zM227 338q0 -41 8 -81t26 -79.5t54 -64t85 -24.5q79 0 128 70.5t49 184.5q0 117 -45.5 182.5t-125.5 65.5t-129.5 -70.5t-49.5 -183.5zM303 770 l24 105q9 40 21.5 54t39.5 14q21 0 35.5 -14.5t14.5 -36.5q0 -29 -28 -57l-83 -80zM455 770l24 105q9 40 21.5 54t39.5 14q22 0 36 -14.5t14 -37.5q0 -30 -28 -56l-83 -80z" />
<glyph unicode="&#x151;" horiz-adv-x="620" d="M31 258q0 113 75 183t197 70q129 0 205.5 -71t76.5 -192q0 -117 -75.5 -187t-201.5 -70q-128 0 -202.5 72t-74.5 195zM201 591l24 105q9 40 21.5 54t39.5 14q21 0 35.5 -14.5t14.5 -36.5q0 -29 -28 -57l-83 -80zM213 246q0 -158 96 -158q94 0 94 156q0 165 -94 165 q-96 0 -96 -163zM353 591l24 105q9 40 21.5 54t39.5 14q22 0 36 -14.5t14 -37.5q0 -30 -28 -56l-83 -80z" />
<glyph unicode="&#x152;" horiz-adv-x="1220" d="M35 344q0 149 105 249.5t261 100.5q136 0 219 -68v55h470l98 -199l-74 -36q-58 79 -121.5 112t-155.5 33q-44 0 -57.5 -12t-13.5 -51v-121h25q58 0 78 22t26 91h81v-327h-81q-5 74 -24.5 97t-76.5 23q-15 0 -28 -1v-148q0 -29 1 -40.5t8.5 -23.5t22.5 -15t44 -3 q150 0 227 95l80 99l70 -33l-111 -243h-488v55q-111 -68 -230 -68q-148 0 -251.5 104t-103.5 253zM227 346q0 -70 18 -129t60 -98.5t102 -39.5q86 0 137.5 73t51.5 196q0 118 -49.5 188.5t-131.5 70.5q-86 0 -137 -71t-51 -190z" />
<glyph unicode="&#x153;" horiz-adv-x="940" d="M31 245q0 120 76 193t201 73q96 0 177 -58q82 58 179 58q101 0 167.5 -62.5t66.5 -157.5q0 -9 -2 -37h-329v-13q0 -65 33.5 -103.5t88.5 -38.5q82 0 135 85l84 -41q-21 -46 -54.5 -78.5t-71 -47.5t-67 -20.5t-57.5 -5.5q-99 0 -173 56q-99 -56 -193 -56q-116 0 -188.5 71 t-72.5 183zM201 249q0 -166 99 -166q46 0 72.5 44t26.5 120t-27 120.5t-72 44.5q-47 0 -73 -43t-26 -120zM577 331h146q-1 41 -20 64.5t-50 23.5q-65 0 -76 -88z" />
<glyph unicode="&#x154;" horiz-adv-x="780" d="M20 0v82l20 2q42 5 55 20.5t13 63.5v345q0 48 -13 63.5t-55 20.5l-20 2v82h389q67 0 117.5 -8t93 -28t64.5 -56.5t22 -89.5q0 -69 -44.5 -118t-122.5 -67l126 -163q38 -42 59 -55.5t59 -13.5v-82h-232l-216 293h-52v-125q0 -48 13 -63.5t55 -20.5l20 -2v-82h-351z M269 770l116 84q50 37 92 37q31 0 54 -19.5t23 -46.5q0 -54 -88 -69l-175 -30zM283 388h71q85 0 116.5 30.5t31.5 70.5q0 32 -13 53.5t-37 30.5t-44.5 12t-47.5 3q-28 0 -44.5 -3.5t-23 -11t-8 -13t-1.5 -16.5v-156z" />
<glyph unicode="&#x155;" horiz-adv-x="460" d="M22 0v81l29 7q29 7 36.5 20t7.5 56v144q0 46 -11 62t-44 20l-18 2v81l156 29h62v-49q50 35 75.5 46.5t56.5 11.5q38 0 64 -26.5t26 -65.5q0 -33 -22.5 -54.5t-56.5 -21.5q-27 0 -50 15.5t-36 15.5q-21 0 -40 -16v-194q0 -43 7.5 -56t36.5 -20l29 -7v-81h-308zM128 627 l105 94q47 41 84 41q29 0 49.5 -21.5t20.5 -51.5q0 -60 -80 -77l-159 -34z" />
<glyph unicode="&#x156;" horiz-adv-x="780" d="M20 0v82l20 2q42 5 55 20.5t13 63.5v345q0 48 -13 63.5t-55 20.5l-20 2v82h389q67 0 117.5 -8t93 -28t64.5 -56.5t22 -89.5q0 -69 -44.5 -118t-122.5 -67l126 -163q38 -42 59 -55.5t59 -13.5v-82h-232l-216 293h-52v-125q0 -48 13 -63.5t55 -20.5l20 -2v-82h-351z M283 388h71q85 0 116.5 30.5t31.5 70.5q0 32 -13 53.5t-37 30.5t-44.5 12t-47.5 3q-28 0 -44.5 -3.5t-23 -11t-8 -13t-1.5 -16.5v-156zM291 -129q0 34 22.5 56.5t55.5 22.5q37 0 59.5 -26.5t22.5 -68.5q0 -44 -27 -87t-74 -74l-43 45q33 29 49 59q-65 12 -65 73z" />
<glyph unicode="&#x157;" horiz-adv-x="460" d="M22 0v81l29 7q29 7 36.5 20t7.5 56v144q0 46 -11 62t-44 20l-18 2v81l156 29h62v-49q50 35 75.5 46.5t56.5 11.5q38 0 64 -26.5t26 -65.5q0 -33 -22.5 -54.5t-56.5 -21.5q-27 0 -50 15.5t-36 15.5q-21 0 -40 -16v-194q0 -43 7.5 -56t36.5 -20l29 -7v-81h-308zM96 -129 q0 34 22.5 56.5t55.5 22.5q37 0 59.5 -26.5t22.5 -68.5q0 -44 -27 -87t-74 -74l-43 45q33 29 49 59q-65 12 -65 73z" />
<glyph unicode="&#x158;" horiz-adv-x="780" d="M20 0v82l20 2q42 5 55 20.5t13 63.5v345q0 48 -13 63.5t-55 20.5l-20 2v82h389q67 0 117.5 -8t93 -28t64.5 -56.5t22 -89.5q0 -69 -44.5 -118t-122.5 -67l126 -163q38 -42 59 -55.5t59 -13.5v-82h-232l-216 293h-52v-125q0 -48 13 -63.5t55 -20.5l20 -2v-82h-351z M172 828l42 61l158 -49l156 49l42 -61l-200 -98zM283 388h71q85 0 116.5 30.5t31.5 70.5q0 32 -13 53.5t-37 30.5t-44.5 12t-47.5 3q-28 0 -44.5 -3.5t-23 -11t-8 -13t-1.5 -16.5v-156z" />
<glyph unicode="&#x159;" horiz-adv-x="460" d="M22 0v81l29 7q29 7 36.5 20t7.5 56v144q0 46 -11 62t-44 20l-18 2v81l156 29h62v-49q50 35 75.5 46.5t56.5 11.5q38 0 64 -26.5t26 -65.5q0 -33 -22.5 -54.5t-56.5 -21.5q-27 0 -50 15.5t-36 15.5q-21 0 -40 -16v-194q0 -43 7.5 -56t36.5 -20l29 -7v-81h-308zM58 692 l38 66l144 -53l142 53l38 -66l-180 -110z" />
<glyph unicode="&#x15a;" horiz-adv-x="660" d="M21 244l75 25q101 -185 262 -185q55 0 90.5 25t35.5 64q0 28 -20 42.5t-76 28.5l-99 25q-7 2 -33 8t-37.5 9t-36 10.5t-37 15t-32.5 19t-30.5 25t-21.5 31t-16 40.5t-5 49q0 95 72.5 156.5t185.5 61.5q93 0 160 -45l12 32h60l66 -203l-72 -27q-58 80 -104 113t-115 33 q-48 0 -79 -19.5t-31 -50.5q0 -19 16 -34.5t41.5 -25t44 -14t35.5 -7.5l91 -19q29 -6 47.5 -10t54.5 -19.5t57.5 -34.5t39 -55t17.5 -81q0 -104 -80.5 -172t-202.5 -68q-110 0 -179 51l-14 -49h-59zM225 770l116 84q50 37 92 37q31 0 54 -19.5t23 -46.5q0 -54 -88 -69 l-175 -30z" />
<glyph unicode="&#x15b;" horiz-adv-x="520" d="M22 165l77 16q37 -41 45 -48q45 -40 111 -40q37 0 62 12.5t25 29.5q0 35 -88 46l-64 8q-78 10 -119 48t-41 100q0 76 57.5 125t146.5 49q59 0 128 -33l12 24h63l19 -148l-82 -12q-56 77 -130 77q-30 0 -49.5 -11t-19.5 -28q0 -31 78 -45l75 -14q27 -5 40 -8t41 -14.5 t43 -25.5t27.5 -41t12.5 -61q0 -76 -64 -128t-157 -52q-64 0 -131 30l-12 -25h-66zM141 627l105 94q47 41 84 41q29 0 49.5 -21.5t20.5 -51.5q0 -60 -80 -77l-159 -34z" />
<glyph unicode="&#x15c;" horiz-adv-x="660" d="M21 244l75 25q101 -185 262 -185q55 0 90.5 25t35.5 64q0 28 -20 42.5t-76 28.5l-99 25q-7 2 -33 8t-37.5 9t-36 10.5t-37 15t-32.5 19t-30.5 25t-21.5 31t-16 40.5t-5 49q0 95 72.5 156.5t185.5 61.5q93 0 160 -45l12 32h60l66 -203l-72 -27q-58 80 -104 113t-115 33 q-48 0 -79 -19.5t-31 -50.5q0 -19 16 -34.5t41.5 -25t44 -14t35.5 -7.5l91 -19q29 -6 47.5 -10t54.5 -19.5t57.5 -34.5t39 -55t17.5 -81q0 -104 -80.5 -172t-202.5 -68q-110 0 -179 51l-14 -49h-59zM128 791l200 98l198 -98l-42 -61l-158 49l-156 -49z" />
<glyph unicode="&#x15d;" horiz-adv-x="520" d="M22 165l77 16q37 -41 45 -48q45 -40 111 -40q37 0 62 12.5t25 29.5q0 35 -88 46l-64 8q-78 10 -119 48t-41 100q0 76 57.5 125t146.5 49q59 0 128 -33l12 24h63l19 -148l-82 -12q-56 77 -130 77q-30 0 -49.5 -11t-19.5 -28q0 -31 78 -45l75 -14q27 -5 40 -8t41 -14.5 t43 -25.5t27.5 -41t12.5 -61q0 -76 -64 -128t-157 -52q-64 0 -131 30l-12 -25h-66zM72 649l182 109l180 -109l-38 -67l-142 54l-144 -54z" />
<glyph unicode="&#x15e;" horiz-adv-x="660" d="M21 244l75 25q101 -185 262 -185q55 0 90.5 25t35.5 64q0 28 -20 42.5t-76 28.5l-99 25q-7 2 -33 8t-37.5 9t-36 10.5t-37 15t-32.5 19t-30.5 25t-21.5 31t-16 40.5t-5 49q0 95 72.5 156.5t185.5 61.5q93 0 160 -45l12 32h60l66 -203l-72 -27q-58 80 -104 113t-115 33 q-48 0 -79 -19.5t-31 -50.5q0 -19 16 -34.5t41.5 -25t44 -14t35.5 -7.5l91 -19q29 -6 47.5 -10t54.5 -19.5t57.5 -34.5t39 -55t17.5 -81q0 -96 -70 -162.5t-180 -76.5v-32h36q34 0 57 -21.5t23 -53.5q0 -42 -43 -74.5t-95 -32.5q-43 0 -71 17t-28 43q0 16 9.5 25t24.5 9 q14 0 31 -12q21 -17 37 -17q13 0 22 12t9 33q0 41 -61 41q-20 0 -33 -2l8 66q-88 11 -138 49l-14 -49h-59z" />
<glyph unicode="&#x15f;" horiz-adv-x="520" d="M22 165l77 16q37 -41 45 -48q45 -40 111 -40q37 0 62 12.5t25 29.5q0 35 -88 46l-64 8q-78 10 -119 48t-41 100q0 76 57.5 125t146.5 49q59 0 128 -33l12 24h63l19 -148l-82 -12q-56 77 -130 77q-30 0 -49.5 -11t-19.5 -28q0 -31 78 -45l75 -14q27 -5 40 -8t41 -14.5 t43 -25.5t27.5 -41t12.5 -61q0 -69 -55 -120t-138 -59v-36h36q34 0 57 -21.5t23 -53.5q0 -42 -43 -74.5t-95 -32.5q-43 0 -71 17t-28 43q0 16 9.5 25t24.5 9q14 0 31 -12q21 -17 37 -17q13 0 22 12t9 33q0 41 -61 41q-20 0 -33 -2l8 71q-38 6 -85 27l-12 -25h-66z" />
<glyph unicode="&#x160;" horiz-adv-x="660" d="M21 244l75 25q101 -185 262 -185q55 0 90.5 25t35.5 64q0 28 -20 42.5t-76 28.5l-99 25q-7 2 -33 8t-37.5 9t-36 10.5t-37 15t-32.5 19t-30.5 25t-21.5 31t-16 40.5t-5 49q0 95 72.5 156.5t185.5 61.5q93 0 160 -45l12 32h60l66 -203l-72 -27q-58 80 -104 113t-115 33 q-48 0 -79 -19.5t-31 -50.5q0 -19 16 -34.5t41.5 -25t44 -14t35.5 -7.5l91 -19q29 -6 47.5 -10t54.5 -19.5t57.5 -34.5t39 -55t17.5 -81q0 -104 -80.5 -172t-202.5 -68q-110 0 -179 51l-14 -49h-59zM128 828l42 61l158 -49l156 49l42 -61l-200 -98z" />
<glyph unicode="&#x161;" horiz-adv-x="520" d="M22 165l77 16q37 -41 45 -48q45 -40 111 -40q37 0 62 12.5t25 29.5q0 35 -88 46l-64 8q-78 10 -119 48t-41 100q0 76 57.5 125t146.5 49q59 0 128 -33l12 24h63l19 -148l-82 -12q-56 77 -130 77q-30 0 -49.5 -11t-19.5 -28q0 -31 78 -45l75 -14q27 -5 40 -8t41 -14.5 t43 -25.5t27.5 -41t12.5 -61q0 -76 -64 -128t-157 -52q-64 0 -131 30l-12 -25h-66zM71 692l38 66l144 -53l142 53l38 -66l-180 -110z" />
<glyph unicode="&#x162;" horiz-adv-x="700" d="M-4 474l75 207h551l81 -207l-73 -29q-23 38 -42 64t-56.5 53.5t-76.5 27.5q-14 0 -17 -5.5t-3 -29.5v-387q0 -17 0.5 -26t4 -21.5t10.5 -19t20.5 -11.5t32.5 -6l30 -2v-82h-154v-44h36q34 0 57 -21.5t23 -53.5q0 -42 -43 -74.5t-95 -32.5q-43 0 -71 17t-28 43 q0 16 9.5 25t24.5 9q14 0 31 -12q21 -17 37 -17q13 0 22 12t9 33q0 41 -61 41q-20 0 -33 -2l9 77h-144v82l30 2q24 1 39 7.5t21 20.5t7 24.5t1 31.5v384q0 26 -3 32t-14 6q-50 0 -98 -40.5t-74 -104.5z" />
<glyph unicode="&#x163;" horiz-adv-x="460" d="M22 412v79q129 18 144 170h94v-159h137v-85h-137v-242q0 -39 8 -53.5t28 -14.5q19 0 37.5 11.5t51.5 43.5l60 -71q-72 -88 -176 -98v-37h36q34 0 57 -21.5t23 -53.5q0 -42 -43 -74.5t-95 -32.5q-43 0 -71 17t-28 43q0 16 9.5 25t24.5 9q14 0 31 -12q21 -17 37 -17 q13 0 22 12t9 33q0 41 -61 41q-20 0 -33 -2l8 71q-34 6 -55.5 22.5t-29.5 44.5t-10 46.5t-2 51.5v253h-76z" />
<glyph unicode="&#x164;" horiz-adv-x="700" d="M-4 474l75 207h551l81 -207l-73 -29q-23 38 -42 64t-56.5 53.5t-76.5 27.5q-14 0 -17 -5.5t-3 -29.5v-387q0 -17 0.5 -26t4 -21.5t10.5 -19t20.5 -11.5t32.5 -6l30 -2v-82h-371v82l30 2q24 1 39 7.5t21 20.5t7 24.5t1 31.5v384q0 26 -3 32t-14 6q-50 0 -98 -40.5 t-74 -104.5zM149 828l42 61l158 -49l156 49l42 -61l-200 -98z" />
<glyph unicode="&#x165;" horiz-adv-x="460" d="M22 412v79q129 18 144 170h94v-159h137v-85h-137v-242q0 -39 8 -53.5t28 -14.5q19 0 37.5 11.5t51.5 43.5l60 -71q-44 -53 -94 -76.5t-117 -23.5q-39 0 -66 11.5t-40.5 26.5t-20.5 42t-8 43t-1 45v253h-76zM280 699q0 34 22.5 56.5t55.5 22.5q37 0 59.5 -26.5t22.5 -68.5 q0 -44 -27 -87t-74 -74l-43 45q33 29 49 59q-65 12 -65 73z" />
<glyph unicode="&#x168;" horiz-adv-x="740" d="M15 599v82h351v-82l-20 -2q-42 -5 -55 -20.5t-13 -63.5v-264q0 -75 27.5 -116t98.5 -41q46 0 75.5 15t41 42.5t14.5 47.5t3 49v267q0 48 -13 63.5t-55 20.5l-20 2v82h274v-82l-20 -2q-42 -5 -55 -20.5t-13 -63.5v-262q0 -45 -4.5 -78.5t-20.5 -70.5t-43.5 -60.5 t-77.5 -39t-119 -15.5q-55 0 -99 10.5t-71.5 25.5t-47.5 39t-29 43.5t-14.5 47.5t-6 41.5t-0.5 35.5v283q0 48 -13 63.5t-55 20.5zM218 779q16 45 50 71.5t76 26.5q29 0 73 -14.5t62 -14.5q27 0 41 24l50 -25q-16 -55 -45 -80t-78 -25q-32 0 -76.5 15t-62.5 15 q-21 0 -38 -24z" />
<glyph unicode="&#x169;" horiz-adv-x="660" d="M22 392v81l173 29h62v-330q0 -43 10 -57.5t40 -14.5q45 0 109 38v170q0 46 -11 62t-44 20l-18 2v81l173 29h62v-338q0 -43 7.5 -56t36.5 -20l31 -7v-81h-220v39q-50 -29 -88 -40.5t-87 -11.5q-46 0 -79 14t-49 32t-24.5 47.5t-9.5 46t-1 42.5v139q0 46 -11 62t-44 20z M166 640q16 45 50 71.5t76 26.5q29 0 73 -14.5t62 -14.5q27 0 41 24l50 -25q-16 -55 -45 -80t-78 -25q-32 0 -76.5 15t-62.5 15q-21 0 -38 -24z" />
<glyph unicode="&#x16a;" horiz-adv-x="740" d="M15 599v82h351v-82l-20 -2q-42 -5 -55 -20.5t-13 -63.5v-264q0 -75 27.5 -116t98.5 -41q46 0 75.5 15t41 42.5t14.5 47.5t3 49v267q0 48 -13 63.5t-55 20.5l-20 2v82h274v-82l-20 -2q-42 -5 -55 -20.5t-13 -63.5v-262q0 -45 -4.5 -78.5t-20.5 -70.5t-43.5 -60.5 t-77.5 -39t-119 -15.5q-55 0 -99 10.5t-71.5 25.5t-47.5 39t-29 43.5t-14.5 47.5t-6 41.5t-0.5 35.5v283q0 48 -13 63.5t-55 20.5zM227 767v85h315v-85h-315z" />
<glyph unicode="&#x16b;" horiz-adv-x="660" d="M22 392v81l173 29h62v-330q0 -43 10 -57.5t40 -14.5q45 0 109 38v170q0 46 -11 62t-44 20l-18 2v81l173 29h62v-338q0 -43 7.5 -56t36.5 -20l31 -7v-81h-220v39q-50 -29 -88 -40.5t-87 -11.5q-46 0 -79 14t-49 32t-24.5 47.5t-9.5 46t-1 42.5v139q0 46 -11 62t-44 20z M175 628v85h315v-85h-315z" />
<glyph unicode="&#x16c;" horiz-adv-x="740" d="M15 599v82h351v-82l-20 -2q-42 -5 -55 -20.5t-13 -63.5v-264q0 -75 27.5 -116t98.5 -41q46 0 75.5 15t41 42.5t14.5 47.5t3 49v267q0 48 -13 63.5t-55 20.5l-20 2v82h274v-82l-20 -2q-42 -5 -55 -20.5t-13 -63.5v-262q0 -45 -4.5 -78.5t-20.5 -70.5t-43.5 -60.5 t-77.5 -39t-119 -15.5q-55 0 -99 10.5t-71.5 25.5t-47.5 39t-29 43.5t-14.5 47.5t-6 41.5t-0.5 35.5v283q0 48 -13 63.5t-55 20.5zM191 862l55 23q60 -54 145 -54q77 0 139 54l58 -23q-23 -56 -78.5 -92.5t-118.5 -36.5q-122 0 -200 129z" />
<glyph unicode="&#x16d;" horiz-adv-x="660" d="M22 392v81l173 29h62v-330q0 -43 10 -57.5t40 -14.5q45 0 109 38v170q0 46 -11 62t-44 20l-18 2v81l173 29h62v-338q0 -43 7.5 -56t36.5 -20l31 -7v-81h-220v39q-50 -29 -88 -40.5t-87 -11.5q-46 0 -79 14t-49 32t-24.5 47.5t-9.5 46t-1 42.5v139q0 46 -11 62t-44 20z M155 729l50 26q55 -61 132 -61q70 0 126 61l53 -26q-21 -62 -71.5 -102.5t-107.5 -40.5q-112 0 -182 143z" />
<glyph unicode="&#x16e;" horiz-adv-x="740" d="M15 599v82h351v-82l-20 -2q-42 -5 -55 -20.5t-13 -63.5v-264q0 -75 27.5 -116t98.5 -41q46 0 75.5 15t41 42.5t14.5 47.5t3 49v267q0 48 -13 63.5t-55 20.5l-20 2v82h274v-82l-20 -2q-42 -5 -55 -20.5t-13 -63.5v-262q0 -45 -4.5 -78.5t-20.5 -70.5t-43.5 -60.5 t-77.5 -39t-119 -15.5q-55 0 -99 10.5t-71.5 25.5t-47.5 39t-29 43.5t-14.5 47.5t-6 41.5t-0.5 35.5v283q0 48 -13 63.5t-55 20.5zM287 822q0 42 30.5 72t72.5 30q44 0 74 -30t30 -74q0 -41 -30.5 -70.5t-72.5 -29.5q-43 0 -73.5 30t-30.5 72zM355 823q0 -16 10.5 -27 t24.5 -11q15 0 25.5 11t10.5 26t-10.5 26t-25.5 11q-14 0 -24.5 -10.5t-10.5 -25.5z" />
<glyph unicode="&#x16f;" horiz-adv-x="660" d="M22 392v81l173 29h62v-330q0 -43 10 -57.5t40 -14.5q45 0 109 38v170q0 46 -11 62t-44 20l-18 2v81l173 29h62v-338q0 -43 7.5 -56t36.5 -20l31 -7v-81h-220v39q-50 -29 -88 -40.5t-87 -11.5q-46 0 -79 14t-49 32t-24.5 47.5t-9.5 46t-1 42.5v139q0 46 -11 62t-44 20z M235 670q0 42 30.5 72t72.5 30q44 0 74 -30t30 -74q0 -41 -30.5 -70.5t-72.5 -29.5q-43 0 -73.5 30t-30.5 72zM303 671q0 -16 10.5 -27t24.5 -11q15 0 25.5 11t10.5 26t-10.5 26t-25.5 11q-14 0 -24.5 -10.5t-10.5 -25.5z" />
<glyph unicode="&#x170;" horiz-adv-x="740" d="M15 599v82h351v-82l-20 -2q-42 -5 -55 -20.5t-13 -63.5v-264q0 -75 27.5 -116t98.5 -41q46 0 75.5 15t41 42.5t14.5 47.5t3 49v267q0 48 -13 63.5t-55 20.5l-20 2v82h274v-82l-20 -2q-42 -5 -55 -20.5t-13 -63.5v-262q0 -45 -4.5 -78.5t-20.5 -70.5t-43.5 -60.5 t-77.5 -39t-119 -15.5q-55 0 -99 10.5t-71.5 25.5t-47.5 39t-29 43.5t-14.5 47.5t-6 41.5t-0.5 35.5v283q0 48 -13 63.5t-55 20.5zM287 770l24 105q9 40 21.5 54t39.5 14q21 0 35.5 -14.5t14.5 -36.5q0 -29 -28 -57l-83 -80zM439 770l24 105q9 40 21.5 54t39.5 14 q22 0 36 -14.5t14 -37.5q0 -30 -28 -56l-83 -80z" />
<glyph unicode="&#x171;" horiz-adv-x="660" d="M22 392v81l173 29h62v-330q0 -43 10 -57.5t40 -14.5q45 0 109 38v170q0 46 -11 62t-44 20l-18 2v81l173 29h62v-338q0 -43 7.5 -56t36.5 -20l31 -7v-81h-220v39q-50 -29 -88 -40.5t-87 -11.5q-46 0 -79 14t-49 32t-24.5 47.5t-9.5 46t-1 42.5v139q0 46 -11 62t-44 20z M235 591l24 105q9 40 21.5 54t39.5 14q21 0 35.5 -14.5t14.5 -36.5q0 -29 -28 -57l-83 -80zM387 591l24 105q9 40 21.5 54t39.5 14q22 0 36 -14.5t14 -37.5q0 -30 -28 -56l-83 -80z" />
<glyph unicode="&#x172;" horiz-adv-x="740" d="M15 599v82h351v-82l-20 -2q-42 -5 -55 -20.5t-13 -63.5v-264q0 -75 27.5 -116t98.5 -41q46 0 75.5 15t41 42.5t14.5 47.5t3 49v267q0 48 -13 63.5t-55 20.5l-20 2v82h274v-82l-20 -2q-42 -5 -55 -20.5t-13 -63.5v-262q0 -42 -4.5 -74t-16.5 -66.5t-37.5 -60t-64.5 -40.5 q-36 -14 -59.5 -41t-23.5 -60q0 -25 17 -40t41 -15q33 0 74 41l38 -35q-23 -41 -63 -65.5t-87 -24.5q-64 0 -107 25.5t-43 77.5q0 65 67 114q-54 0 -97.5 11t-70.5 25.5t-46.5 39t-29 43.5t-14.5 47t-5.5 41.5t-0.5 35.5v283q0 48 -13 63.5t-55 20.5z" />
<glyph unicode="&#x173;" horiz-adv-x="660" d="M22 392v81l173 29h62v-330q0 -43 10 -57.5t40 -14.5q45 0 109 38v170q0 46 -11 62t-44 20l-18 2v81l173 29h62v-338q0 -43 7.5 -56t36.5 -20l31 -7v-81h-66q-42 0 -73 -26t-31 -65q0 -25 17 -40t41 -15q33 0 74 41l38 -35q-23 -41 -63 -65.5t-87 -24.5q-64 0 -107 25.5 t-43 77.5q0 46 32 83q22 25 48 44v39q-50 -29 -88 -40.5t-87 -11.5q-46 0 -79 14t-49 32t-24.5 47.5t-9.5 46t-1 42.5v139q0 46 -11 62t-44 20z" />
<glyph unicode="&#x174;" horiz-adv-x="940" d="M-20 599v82h301v-82q-42 -3 -42 -30q0 -11 5 -29l87 -327l78 240l-33 91q-12 32 -24.5 43t-39.5 12v82h312v-82l-24 -3q-25 -3 -35 -10t-10 -22q0 -12 4 -27l92 -331l97 328q1 5 1 15q0 48 -74 48l-13 2v82h301v-82l-16 -2q-50 -7 -69 -26.5t-42 -90.5l-156 -480h-131 l-93 311l-99 -311h-129l-164 517q-14 46 -31.5 63.5t-52.5 18.5zM257 791l200 98l198 -98l-42 -61l-158 49l-156 -49z" />
<glyph unicode="&#x175;" horiz-adv-x="800" d="M-6 421v81h269v-81l-13 -2q-40 -6 -40 -38q0 -8 3 -17l73 -187l57 181l-4 11q-11 29 -16.5 35.5t-25.5 13.5l-11 3v81h262v-81l-15 -2q-40 -5 -40 -35q0 -9 4 -20l60 -175l66 175q3 9 3 16q0 27 -43 38l-12 3v81h239v-81l-11 -2q-27 -5 -44.5 -23t-32.5 -58l-129 -338 h-121l-74 215l-75 -215h-116l-135 333q-18 45 -28.5 58.5t-38.5 25.5zM217 649l182 109l180 -109l-38 -67l-142 54l-144 -54z" />
<glyph unicode="&#x176;" horiz-adv-x="700" d="M-20 599v82h380v-82q-78 -1 -78 -22q0 -10 16 -38l82 -149l78 129q28 46 28 58q0 21 -74 22v82h306v-82q-52 -3 -86 -26.5t-73 -84.5l-129 -200v-120q0 -44 11.5 -62.5t56.5 -21.5l28 -2v-82h-367v82l28 2q45 3 56.5 22t11.5 62v108l-140 219q-36 57 -63 78.5t-72 25.5z M144 791l200 98l198 -98l-42 -61l-158 49l-156 -49z" />
<glyph unicode="&#x177;" horiz-adv-x="620" d="M6 420v82h311v-82h-11q-55 0 -55 -25q0 -4 4 -20l74 -188l71 186q4 8 4 17q0 30 -46 30h-12v82h267v-82l-12 -2q-39 -10 -58.5 -28t-41.5 -66l-172 -371q-14 -30 -23.5 -48t-28.5 -45t-38 -42.5t-49 -27t-65 -11.5q-48 0 -78 24.5t-30 63.5q0 35 22.5 58.5t56.5 23.5 t66 -29q8 -8 14 -8q9 0 30.5 29.5t37.5 63.5l-151 341q-19 42 -31 55t-40 17zM151 649l182 109l180 -109l-38 -67l-142 54l-144 -54z" />
<glyph unicode="&#x178;" horiz-adv-x="700" d="M-20 599v82h380v-82q-78 -1 -78 -22q0 -10 16 -38l82 -149l78 129q28 46 28 58q0 21 -74 22v82h306v-82q-52 -3 -86 -26.5t-73 -84.5l-129 -200v-120q0 -44 11.5 -62.5t56.5 -21.5l28 -2v-82h-367v82l28 2q45 3 56.5 22t11.5 62v108l-140 219q-36 57 -63 78.5t-72 25.5z M161 810q0 30 19.5 49.5t49.5 19.5q28 0 49 -21.5t21 -50.5q0 -27 -20.5 -47t-48.5 -20q-29 0 -49.5 20.5t-20.5 49.5zM395 810q0 30 19.5 49.5t49.5 19.5q28 0 49 -21.5t21 -50.5q0 -27 -20.5 -47t-48.5 -20q-29 0 -49.5 20.5t-20.5 49.5z" />
<glyph unicode="&#x179;" horiz-adv-x="640" d="M6 65l381 525q-44 4 -60 4q-170 0 -252 -160l-69 29l99 218h483l17 -64l-378 -523q42 -7 71 -7q121 0 191 62q46 39 72 109l74 -24l-89 -234h-524zM245 770l116 84q50 37 92 37q31 0 54 -19.5t23 -46.5q0 -54 -88 -69l-175 -30z" />
<glyph unicode="&#x17a;" horiz-adv-x="560" d="M22 81l287 329q-16 1 -30 1q-73 0 -116 -43q-18 -18 -43 -59l-80 28l60 165h396l32 -74l-287 -333q14 -2 30 -2q73 0 118.5 27.5t80.5 92.5l77 -27l-63 -186h-437zM186 627l105 94q47 41 84 41q29 0 49.5 -21.5t20.5 -51.5q0 -60 -80 -77l-159 -34z" />
<glyph unicode="&#x17b;" horiz-adv-x="640" d="M6 65l381 525q-44 4 -60 4q-170 0 -252 -160l-69 29l99 218h483l17 -64l-378 -523q42 -7 71 -7q121 0 191 62q46 39 72 109l74 -24l-89 -234h-524zM255 810q0 41 27 68t68 27q38 0 67 -29.5t29 -69.5q0 -37 -28 -64.5t-66 -27.5q-40 0 -68.5 28t-28.5 68z" />
<glyph unicode="&#x17c;" horiz-adv-x="560" d="M22 81l287 329q-16 1 -30 1q-73 0 -116 -43q-18 -18 -43 -59l-80 28l60 165h396l32 -74l-287 -333q14 -2 30 -2q73 0 118.5 27.5t80.5 92.5l77 -27l-63 -186h-437zM206 671q0 41 27 68t68 27q38 0 67 -29.5t29 -69.5q0 -37 -28 -64.5t-66 -27.5q-40 0 -68.5 28t-28.5 68z " />
<glyph unicode="&#x17d;" horiz-adv-x="640" d="M6 65l381 525q-44 4 -60 4q-170 0 -252 -160l-69 29l99 218h483l17 -64l-378 -523q42 -7 71 -7q121 0 191 62q46 39 72 109l74 -24l-89 -234h-524zM148 828l42 61l158 -49l156 49l42 -61l-200 -98z" />
<glyph unicode="&#x17e;" horiz-adv-x="560" d="M22 81l287 329q-16 1 -30 1q-73 0 -116 -43q-18 -18 -43 -59l-80 28l60 165h396l32 -74l-287 -333q14 -2 30 -2q73 0 118.5 27.5t80.5 92.5l77 -27l-63 -186h-437zM116 692l38 66l144 -53l142 53l38 -66l-180 -110z" />
<glyph unicode="&#x17f;" horiz-adv-x="380" d="M22 417v85h75v46q0 82 64.5 135t165.5 53q63 0 98.5 -21.5t35.5 -60.5q0 -29 -23.5 -49.5t-57.5 -20.5q-20 0 -32.5 8t-28.5 31q-8 11 -23 11q-37 0 -37 -59v-410q0 -43 8.5 -56t41.5 -20l33 -7v-82h-318v82l29 7q29 7 36.5 20t7.5 56v252h-75z" />
<glyph unicode="&#x18e;" horiz-adv-x="720" d="M20 236l70 33q65 -94 133.5 -136.5t154.5 -42.5q60 0 71.5 17t11.5 96v118h-28q-49 0 -71.5 -20t-31.5 -90h-78v311h78q1 -40 6 -62t19.5 -32.5t29.5 -12.5t47 -2h29v85q0 26 -1 37t-6 25t-16 19t-31 8.5t-52 3.5q-135 0 -239 -150l-68 34l99 206h577v-82l-20 -2 q-42 -5 -55 -20.5t-13 -63.5v-345q0 -48 13 -63.5t55 -20.5l20 -2v-82h-594z" />
<glyph unicode="&#x192;" horiz-adv-x="660" d="M-46 -128q0 30 27 53.5t62 23.5q34 0 56 -30q11 -16 17.5 -20.5t17.5 -4.5q29 0 42 34t37 171l55 310h-111l11 63h111l13 73q8 46 28 82.5t47.5 57.5t55 35t58 19.5t48 7.5t33.5 2q112 0 112 -71q0 -31 -27.5 -55.5t-61.5 -24.5q-20 0 -31 8t-23 30q-5 11 -21 11 q-19 0 -29.5 -13t-16.5 -44l-21 -118h155l-11 -63h-155l-49 -279q-8 -46 -13 -70.5t-17 -65.5t-25 -64t-36 -52t-51 -44t-69.5 -26t-91.5 -11q-59 0 -92.5 20t-33.5 55z" />
<glyph unicode="&#x1a0;" horiz-adv-x="800" d="M35 334q0 156 105 258t265 102q108 0 195 -49q55 16 64 36q-28 5 -48 25t-20 46q0 33 25.5 55t55.5 22q41 0 64.5 -29t23.5 -63q0 -91 -105 -135q109 -96 109 -256q0 -153 -108 -256t-269 -103q-127 0 -224 72q-133 100 -133 275zM227 338q0 -106 43 -177.5t130 -71.5 q79 0 128 70.5t49 184.5q0 117 -45.5 182.5t-125.5 65.5t-129.5 -70.5t-49.5 -183.5z" />
<glyph unicode="&#x1a1;" horiz-adv-x="638" d="M31 258q0 113 75 183t197 70q101 0 172 -46q57 18 65 37q-28 5 -48 25t-20 46q0 33 25.5 55t55.5 22q41 0 64.5 -29t23.5 -63q0 -94 -114 -139q58 -69 58 -171q0 -117 -75.5 -187t-201.5 -70q-128 0 -202.5 72t-74.5 195zM213 246q0 -158 96 -158q94 0 94 156 q0 165 -94 165q-96 0 -96 -163z" />
<glyph unicode="&#x1af;" horiz-adv-x="816" d="M15 599v82h351v-82l-20 -2q-42 -5 -55 -20.5t-13 -63.5v-264q0 -46 6.5 -71t23.5 -46q33 -40 96 -40q57 0 93 28q22 18 31.5 46.5t9.5 79.5v267q0 48 -13 63.5t-55 20.5l-20 2v82h186v-41q69 18 79 41q-28 5 -48 25t-20 46q0 33 25.5 55t55.5 22q41 0 64.5 -29t23.5 -63 q0 -67 -53.5 -105.5t-126.5 -50.5v-330q0 -85 -13 -127t-48 -74q-33 -29 -87.5 -46t-116.5 -17q-65 0 -123 19.5t-93 52.5q-30 29 -41 65.5t-11 105.5v283q0 48 -13 63.5t-55 20.5z" />
<glyph unicode="&#x1b0;" horiz-adv-x="735" d="M22 392v81l173 29h62v-330q0 -43 10 -57.5t40 -14.5q45 0 109 38v170q0 46 -11 62t-44 20l-18 2v81l173 29h62v-40q65 17 76 40q-28 5 -48 25t-20 46q0 33 25.5 55t55.5 22q41 0 64.5 -29t23.5 -63q0 -66 -52.5 -105t-124.5 -51v-238q0 -43 7.5 -56t36.5 -20l31 -7v-81 h-220v39q-50 -29 -88 -40.5t-87 -11.5q-72 0 -117 37q-26 23 -36 54t-10 91v139q0 46 -11 62t-44 20z" />
<glyph unicode="&#x1dd;" d="M31 359q20 32 35.5 52t45 46.5t71 40t93.5 13.5q118 0 195 -74t77 -188q0 -113 -74 -185.5t-189 -72.5q-72 0 -129.5 29.5t-86.5 81.5q-26 47 -26 146h324q0 75 -31 115t-90 40q-74 0 -131 -85zM220 171q1 -47 16.5 -67.5t49.5 -20.5t53.5 23t21.5 65h-141z" />
<glyph unicode="&#x1e6;" horiz-adv-x="780" d="M35 340q0 155 95 254.5t243 99.5q44 0 93.5 -12t80.5 -30l15 29h64l61 -229l-72 -25q-39 70 -69 100q-68 70 -154 70q-74 0 -119.5 -74.5t-45.5 -195.5q0 -107 48.5 -175t124.5 -68q54 0 95 36t41 83q0 64 -88 65v82h325v-82q-21 -3 -27.5 -4t-19.5 -4.5t-16 -8t-8.5 -14 t-6.5 -22.5t-1 -33v-191h-109l-23 58q-90 -62 -206 -62q-147 0 -234 101t-87 252zM174 828l42 61l158 -49l156 49l42 -61l-200 -98z" />
<glyph unicode="&#x1e7;" d="M9 -113q0 59 68 90q-50 37 -50 87q0 45 26 78t70 43q-69 52 -69 138q0 83 63 137.5t159 54.5q34 0 87 -12l4 6q4 6 7.5 10.5t10 12t13.5 14t16 14t18.5 13t21 10.5t24.5 7.5t27 2.5q33 0 55.5 -19.5t22.5 -48.5q0 -23 -18 -40t-43 -17q-9 0 -26.5 6t-28.5 6 q-18 0 -31 -12q78 -60 78 -146q0 -83 -62 -136t-160 -53q-17 0 -53.5 5.5t-44.5 5.5q-22 0 -22 -22q0 -17 15.5 -23.5t65.5 -11.5l158 -14q155 -14 155 -133q0 -25 -6.5 -48.5t-26 -50t-51 -45.5t-86.5 -31.5t-127 -12.5q-48 0 -90.5 6t-82.5 20.5t-63.5 42t-23.5 66.5z M94 692l38 66l144 -53l142 53l38 -66l-180 -110zM122 -108q0 -25 41 -41.5t103 -16.5q145 0 145 48q0 18 -16.5 26.5t-62.5 13.5l-177 19q-33 -20 -33 -49zM216 315q0 -100 68 -100t68 98q0 58 -16 84t-52 26q-35 0 -51.5 -26t-16.5 -82z" />
<glyph unicode="&#x1ea;" horiz-adv-x="800" d="M35 334q0 156 105 258t265 102q157 0 260.5 -96t103.5 -252q0 -113 -62 -202t-166 -130q-35 -13 -58 -41.5t-23 -63.5q0 -25 17 -40t41 -15q33 0 74 41l38 -35q-23 -41 -63 -65.5t-87 -24.5q-64 0 -107 25.5t-43 77.5q0 65 67 114h-5q-150 0 -253.5 95t-103.5 252z M227 338q0 -41 8 -81t26 -79.5t54 -64t85 -24.5q79 0 128 70.5t49 184.5q0 117 -45.5 182.5t-125.5 65.5t-129.5 -70.5t-49.5 -183.5z" />
<glyph unicode="&#x1eb;" horiz-adv-x="620" d="M31 258q0 113 75 183t197 70q129 0 205.5 -71t76.5 -192q0 -87 -43 -149.5t-120 -89.5q-36 -13 -59 -39.5t-23 -60.5q0 -25 17 -40t41 -15q33 0 74 41l38 -35q-23 -41 -63 -65.5t-87 -24.5q-64 0 -107 25.5t-43 77.5q0 68 73 119q-117 7 -184.5 78t-67.5 188zM213 246 q0 -158 96 -158q94 0 94 156q0 165 -94 165q-96 0 -96 -163z" />
<glyph unicode="&#x1f4;" horiz-adv-x="780" d="M35 340q0 155 95 254.5t243 99.5q44 0 93.5 -12t80.5 -30l15 29h64l61 -229l-72 -25q-39 70 -69 100q-68 70 -154 70q-74 0 -119.5 -74.5t-45.5 -195.5q0 -107 48.5 -175t124.5 -68q54 0 95 36t41 83q0 64 -88 65v82h325v-82q-21 -3 -27.5 -4t-19.5 -4.5t-16 -8t-8.5 -14 t-6.5 -22.5t-1 -33v-191h-109l-23 58q-90 -62 -206 -62q-147 0 -234 101t-87 252zM271 770l116 84q50 37 92 37q31 0 54 -19.5t23 -46.5q0 -54 -88 -69l-175 -30z" />
<glyph unicode="&#x1f5;" d="M9 -113q0 59 68 90q-50 37 -50 87q0 45 26 78t70 43q-69 52 -69 138q0 83 63 137.5t159 54.5q34 0 87 -12l4 6q4 6 7.5 10.5t10 12t13.5 14t16 14t18.5 13t21 10.5t24.5 7.5t27 2.5q33 0 55.5 -19.5t22.5 -48.5q0 -23 -18 -40t-43 -17q-9 0 -26.5 6t-28.5 6 q-18 0 -31 -12q78 -60 78 -146q0 -83 -62 -136t-160 -53q-17 0 -53.5 5.5t-44.5 5.5q-22 0 -22 -22q0 -17 15.5 -23.5t65.5 -11.5l158 -14q155 -14 155 -133q0 -25 -6.5 -48.5t-26 -50t-51 -45.5t-86.5 -31.5t-127 -12.5q-48 0 -90.5 6t-82.5 20.5t-63.5 42t-23.5 66.5z M122 -108q0 -25 41 -41.5t103 -16.5q145 0 145 48q0 18 -16.5 26.5t-62.5 13.5l-177 19q-33 -20 -33 -49zM164 627l105 94q47 41 84 41q29 0 49.5 -21.5t20.5 -51.5q0 -60 -80 -77l-159 -34zM216 315q0 -100 68 -100t68 98q0 58 -16 84t-52 26q-35 0 -51.5 -26t-16.5 -82z " />
<glyph unicode="&#x1fa;" horiz-adv-x="720" d="M-34 0v82l16 2q42 5 65 29t52 93l198 475h155l196 -488q31 -65 46.5 -83.5t52.5 -25.5l16 -2v-82h-365v82l25 2q32 2 45 9.5t13 22.5q-1 15 -10 41l-30 85h-215l-32 -86q-9 -23 -9 -30q0 -20 17 -28.5t57 -13.5l16 -2v-82h-309zM258 327h150l-74 195zM273 822 q0 42 30.5 72t72.5 30q44 0 74 -30t30 -74q0 -41 -30.5 -70.5t-72.5 -29.5q-43 0 -73.5 30t-30.5 72zM273 988l116 84q50 37 92 37q31 0 54 -19.5t23 -46.5q0 -54 -88 -69l-175 -30zM341 823q0 -16 10.5 -27t24.5 -11q15 0 25.5 11t10.5 26t-10.5 26t-25.5 11 q-14 0 -24.5 -10.5t-10.5 -25.5z" />
<glyph unicode="&#x1fb;" d="M28 128q0 114 150 159q65 20 146 27v51q0 54 -63 54q-24 0 -44 -10t-20 -34q0 -33 -14 -50q-22 -27 -63 -27q-31 0 -52.5 21.5t-21.5 53.5q0 60 62.5 99t159.5 39q218 0 218 -165v-197q0 -56 21 -56q8 0 25 17l56 -68q-64 -51 -127 -51q-34 0 -65.5 14t-49.5 37 q-75 -51 -159 -51q-71 0 -115 38t-44 99zM166 643q0 42 30.5 72t72.5 30q43 0 73.5 -30.5t30.5 -73.5q0 -41 -30.5 -70.5t-72.5 -29.5q-43 0 -73.5 30t-30.5 72zM166 809l116 84q50 37 92 37q32 0 54.5 -19.5t22.5 -46.5q0 -54 -88 -69l-175 -30zM198 149q0 -22 13 -36 t34 -14q41 0 79 35v100q-126 -23 -126 -85zM234 644q0 -16 10.5 -27t24.5 -11q15 0 25.5 11t10.5 26t-10.5 26t-25.5 11q-14 0 -24.5 -10.5t-10.5 -25.5z" />
<glyph unicode="&#x1fc;" horiz-adv-x="1140" d="M-34 0v82l15 3q55 14 88 36t76 72l377 488h498l99 -193l-70 -36q-61 83 -121 114t-159 31q-44 0 -58 -15t-14 -62v-107h31q57 0 77.5 25t22.5 95h79v-340h-79q-2 68 -23.5 94.5t-75.5 26.5q-16 0 -32 -1v-152q0 -41 16.5 -54t69.5 -13q91 0 156.5 40t139.5 140l70 -26 l-110 -248h-596v82l20 2q42 5 55 20.5t13 63.5v80h-219l-74 -98q-14 -18 -14 -34q0 -34 73 -34h15v-82h-346zM373 333h158v200zM512 770l116 84q50 37 92 37q32 0 54.5 -19.5t22.5 -46.5q0 -54 -88 -69l-175 -30z" />
<glyph unicode="&#x1fd;" horiz-adv-x="880" d="M28 133q0 82 84.5 127.5t243.5 49.5q0 30 -1.5 46.5t-8.5 34t-23 25t-42 7.5q-38 0 -56 -18q-11 -11 -22 -51q-7 -25 -27 -39.5t-47 -14.5q-33 0 -53 19.5t-20 51.5q0 62 63.5 101t163.5 39t166 -44q73 44 155 44q107 0 174 -62t67 -161q0 -16 -2 -51h-332 q10 -138 125 -138q77 0 134 86l82 -42q-32 -72 -97.5 -112t-150.5 -40q-111 0 -200 82q-73 -82 -195 -82q-82 0 -131.5 38.5t-49.5 103.5zM198 139q0 -23 16 -36.5t43 -13.5q43 0 70.5 38t27.5 97h-7q-61 0 -105.5 -24.5t-44.5 -60.5zM328 627l105 94q47 41 84 41 q29 0 49.5 -21.5t20.5 -51.5q0 -60 -80 -77l-159 -34zM516 314h159v16q0 41 -19.5 67t-53.5 26q-74 0 -86 -109z" />
<glyph unicode="&#x1fe;" horiz-adv-x="800" d="M35 341q0 151 102.5 252t257.5 101q68 0 126 -16l52 101h84l-66 -125q26 -16 46 -31t47 -42.5t44.5 -58.5t30 -76.5t12.5 -98.5q0 -155 -101 -257.5t-254 -102.5q-85 0 -148 20l-56 -117h-87l73 146q-74 40 -118.5 123t-44.5 182zM217 337q0 -108 48 -178l207 421 q-34 17 -66 17q-63 0 -107.5 -40t-63 -97t-18.5 -123zM298 770l116 84q50 37 92 37q32 0 54.5 -19.5t22.5 -46.5q0 -54 -88 -69l-175 -30zM320 105q38 -21 84 -21q85 0 135 71t50 192q0 122 -56 189z" />
<glyph unicode="&#x1ff;" horiz-adv-x="620" d="M31 255q0 117 73.5 186.5t197.5 69.5q71 0 130 -22l37 57h81l-58 -88q94 -72 94 -206q0 -117 -75.5 -189t-198.5 -72q-69 0 -120 20l-32 -51h-82l52 81q-99 73 -99 214zM198 627l105 94q47 41 84 41q29 0 49.5 -21.5t20.5 -51.5q0 -60 -80 -77l-159 -34zM213 245 q0 -31 8 -78l145 225q-29 22 -57 22q-96 0 -96 -169zM259 105q23 -12 47 -12q98 0 98 154q0 36 -5 76z" />
<glyph unicode="&#x200;" horiz-adv-x="720" d="M-34 0v82l16 2q42 5 65 29t52 93l198 475h155l196 -488q31 -65 46.5 -83.5t52.5 -25.5l16 -2v-82h-365v82l25 2q32 2 45 9.5t13 22.5q-1 15 -10 41l-30 85h-215l-32 -86q-9 -23 -9 -30q0 -20 17 -28.5t57 -13.5l16 -2v-82h-309zM190 891q0 23 14 37.5t36 14.5 q27 0 39.5 -14t21.5 -54l24 -105l-24 -15l-83 80q-28 26 -28 56zM258 327h150l-74 195zM342 892q0 22 14.5 36.5t35.5 14.5q27 0 39.5 -14t21.5 -54l24 -105l-24 -15l-83 80q-28 28 -28 57z" />
<glyph unicode="&#x201;" d="M28 128q0 114 150 159q65 20 146 27v51q0 54 -63 54q-24 0 -44 -10t-20 -34q0 -33 -14 -50q-22 -27 -63 -27q-31 0 -52.5 21.5t-21.5 53.5q0 60 62.5 99t159.5 39q218 0 218 -165v-197q0 -56 21 -56q8 0 25 17l56 -68q-64 -51 -127 -51q-34 0 -65.5 14t-49.5 37 q-75 -51 -159 -51q-71 0 -115 38t-44 99zM83 712q0 23 14 37.5t36 14.5q27 0 39.5 -14t21.5 -54l24 -105l-24 -15l-83 80q-28 26 -28 56zM198 149q0 -22 13 -36t34 -14q41 0 79 35v100q-126 -23 -126 -85zM235 713q0 22 14.5 36.5t35.5 14.5q27 0 39.5 -14t21.5 -54l24 -105 l-24 -15l-83 80q-28 28 -28 57z" />
<glyph unicode="&#x204;" horiz-adv-x="720" d="M20 0v82l20 2q42 5 55 20.5t13 63.5v345q0 48 -13 63.5t-55 20.5l-20 2v82h577l99 -206l-68 -34q-104 150 -239 150q-32 0 -52 -3.5t-31 -8.5t-16 -19t-6 -25t-1 -37v-85h29q32 0 47 2t29.5 12.5t19.5 32.5t6 62h78v-311h-78q-9 70 -31.5 90t-71.5 20h-28v-118 q0 -79 11.5 -96t71.5 -17q86 0 154.5 42.5t133.5 136.5l70 -33l-110 -236h-594zM132 891q0 23 14 37.5t36 14.5q27 0 39.5 -14t21.5 -54l24 -105l-24 -15l-83 80q-28 26 -28 56zM284 892q0 22 14.5 36.5t35.5 14.5q27 0 39.5 -14t21.5 -54l24 -105l-24 -15l-83 80 q-28 28 -28 57z" />
<glyph unicode="&#x205;" d="M31 253q0 113 74 185.5t189 72.5q72 0 129.5 -29.5t86.5 -81.5q26 -47 26 -146h-324q0 -75 31 -115t90 -40q74 0 131 85l84 -41q-20 -32 -35.5 -52t-45 -46.5t-71 -40t-93.5 -13.5q-118 0 -195 74t-77 188zM109 712q0 23 14 37.5t36 14.5q27 0 39.5 -14t21.5 -54l24 -105 l-24 -15l-83 80q-28 26 -28 56zM218 331h141q-1 47 -16.5 67.5t-49.5 20.5t-53.5 -23t-21.5 -65zM261 713q0 22 14.5 36.5t35.5 14.5q27 0 39.5 -14t21.5 -54l24 -105l-24 -15l-83 80q-28 28 -28 57z" />
<glyph unicode="&#x208;" horiz-adv-x="400" d="M15 891q0 23 14 37.5t36 14.5q27 0 39.5 -14t21.5 -54l24 -105l-24 -15l-83 80q-28 26 -28 56zM20 0v82l24 2q45 4 56.5 22.5t11.5 61.5v345q0 45 -11.5 63t-56.5 21l-24 2v82h359v-82l-24 -2q-45 -4 -56.5 -22.5t-11.5 -61.5v-345q0 -45 11.5 -63t56.5 -21l24 -2v-82 h-359zM167 892q0 22 14.5 36.5t35.5 14.5q27 0 39.5 -14t21.5 -54l24 -105l-24 -15l-83 80q-28 28 -28 57z" />
<glyph unicode="&#x209;" horiz-adv-x="360" d="M-6 712q0 23 14 37.5t36 14.5q27 0 39.5 -14t21.5 -54l24 -105l-24 -15l-83 80q-28 26 -28 56zM22 0v81l32 7q28 6 36 19.5t8 56.5v144q0 46 -11.5 62.5t-43.5 19.5l-21 2v81l176 29h62v-338q0 -43 7.5 -56t36.5 -20l31 -7v-81h-313zM146 713q0 22 14.5 36.5t35.5 14.5 q27 0 39.5 -14t21.5 -54l24 -105l-24 -15l-83 80q-28 28 -28 57z" />
<glyph unicode="&#x20c;" horiz-adv-x="800" d="M35 334q0 156 105 258t265 102q157 0 260.5 -96t103.5 -252q0 -153 -108 -256t-269 -103q-150 0 -253.5 95t-103.5 252zM220 891q0 23 14 37.5t36 14.5q27 0 39.5 -14t21.5 -54l24 -105l-24 -15l-83 80q-28 26 -28 56zM227 338q0 -41 8 -81t26 -79.5t54 -64t85 -24.5 q79 0 128 70.5t49 184.5q0 117 -45.5 182.5t-125.5 65.5t-129.5 -70.5t-49.5 -183.5zM372 892q0 22 14.5 36.5t35.5 14.5q27 0 39.5 -14t21.5 -54l24 -105l-24 -15l-83 80q-28 28 -28 57z" />
<glyph unicode="&#x20d;" horiz-adv-x="620" d="M31 258q0 113 75 183t197 70q129 0 205.5 -71t76.5 -192q0 -117 -75.5 -187t-201.5 -70q-128 0 -202.5 72t-74.5 195zM118 712q0 23 14 37.5t36 14.5q27 0 39.5 -14t21.5 -54l24 -105l-24 -15l-83 80q-28 26 -28 56zM213 246q0 -158 96 -158q94 0 94 156q0 165 -94 165 q-96 0 -96 -163zM270 713q0 22 14.5 36.5t35.5 14.5q27 0 39.5 -14t21.5 -54l24 -105l-24 -15l-83 80q-28 28 -28 57z" />
<glyph unicode="&#x210;" horiz-adv-x="780" d="M20 0v82l20 2q42 5 55 20.5t13 63.5v345q0 48 -13 63.5t-55 20.5l-20 2v82h389q67 0 117.5 -8t93 -28t64.5 -56.5t22 -89.5q0 -69 -44.5 -118t-122.5 -67l126 -163q38 -42 59 -55.5t59 -13.5v-82h-232l-216 293h-52v-125q0 -48 13 -63.5t55 -20.5l20 -2v-82h-351z M186 891q0 23 14 37.5t36 14.5q27 0 39.5 -14t21.5 -54l24 -105l-24 -15l-83 80q-28 26 -28 56zM283 388h71q85 0 116.5 30.5t31.5 70.5q0 32 -13 53.5t-37 30.5t-44.5 12t-47.5 3q-28 0 -44.5 -3.5t-23 -11t-8 -13t-1.5 -16.5v-156zM338 892q0 22 14.5 36.5t35.5 14.5 q27 0 39.5 -14t21.5 -54l24 -105l-24 -15l-83 80q-28 28 -28 57z" />
<glyph unicode="&#x211;" horiz-adv-x="460" d="M22 0v81l29 7q29 7 36.5 20t7.5 56v144q0 46 -11 62t-44 20l-18 2v81l156 29h62v-49q50 35 75.5 46.5t56.5 11.5q38 0 64 -26.5t26 -65.5q0 -33 -22.5 -54.5t-56.5 -21.5q-27 0 -50 15.5t-36 15.5q-21 0 -40 -16v-194q0 -43 7.5 -56t36.5 -20l29 -7v-81h-308zM55 712 q0 23 14 37.5t36 14.5q27 0 39.5 -14t21.5 -54l24 -105l-24 -15l-83 80q-28 26 -28 56zM207 713q0 22 14.5 36.5t35.5 14.5q27 0 39.5 -14t21.5 -54l24 -105l-24 -15l-83 80q-28 28 -28 57z" />
<glyph unicode="&#x214;" horiz-adv-x="740" d="M15 599v82h351v-82l-20 -2q-42 -5 -55 -20.5t-13 -63.5v-264q0 -75 27.5 -116t98.5 -41q46 0 75.5 15t41 42.5t14.5 47.5t3 49v267q0 48 -13 63.5t-55 20.5l-20 2v82h274v-82l-20 -2q-42 -5 -55 -20.5t-13 -63.5v-262q0 -45 -4.5 -78.5t-20.5 -70.5t-43.5 -60.5 t-77.5 -39t-119 -15.5q-55 0 -99 10.5t-71.5 25.5t-47.5 39t-29 43.5t-14.5 47.5t-6 41.5t-0.5 35.5v283q0 48 -13 63.5t-55 20.5zM204 891q0 23 14 37.5t36 14.5q27 0 39.5 -14t21.5 -54l24 -105l-24 -15l-83 80q-28 26 -28 56zM356 892q0 22 14.5 36.5t35.5 14.5 q27 0 39.5 -14t21.5 -54l24 -105l-24 -15l-83 80q-28 28 -28 57z" />
<glyph unicode="&#x215;" horiz-adv-x="660" d="M22 392v81l173 29h62v-330q0 -43 10 -57.5t40 -14.5q45 0 109 38v170q0 46 -11 62t-44 20l-18 2v81l173 29h62v-338q0 -43 7.5 -56t36.5 -20l31 -7v-81h-220v39q-50 -29 -88 -40.5t-87 -11.5q-46 0 -79 14t-49 32t-24.5 47.5t-9.5 46t-1 42.5v139q0 46 -11 62t-44 20z M152 712q0 23 14 37.5t36 14.5q27 0 39.5 -14t21.5 -54l24 -105l-24 -15l-83 80q-28 26 -28 56zM304 713q0 22 14.5 36.5t35.5 14.5q27 0 39.5 -14t21.5 -54l24 -105l-24 -15l-83 80q-28 28 -28 57z" />
<glyph unicode="&#x218;" horiz-adv-x="660" d="M21 244l75 25q101 -185 262 -185q55 0 90.5 25t35.5 64q0 28 -20 42.5t-76 28.5l-99 25q-7 2 -33 8t-37.5 9t-36 10.5t-37 15t-32.5 19t-30.5 25t-21.5 31t-16 40.5t-5 49q0 95 72.5 156.5t185.5 61.5q93 0 160 -45l12 32h60l66 -203l-72 -27q-58 80 -104 113t-115 33 q-48 0 -79 -19.5t-31 -50.5q0 -19 16 -34.5t41.5 -25t44 -14t35.5 -7.5l91 -19q29 -6 47.5 -10t54.5 -19.5t57.5 -34.5t39 -55t17.5 -81q0 -104 -80.5 -172t-202.5 -68q-110 0 -179 51l-14 -49h-59zM247 -129q0 34 22.5 56.5t55.5 22.5q37 0 59.5 -26.5t22.5 -68.5 q0 -44 -27 -87t-74 -74l-43 45q33 29 49 59q-65 12 -65 73z" />
<glyph unicode="&#x219;" horiz-adv-x="520" d="M22 165l77 16q37 -41 45 -48q45 -40 111 -40q37 0 62 12.5t25 29.5q0 35 -88 46l-64 8q-78 10 -119 48t-41 100q0 76 57.5 125t146.5 49q59 0 128 -33l12 24h63l19 -148l-82 -12q-56 77 -130 77q-30 0 -49.5 -11t-19.5 -28q0 -31 78 -45l75 -14q27 -5 40 -8t41 -14.5 t43 -25.5t27.5 -41t12.5 -61q0 -76 -64 -128t-157 -52q-64 0 -131 30l-12 -25h-66zM173 -129q0 34 22.5 56.5t55.5 22.5q37 0 59.5 -26.5t22.5 -68.5q0 -44 -27 -87t-74 -74l-43 45q33 29 49 59q-65 12 -65 73z" />
<glyph unicode="&#x21a;" horiz-adv-x="700" d="M-4 474l75 207h551l81 -207l-73 -29q-23 38 -42 64t-56.5 53.5t-76.5 27.5q-14 0 -17 -5.5t-3 -29.5v-387q0 -17 0.5 -26t4 -21.5t10.5 -19t20.5 -11.5t32.5 -6l30 -2v-82h-371v82l30 2q24 1 39 7.5t21 20.5t7 24.5t1 31.5v384q0 26 -3 32t-14 6q-50 0 -98 -40.5 t-74 -104.5zM268 -129q0 34 22.5 56.5t55.5 22.5q37 0 59.5 -26.5t22.5 -68.5q0 -44 -27 -87t-74 -74l-43 45q33 29 49 59q-65 12 -65 73z" />
<glyph unicode="&#x21b;" horiz-adv-x="460" d="M22 412v79q129 18 144 170h94v-159h137v-85h-137v-242q0 -39 8 -53.5t28 -14.5q19 0 37.5 11.5t51.5 43.5l60 -71q-44 -53 -94 -76.5t-117 -23.5q-39 0 -66 11.5t-40.5 26.5t-20.5 42t-8 43t-1 45v253h-76zM180 -129q0 34 22.5 56.5t55.5 22.5q37 0 59.5 -26.5 t22.5 -68.5q0 -44 -27 -87t-74 -74l-43 45q33 29 49 59q-65 12 -65 73z" />
<glyph unicode="&#x258;" d="M31 143l84 41q57 -85 131 -85q59 0 90 40t31 115h-324q0 99 26 146q29 52 86.5 81.5t129.5 29.5q115 0 189 -72.5t74 -185.5q0 -114 -77 -188t-195 -74q-52 0 -93.5 13.5t-71 40t-45 46.5t-35.5 52zM220 331h141q-2 42 -21.5 65t-53.5 23t-49.5 -20.5t-16.5 -67.5z" />
<glyph unicode="&#x259;" d="M31 359q20 32 35.5 52t45 46.5t71 40t93.5 13.5q118 0 195 -74t77 -188q0 -113 -74 -185.5t-189 -72.5q-72 0 -129.5 29.5t-86.5 81.5q-26 47 -26 146h324q0 75 -31 115t-90 40q-74 0 -131 -85zM220 171q1 -47 16.5 -67.5t49.5 -20.5t53.5 23t21.5 65h-141z" />
<glyph unicode="&#x2be;" horiz-adv-x="442" d="M41 562q20 50 66.5 78.5t108.5 28.5q83 0 134.5 -50.5t51.5 -131.5q0 -82 -52 -131.5t-139 -49.5q-66 0 -111 31t-45 75q0 27 18.5 45t45.5 18q25 0 44 -17t19 -37v-19q0 -8 8.5 -13.5t20.5 -5.5q56 0 56 98q0 48 -19 77.5t-52 29.5q-53 0 -87 -61q-3 -7 -11 -3l-54 28 q-7 2 -3 10z" />
<glyph unicode="&#x2bf;" horiz-adv-x="442" d="M40 488q0 82 52 131.5t139 49.5q66 0 111 -31t45 -75q0 -27 -18.5 -45t-45.5 -18q-25 0 -44 17t-19 37v19q0 8 -8.5 13.5t-20.5 5.5q-56 0 -56 -98q0 -48 19 -77.5t52 -29.5q53 0 87 61q3 7 11 3l54 -28q7 -2 3 -10q-20 -50 -66.5 -78.5t-108.5 -28.5q-83 0 -134.5 50.5 t-51.5 131.5z" />
<glyph unicode="&#x2c6;" horiz-adv-x="500" d="M69 649l182 109l180 -109l-38 -67l-142 54l-144 -54z" />
<glyph unicode="&#x2c7;" horiz-adv-x="500" d="M68 692l38 66l144 -53l142 53l38 -66l-180 -110z" />
<glyph unicode="&#x2d8;" horiz-adv-x="500" d="M68 729l50 26q55 -61 132 -61q70 0 126 61l53 -26q-21 -62 -71.5 -102.5t-107.5 -40.5q-112 0 -182 143z" />
<glyph unicode="&#x2d9;" horiz-adv-x="320" d="M68 671q0 41 27 68t68 27q38 0 67 -29.5t29 -69.5q0 -37 -28 -64.5t-66 -27.5q-40 0 -68.5 28t-28.5 68z" />
<glyph unicode="&#x2da;" horiz-adv-x="340" d="M68 670q0 42 30.5 72t72.5 30q43 0 73.5 -30t30.5 -74q0 -41 -30.5 -70.5t-72.5 -29.5q-43 0 -73.5 30t-30.5 72zM136 671q0 -16 10.5 -27t24.5 -11q15 0 25.5 11t10.5 26t-10.5 26t-25.5 11q-14 0 -24.5 -10.5t-10.5 -25.5z" />
<glyph unicode="&#x2db;" horiz-adv-x="320" d="M30 -127q0 46 27.5 77.5t74.5 59.5h98q-35 -16 -52.5 -39t-17.5 -62q0 -25 17 -40t41 -15q33 0 74 41l38 -35q-23 -41 -63 -65.5t-87 -24.5q-64 0 -107 25.5t-43 77.5z" />
<glyph unicode="&#x2dc;" horiz-adv-x="480" d="M69 640q16 45 50 71.5t76 26.5q29 0 73 -14.5t62 -14.5q27 0 41 24l50 -25q-16 -55 -45 -80t-78 -25q-32 0 -76.5 15t-62.5 15q-21 0 -38 -24z" />
<glyph unicode="&#x2dd;" horiz-adv-x="440" d="M118 591l24 105q9 40 21.5 54t39.5 14q21 0 35.5 -14.5t14.5 -36.5q0 -29 -28 -57l-83 -80zM270 591l24 105q9 40 21.5 54t39.5 14q22 0 36 -14.5t14 -37.5q0 -30 -28 -56l-83 -80z" />
<glyph unicode="&#x300;" horiz-adv-x="0" d="M-437 689q0 30 20.5 51.5t49.5 21.5q37 0 84 -41l105 -94l-20 -49l-159 34q-80 17 -80 77z" />
<glyph unicode="&#x301;" horiz-adv-x="0" d="M-402 627l105 94q47 41 84 41q29 0 49.5 -21.5t20.5 -51.5q0 -60 -80 -77l-159 -34z" />
<glyph unicode="&#x302;" horiz-adv-x="0" d="M-471 649l182 109l180 -109l-38 -67l-142 54l-144 -54z" />
<glyph unicode="&#x303;" horiz-adv-x="0" d="M-461 640q16 45 50 71.5t76 26.5q29 0 73 -14.5t62 -14.5q27 0 41 24l50 -25q-16 -55 -45 -80t-78 -25q-32 0 -76.5 15t-62.5 15q-21 0 -38 -24z" />
<glyph unicode="&#x304;" horiz-adv-x="0" d="M-452 628v85h315v-85h-315z" />
<glyph unicode="&#x306;" horiz-adv-x="0" d="M-472 729l50 26q55 -61 132 -61q70 0 126 61l53 -26q-21 -62 -71.5 -102.5t-107.5 -40.5q-112 0 -182 143z" />
<glyph unicode="&#x307;" horiz-adv-x="0" d="M-382 671q0 41 27 68t68 27q38 0 67 -29.5t29 -69.5q0 -37 -28 -64.5t-66 -27.5q-40 0 -68.5 28t-28.5 68z" />
<glyph unicode="&#x308;" horiz-adv-x="0" d="M-472 671q0 30 19.5 49.5t49.5 19.5q28 0 49 -21.5t21 -50.5q0 -27 -20.5 -47t-48.5 -20q-29 0 -49.5 20.5t-20.5 49.5zM-238 671q0 30 19.5 49.5t49.5 19.5q28 0 49 -21.5t21 -50.5q0 -27 -20.5 -47t-48.5 -20q-29 0 -49.5 20.5t-20.5 49.5z" />
<glyph unicode="&#x309;" horiz-adv-x="0" d="M-421 696q0 42 40.5 70t101.5 28q66 0 103.5 -26.5t37.5 -73.5q0 -66 -70 -96q-22 -10 -29 -17.5t-7 -23.5v-11h-62q-2 12 -2 23q0 29 8 44t37 38v-1q22 18 22 43q0 20 -12.5 32t-33.5 12q-17 0 -30 -5.5t-13 -13.5q0 -1 1.5 -3t3 -8.5t1.5 -18.5q0 -19 -13 -31.5 t-34 -12.5q-23 0 -36.5 14t-13.5 38z" />
<glyph unicode="&#x30a;" horiz-adv-x="0" d="M-392 670q0 42 30.5 72t72.5 30q43 0 73.5 -30t30.5 -74q0 -41 -30.5 -70.5t-72.5 -29.5q-43 0 -73.5 30t-30.5 72zM-324 671q0 -16 10.5 -27t24.5 -11q15 0 25.5 11t10.5 26t-10.5 26t-25.5 11q-14 0 -24.5 -10.5t-10.5 -25.5z" />
<glyph unicode="&#x30b;" horiz-adv-x="0" d="M-392 591l24 105q9 40 21.5 54t39.5 14q21 0 35.5 -14.5t14.5 -36.5q0 -29 -28 -57l-83 -80zM-240 591l24 105q9 40 21.5 54t39.5 14q22 0 36 -14.5t14 -37.5q0 -30 -28 -56l-83 -80z" />
<glyph unicode="&#x30c;" horiz-adv-x="0" d="M-472 692l38 66l144 -53l142 53l38 -66l-180 -110z" />
<glyph unicode="&#x30f;" horiz-adv-x="0" d="M-475 712q0 23 14 37.5t36 14.5q27 0 39.5 -14t21.5 -54l24 -105l-24 -15l-83 80q-28 26 -28 56zM-323 713q0 22 14.5 36.5t35.5 14.5q27 0 39.5 -14t21.5 -54l24 -105l-24 -15l-83 80q-28 28 -28 57z" />
<glyph unicode="&#x311;" horiz-adv-x="0" d="M-472 612q21 62 71.5 102.5t107.5 40.5q112 0 182 -143l-50 -26q-55 61 -132 61q-70 0 -126 -61z" />
<glyph unicode="&#x323;" horiz-adv-x="0" d="M-382 -159q0 41 27 68t68 27q38 0 67 -29.5t29 -69.5q0 -37 -28 -64.5t-66 -27.5q-40 0 -68.5 28t-28.5 68z" />
<glyph unicode="&#x326;" horiz-adv-x="0" d="M-370 -129q0 34 22.5 56.5t55.5 22.5q37 0 59.5 -26.5t22.5 -68.5q0 -44 -27 -87t-74 -74l-43 45q33 29 49 59q-65 12 -65 73z" />
<glyph unicode="&#x32e;" horiz-adv-x="0" d="M-488 -107l55 23q60 -54 145 -54q77 0 139 54l58 -23q-23 -56 -78.5 -92.5t-118.5 -36.5q-122 0 -200 129z" />
<glyph unicode="&#x32f;" horiz-adv-x="0" d="M-488 -213q23 56 78.5 92.5t118.5 36.5q122 0 200 -129l-55 -23q-60 54 -145 54q-77 0 -139 -54z" />
<glyph unicode="&#x330;" horiz-adv-x="0" d="M-461 -190q16 45 50 71.5t76 26.5q29 0 73 -14.5t62 -14.5q27 0 41 24l50 -25q-16 -55 -45 -80t-78 -25q-32 0 -76.5 15t-62.5 15q-21 0 -38 -24z" />
<glyph unicode="&#x331;" horiz-adv-x="0" d="M-452 -117h315v-85h-315v85z" />
<glyph unicode="&#x332;" horiz-adv-x="0" d="M-452 -117h315v-85h-315v85z" />
<glyph unicode="&#x391;" horiz-adv-x="720" d="M-34 0v82l16 2q42 5 65 29t52 93l198 475h155l196 -488q31 -65 46.5 -83.5t52.5 -25.5l16 -2v-82h-365v82l25 2q32 2 45 9.5t13 22.5q-1 15 -10 41l-30 85h-215l-32 -86q-9 -23 -9 -30q0 -20 17 -28.5t57 -13.5l16 -2v-82h-309zM258 327h150l-74 195z" />
<glyph unicode="&#x392;" horiz-adv-x="720" d="M20 0v82l20 2q42 5 55 20.5t13 63.5v345q0 48 -13 63.5t-55 20.5l-20 2v82h380q78 0 133 -13t92.5 -52.5t37.5 -105.5q0 -46 -25.5 -84t-70.5 -60q61 -20 93.5 -62.5t32.5 -103.5q0 -54 -19.5 -93t-46.5 -59t-68.5 -31.5t-71 -14t-67.5 -2.5h-400zM283 140 q0 -26 16 -38.5t71 -12.5q66 0 103.5 32t37.5 89t-34 82.5t-111 25.5h-83v-178zM283 410h80q62 0 96 22.5t34 62.5q0 43 -33.5 67t-94.5 24q-39 0 -57.5 -7.5t-21.5 -16t-3 -28.5v-124z" />
<glyph unicode="&#x393;" horiz-adv-x="680" d="M20 0v82l20 2q42 5 55 20.5t13 63.5v345q0 48 -13 63.5t-55 20.5l-20 2v82h571l95 -205l-69 -35q-58 79 -115 112t-135 33q-59 0 -71.5 -15.5t-12.5 -69.5v-333q0 -44 11.5 -62t56.5 -22l27 -2v-82h-358z" />
<glyph unicode="&#x394;" horiz-adv-x="852" d="M36 0v99l329 582h159l292 -582v-99h-780zM152 90h446l-207 425z" />
<glyph unicode="&#x395;" horiz-adv-x="720" d="M20 0v82l20 2q42 5 55 20.5t13 63.5v345q0 48 -13 63.5t-55 20.5l-20 2v82h577l99 -206l-68 -34q-104 150 -239 150q-32 0 -52 -3.5t-31 -8.5t-16 -19t-6 -25t-1 -37v-85h29q32 0 47 2t29.5 12.5t19.5 32.5t6 62h78v-311h-78q-9 70 -31.5 90t-71.5 20h-28v-118 q0 -79 11.5 -96t71.5 -17q86 0 154.5 42.5t133.5 136.5l70 -33l-110 -236h-594z" />
<glyph unicode="&#x396;" horiz-adv-x="640" d="M6 65l381 525q-44 4 -60 4q-170 0 -252 -160l-69 29l99 218h483l17 -64l-378 -523q42 -7 71 -7q121 0 191 62q46 39 72 109l74 -24l-89 -234h-524z" />
<glyph unicode="&#x397;" horiz-adv-x="820" d="M20 0v82l20 2q42 5 55 20.5t13 63.5v345q0 48 -13 63.5t-55 20.5l-20 2v82h351v-82l-20 -2q-42 -5 -55 -20.5t-13 -63.5v-98h254v98q0 48 -13 63.5t-55 20.5l-20 2v82h351v-82l-20 -2q-42 -5 -55 -20.5t-13 -63.5v-345q0 -48 13 -63.5t55 -20.5l20 -2v-82h-351v82l20 2 q42 5 55 20.5t13 63.5v150h-254v-150q0 -48 13 -63.5t55 -20.5l20 -2v-82h-351z" />
<glyph unicode="&#x398;" horiz-adv-x="800" d="M35 334q0 156 105 258t265 102q146 0 249 -86q115 -97 115 -262q0 -153 -108 -256t-269 -103q-127 0 -224 72q-133 100 -133 275zM227 338q0 -106 43 -177.5t130 -71.5q79 0 128 70.5t49 184.5q0 117 -45.5 182.5t-125.5 65.5t-129.5 -70.5t-49.5 -183.5zM286 225v243h29 q0 -36 17.5 -49.5t66.5 -13.5q48 0 66.5 14t18.5 49h28v-243h-28q0 65 -76 65q-52 0 -72.5 -12t-20.5 -53h-29z" />
<glyph unicode="&#x399;" horiz-adv-x="400" d="M20 0v82l24 2q45 4 56.5 22.5t11.5 61.5v345q0 45 -11.5 63t-56.5 21l-24 2v82h359v-82l-24 -2q-45 -4 -56.5 -22.5t-11.5 -61.5v-345q0 -45 11.5 -63t56.5 -21l24 -2v-82h-359z" />
<glyph unicode="&#x39a;" horiz-adv-x="800" d="M20 0v82l20 2q42 5 55 20.5t13 63.5v345q0 48 -13 63.5t-55 20.5l-20 2v82h344v-82l-13 -2q-46 -7 -57 -20.5t-11 -63.5v-135l168 160q33 31 33 41q0 20 -50 20h-17v82h338v-82q-65 -9 -112 -33.5t-112 -84.5l-41 -38l146 -229q52 -81 78 -102.5t82 -29.5v-82h-379v82 l18 2q40 4 50.5 8.5t10.5 17.5q0 7 -7 20t-14 23l-7 10l-103 170l-82 -71v-94q0 -50 11 -63.5t57 -20.5l13 -2v-82h-344z" />
<glyph unicode="&#x39b;" horiz-adv-x="720" d="M-34 0v82l16 2q42 5 65 29t52 93l198 475h155l196 -488q31 -65 46.5 -83.5t52.5 -25.5l16 -2v-82h-365v82l25 2q32 2 45 9.5t13 22.5q-1 15 -10 41l-137 365l-140 -366q-9 -23 -9 -30q0 -20 17 -28.5t57 -13.5l16 -2v-82h-309z" />
<glyph unicode="&#x39c;" horiz-adv-x="940" d="M20 0v82l20 2q42 5 55 20.5t13 63.5v345q0 48 -13 63.5t-55 20.5l-20 2v82h311l138 -426l142 426h313v-82l-20 -2q-42 -5 -55 -20.5t-13 -63.5v-345q0 -48 13 -63.5t55 -20.5l20 -2v-82h-351v82l20 2q42 5 55 20.5t13 63.5v347l-175 -515h-108l-172 522v-354 q0 -48 13 -63.5t55 -20.5l20 -2v-82h-274z" />
<glyph unicode="&#x39d;" horiz-adv-x="740" d="M20 0v82l20 2q42 5 55 20.5t13 63.5v345q0 48 -13 63.5t-55 20.5l-20 2v82h295l228 -393v225q0 48 -13 63.5t-55 20.5l-20 2v82h269v-82l-20 -2q-42 -5 -55 -20.5t-13 -63.5v-513h-124l-311 526v-358q0 -48 13 -63.5t55 -20.5l20 -2v-82h-269z" />
<glyph unicode="&#x39e;" horiz-adv-x="690" d="M30 0v260h90q0 -34 14.5 -81.5t35.5 -47.5h350q21 0 35.5 47.5t14.5 81.5h90v-260h-630zM30 421v260h630v-260h-90q0 34 -14.5 81.5t-35.5 47.5h-350q-21 0 -35.5 -47.5t-14.5 -81.5h-90zM223 225v243h29q0 -34 26 -48.5t78 -14.5q105 0 105 63h28v-243h-28 q0 31 -27.5 48t-68.5 17q-36 0 -55.5 -2.5t-37.5 -17.5t-20 -45h-29z" />
<glyph unicode="&#x39f;" horiz-adv-x="800" d="M35 334q0 156 105 258t265 102q157 0 260.5 -96t103.5 -252q0 -153 -108 -256t-269 -103q-150 0 -253.5 95t-103.5 252zM227 338q0 -41 8 -81t26 -79.5t54 -64t85 -24.5q79 0 128 70.5t49 184.5q0 117 -45.5 182.5t-125.5 65.5t-129.5 -70.5t-49.5 -183.5z" />
<glyph unicode="&#x3a0;" horiz-adv-x="880" d="M50 0v82l20 2q42 5 55 20.5t13 63.5v345q0 48 -13 63.5t-55 20.5l-20 2v82h780v-82l-20 -2q-42 -5 -55 -20.5t-13 -63.5v-345q0 -48 13 -63.5t55 -20.5l20 -2v-82h-351v82l20 2q42 5 55 20.5t13 63.5v345q0 49 -13.5 66.5t-54.5 17.5h-118q-41 0 -54.5 -17.5t-13.5 -66.5 v-345q0 -48 13 -63.5t55 -20.5l20 -2v-82h-351z" />
<glyph unicode="&#x3a1;" horiz-adv-x="660" d="M20 0v82l20 2q42 5 55 20.5t13 63.5v345q0 48 -13 63.5t-55 20.5l-20 2v82h359q64 0 111.5 -9t87 -30.5t60 -62.5t20.5 -101q0 -99 -71.5 -150.5t-208.5 -51.5h-95v-108q0 -48 13 -63.5t55 -20.5l20 -2v-82h-351zM283 367q16 -2 33 -2q72 0 111 30t39 85q0 49 -32 79 t-83 30q-25 0 -39.5 -4t-20.5 -15.5t-7 -21.5t-1 -32v-149z" />
<glyph unicode="&#x3a3;" horiz-adv-x="720" d="M20 0l220 341l-220 340h577l99 -206l-68 -34q-104 150 -239 150h-115l123 -191l-200 -310h169q86 0 154.5 42.5t133.5 136.5l70 -33l-110 -236h-594z" />
<glyph unicode="&#x3a4;" horiz-adv-x="700" d="M-4 474l75 207h551l81 -207l-73 -29q-23 38 -42 64t-56.5 53.5t-76.5 27.5q-14 0 -17 -5.5t-3 -29.5v-387q0 -17 0.5 -26t4 -21.5t10.5 -19t20.5 -11.5t32.5 -6l30 -2v-82h-371v82l30 2q24 1 39 7.5t21 20.5t7 24.5t1 31.5v384q0 26 -3 32t-14 6q-50 0 -98 -40.5 t-74 -104.5z" />
<glyph unicode="&#x3a5;" horiz-adv-x="700" d="M28 454q0 59 12.5 108.5t43.5 84t77 34.5q119 0 183 -119q69 119 188 119q47 0 79 -34.5t45.5 -84t13.5 -108.5h-96q0 26 -11 45.5t-31 19.5q-19 0 -34 -6t-25 -19.5t-18 -26.5t-12.5 -36.5t-7 -40.5t-4 -46.5t-1.5 -46v-47.5v-82q0 -44 11.5 -62.5t56.5 -21.5l28 -2v-82 h-367v82l28 2q45 3 56.5 22t11.5 62v82q0 42 -0.5 64t-3 59.5t-8.5 58.5t-16 43.5t-26.5 33t-39.5 10.5q-19 0 -28 -19t-9 -46h-96z" />
<glyph unicode="&#x3a6;" horiz-adv-x="806" d="M23 340q0 62 23 105.5t68 67.5t99.5 35.5t129.5 14.5v2q0 32 -9 40t-43 8h-29v68h282v-68h-29q-33 0 -43 -8.5t-10 -39.5v-2q156 -5 238 -54.5t82 -171.5q0 -61 -23.5 -104t-68 -67t-100 -35t-128.5 -12v-3q0 -32 9.5 -40t43.5 -8h29v-68h-282v68h29q33 0 42.5 8.5 t9.5 39.5v3q-74 2 -129 13.5t-100 35.5t-68 67t-23 105zM151 337q0 -41 12.5 -68t39.5 -42t59.5 -21.5t80.5 -8.5v287q-100 -5 -146 -35.5t-46 -111.5zM462 196q101 3 146.5 32.5t45.5 112.5q0 87 -59 119q-39 21 -133 24v-288z" />
<glyph unicode="&#x3a7;" horiz-adv-x="780" d="M1 0v82q67 5 123 74l152 187l-118 157q-47 63 -68.5 79t-69.5 20v82h372v-82q-63 -3 -63 -21q0 -10 12 -27l74 -105l73 103q9 20 9 28q0 22 -48 22h-16v82h313v-82q-101 -14 -176 -110l-98 -124l135 -176q52 -60 77.5 -80t60.5 -25l25 -2v-82h-391v82l20 2q47 4 47 21 q0 5 -12 24l-100 141l-86 -124q-15 -23 -15 -35q0 -23 53 -27l25 -2v-82h-310z" />
<glyph unicode="&#x3a8;" horiz-adv-x="999" d="M14 587v94h237v-210q0 -75 25.5 -100t101.5 -25h37v189q0 31 -9 41.5t-39 10.5h-13v94h294v-94h-16q-33 0 -41 -11.5t-8 -49.5v-180h33q77 0 104 25.5t27 99.5v210h238v-94h-18q-33 0 -42 -10.5t-9 -55.5v-66q0 -114 -61.5 -164.5t-199.5 -50.5h-72v-83q0 -41 11.5 -52 t51.5 -11h20v-94h-333v94h21q40 0 50.5 11t10.5 52v83h-59q-69 0 -114.5 8t-84 30.5t-56.5 66t-18 110.5v66q0 43 -10 54.5t-41 11.5h-18z" />
<glyph unicode="&#x3a9;" horiz-adv-x="780" d="M30 0v198h90q0 -27 14 -47t36 -20h70v93q-79 29 -126.5 85t-47.5 130q0 109 96.5 175.5t227.5 66.5t227.5 -66.5t96.5 -175.5q0 -74 -47.5 -130t-126.5 -85v-93h70q22 0 36 20t14 47h90v-198h-300v312q34 18 55 52t21 75q0 59 -39.5 100.5t-96.5 41.5t-96.5 -41.5 t-39.5 -100.5q0 -41 21 -75t55 -52v-312h-300z" />
<glyph unicode="&#x3b1;" horiz-adv-x="640" d="M44 243q0 100 57 175q61 81 159 81q69 0 127 -46l50 34h106v-338q0 -40 6 -46q7 -9 45 -9h23v-94l-212 -7v50q-80 -55 -150 -55q-97 0 -157 81q-54 73 -54 174zM212 246q0 -57 24 -99t67 -42q31 0 84 35v152q0 37 -6 54t-26 31q-21 15 -46 15q-48 0 -72.5 -42t-24.5 -104 z" />
<glyph unicode="&#x3b2;" horiz-adv-x="496" d="M25 303q0 180 73 292.5t199 112.5q81 0 131 -39t50 -103q0 -90 -91 -142l30 -20q90 -62 90 -180q0 -101 -68 -169.5t-168 -68.5q-117 0 -181.5 81.5t-64.5 235.5zM161 223q0 -58 31 -101.5t77 -43.5q44 0 76 42.5t32 102.5q0 59 -31.5 102.5t-76.5 43.5t-76.5 -42.5 t-31.5 -103.5zM164 435q45 33 110 58q31 12 47 25t18.5 22.5t2.5 24.5q0 35 -53 35q-47 0 -78 -51q-7 -10 -40 -91q-5 -11 -7 -23z" />
<glyph unicode="&#x3b3;" horiz-adv-x="554" d="M-40 407l19 87h295l-14 -85h-53q-13 0 -13 -14q0 -8 4 -18l59 -232l131 255l1 3q0 7 -29 7h-24l10 84h228l-7 -81l-31 -1q-23 -1 -37.5 -14.5t-38.5 -62.5l-154 -313q35 -101 35 -149q0 -133 -96 -133q-51 0 -79.5 32.5t-28.5 88.5q0 57 33 136l-114 365q-9 29 -15.5 37 t-21.5 8h-59z" />
<glyph unicode="&#x3b4;" horiz-adv-x="620" d="M37 234q0 160 177 225q-143 30 -143 114q0 62 67 102.5t168 40.5q94 0 162.5 -31t68.5 -77q0 -25 -19.5 -41.5t-46.5 -16.5q-36 0 -64 31q-44 47 -97 47q-74 0 -74 -56q0 -31 24 -48t85 -28q130 -24 184 -79.5t54 -171.5q0 -118 -76 -187.5t-196 -69.5t-197 68t-77 178z M208 245q0 -70 26 -110.5t74 -40.5q50 0 77.5 41t27.5 108t-26.5 108t-74.5 41q-50 0 -77 -39t-27 -108z" />
<glyph unicode="&#x3b5;" horiz-adv-x="554" d="M33 132q0 84 108 122q-87 39 -87 111q0 61 57 97.5t146 36.5q82 0 145.5 -31t63.5 -77q0 -25 -19 -41.5t-45 -16.5q-32 0 -58 30q-34 40 -72 40q-67 0 -67 -59q0 -54 67 -54h52v-81h-57q-74 0 -74 -53q0 -57 83 -57q57 0 94.5 18t84.5 68l72 -63q-92 -134 -273 -134 q-98 0 -159.5 38.5t-61.5 105.5z" />
<glyph unicode="&#x3b6;" horiz-adv-x="381" d="M14 611q0 51 51 83t125 32q85 0 136.5 -43t51.5 -95q0 -33 -14 -55t-64 -62q-63 -53 -100.5 -117t-37.5 -120q0 -34 11.5 -46.5t75.5 -45.5q84 -43 109 -63q55 -45 55 -115q0 -87 -56.5 -140t-146.5 -53q-65 0 -107 25t-42 67q0 66 65 66q5 0 46.5 -25.5t46.5 -25.5 q63 0 63 63q0 23 -26 43q-115 52 -152 81q-78 61 -78 155q0 180 198 322q24 18 26 29q-1 23 -17.5 37.5t-39.5 14.5q-16 0 -57 -40t-59 -40q-26 0 -44.5 20t-18.5 48z" />
<glyph unicode="&#x3b7;" horiz-adv-x="666" d="M44 0v94h15q36 0 47 6.5t11 35.5v228h-73v94q92 11 165 41h45v-65q95 65 176 65q48 0 87 -22t54 -56q12 -28 12 -77v-562h-155v538q0 33 -9 47.5t-36 14.5q-47 0 -110 -48v-193q0 -35 6 -40q5 -5 49 -7v-94h-284z" />
<glyph unicode="&#x3b8;" horiz-adv-x="636" d="M31 352q0 166 74.5 265t214.5 99q135 0 209.5 -95.5t74.5 -267.5q0 -173 -74.5 -269t-213.5 -96q-135 0 -210 96.5t-75 267.5zM204 301q11 -206 114 -206q102 0 116 206h-230zM204 407h229q-14 203 -119 203q-96 0 -110 -203z" />
<glyph unicode="&#x3b9;" horiz-adv-x="396" d="M38 364v92q115 6 182 43h46v-276q0 -80 9.5 -100.5t44.5 -20.5q32 0 64 13v-105q-76 -18 -141 -18q-80 0 -106.5 39.5t-26.5 158.5v174h-72z" />
<glyph unicode="&#x3ba;" horiz-adv-x="660" d="M42 0v94q57 0 64 11q7 10 7 48v211h-71v95q83 3 181 40h47v-222l94 79q20 17 20 24q0 13 -34 13h-19v94h298v-94q-36 -2 -48.5 -7t-46.5 -30l-95 -69l135 -157q22 -26 35 -31t50 -5v-94h-179l-149 206l-61 -46v-26q0 -7 0.5 -12.5t2 -9.5t2 -7t4 -4.5t5 -2.5t7 -2t8.5 -1 t11 -0.5t12 -0.5v-94h-280z" />
<glyph unicode="&#x3bb;" horiz-adv-x="600" d="M1 0v94q29 1 37.5 3t16.5 9.5t20 30.5l165 324l-45 120h-125v95q95 6 179 40h60l223 -590q12 -32 51 -32h16v-94h-294v94h9q46 0 46 19q0 7 -6 24l-69 201l-86 -201q-7 -15 -7 -24q0 -19 45 -19h12v-94h-248z" />
<glyph unicode="&#x3bc;" horiz-adv-x="777" d="M67 -250q13 181 13 376v376h162v-376q0 -43 84 -43q50 0 84 42v377h162v-376q0 -18 11 -30.5t27 -12.5q14 0 22.5 13t8.5 30h96q0 -57 -37 -98t-90 -41q-98 0 -155 48q-56 -48 -129 -48q-44 0 -84 6v-243h-175z" />
<glyph unicode="&#x3bd;" horiz-adv-x="582" d="M1 393v94l200 5l133 -362l35 72q27 55 27 101q0 11 -8 57t-8 57q0 39 26 60.5t68 21.5q41 0 65.5 -21t24.5 -59q0 -64 -98 -240l-100 -179h-131l-155 361q-14 32 -52 32h-27z" />
<glyph unicode="&#x3be;" horiz-adv-x="420" d="M23 700q0 66 67 66q14 0 66 -24.5t67 -24.5q64 0 178 49v-92l-77 -29q-35 -16 -88.5 -46.5t-53.5 -44.5q0 -31 37 -49.5t140 -40.5q50 -18 50 -60q0 -61 -55 -61q-7 0 -44.5 14.5t-50.5 14.5q-46 0 -73 -35t-27 -89q0 -39 17 -61t74 -52q80 -42 111 -64t41.5 -44 t10.5 -64q0 -86 -57 -139t-145 -53q-67 0 -107.5 24.5t-40.5 65.5q0 64 62 64q16 0 50 -25.5t45 -25.5q66 0 66 64q0 22 -12 33t-60 36q-113 57 -151.5 102t-38.5 119q0 140 126 204q-89 41 -89 126l3 18q9 17 27.5 27.5t34.5 10.5h51q-154 0 -154 86z" />
<glyph unicode="&#x3bf;" horiz-adv-x="620" d="M31 258q0 113 75 183t197 70q129 0 205.5 -71t76.5 -192q0 -117 -75.5 -187t-201.5 -70q-128 0 -202.5 72t-74.5 195zM213 246q0 -158 96 -158q94 0 94 156q0 165 -94 165q-96 0 -96 -163z" />
<glyph unicode="&#x3c0;" horiz-adv-x="713" d="M44 0v94h32q24 0 32.5 9t8.5 33v206q0 25 -8.5 33.5t-32.5 8.5h-32v103h612v-103h-31q-28 0 -35 -9t-7 -38v-149q0 -49 12 -67.5t45 -18.5q29 0 62 13v-105q-76 -18 -142 -18q-77 0 -104.5 36t-27.5 150v164q0 26 -9 34t-33 8h-73q-27 0 -33.5 -9t-6.5 -38v-196 q0 -32 7 -39.5t33 -7.5h15v-94h-284z" />
<glyph unicode="&#x3c1;" horiz-adv-x="636" d="M53 210q0 289 274 289q119 0 195.5 -69t76.5 -185q0 -115 -75 -186t-197 -71q-60 0 -117 19v-225h-157v428zM223 245q0 -71 26.5 -111t74.5 -40q49 0 76.5 41t27.5 108q0 69 -26.5 109t-73.5 40q-50 0 -77.5 -39.5t-27.5 -107.5z" />
<glyph unicode="&#x3c2;" d="M37 244q0 112 78.5 183.5t199.5 71.5q89 0 158.5 -42.5t69.5 -102.5q0 -34 -23 -56t-57 -22q-52 0 -79 56q-31 64 -73 64q-45 0 -74.5 -40.5t-29.5 -99.5q0 -36 23 -60.5t88 -54.5q113 -53 141 -74q49 -48 52 -113q0 -87 -61.5 -135.5t-167.5 -48.5q-98 0 -161 28t-63 73 q0 55 62 55q29 0 62 -24q58 -41 110 -41q81 0 81 55q0 25 -19.5 42.5t-78.5 46.5q-148 71 -193 114t-45 125z" />
<glyph unicode="&#x3c3;" horiz-adv-x="629" d="M37 245q0 112 76.5 183t195.5 71q45 0 84 -12h236v-104h-101q55 -61 55 -148q0 -108 -77 -177.5t-195 -69.5q-126 0 -200 69.5t-74 187.5zM207 245q0 -71 26.5 -111t74.5 -40q49 0 76.5 41t27.5 108q0 69 -26.5 109t-73.5 40q-50 0 -77.5 -39.5t-27.5 -107.5z" />
<glyph unicode="&#x3c4;" horiz-adv-x="515" d="M6 383v104h463v-104h-152v-170q0 -65 15.5 -89t64.5 -24q46 0 94 33v-105q-73 -36 -149 -36q-181 0 -181 159v232h-155z" />
<glyph unicode="&#x3c5;" horiz-adv-x="647" d="M26 393v94l228 5v-297q0 -48 17 -69.5t61 -21.5t60.5 21.5t16.5 71.5v146q0 31 -8 40.5t-37 9.5h-27v94l227 5v-276q0 -65 -5 -93q-27 -135 -225 -135q-126 0 -181 50t-55 171v134q0 31 -8 40.5t-37 9.5h-27z" />
<glyph unicode="&#x3c6;" horiz-adv-x="810" d="M37 251q0 111 76.5 179.5t199.5 68.5v-107q-105 0 -105 -142q0 -83 30.5 -119.5t97.5 -36.5v172q0 121 46 177t147 56q118 0 181 -61t63 -178q0 -146 -69.5 -209t-232.5 -63v-206h-135v206q-147 0 -223 67t-76 196zM471 94q79 0 105 39.5t26 122.5q0 140 -78 140 q-29 0 -41 -28.5t-12 -95.5v-178z" />
<glyph unicode="&#x3c7;" horiz-adv-x="582" d="M12 -118q53 1 70 10q19 9 40 51l105 206l-118 215q-18 15 -96 15v91l173 10l112 -213l106 214h152l-193 -323l190 -368h-144l-119 243l-74 -144q2 -6 26 -6v-93h-230v92z" />
<glyph unicode="&#x3c8;" horiz-adv-x="949" d="M26 389v94l225 5v-254q0 -83 35 -107q26 -18 117 -21v377h156v-377q65 2 74 3q45 6 63 35q14 21 14 90v94q0 40 -8 49.5t-45 11.5v94l209 5v-271q0 -134 -91 -182q-67 -35 -216 -35v-218h-156v218q-163 1 -221 31q-87 45 -87 186v107q0 42 -8 53.5t-43 11.5h-18z" />
<glyph unicode="&#x3c9;" horiz-adv-x="823" d="M37 234q0 265 301 265v-105q-73 0 -101.5 -33.5t-28.5 -124.5q0 -145 80 -145q33 0 46.5 25.5t13.5 98.5v48h127v-48q0 -72 12.5 -98t47.5 -26q80 0 80 145q0 88 -28.5 123t-102.5 35v105q154 0 228 -65t74 -200q0 -115 -59.5 -180.5t-168.5 -65.5q-51 0 -83.5 16.5 t-63.5 58.5q-31 -42 -63 -58.5t-83 -16.5q-110 0 -169 64.5t-59 181.5z" />
<glyph unicode="&#x3d1;" horiz-adv-x="601" d="M27 249v105q50 -1 82.5 -8t54 -18.5t34 -37t18.5 -53.5t11 -77q17 -71 78 -71q51 0 80 55t29 157q-149 5 -235 60.5t-86 158.5q0 82 56 139t159 57q101 0 166.5 -79.5t78.5 -222.5l23 10v-107l-20 -8q0 -142 -71.5 -231.5t-181.5 -89.5q-93 0 -149 56t-66 165 q-2 24 -12 31t-49 9zM204 515q0 -52 60.5 -83.5t149.5 -31.5q0 102 -29 162t-84 60q-43 0 -70 -30.5t-27 -76.5z" />
<glyph unicode="&#x3d5;" horiz-adv-x="800" d="M44 241q0 115 75.5 177t219.5 63v84h133l-1 -85q145 0 220 -62t75 -178q0 -252 -295 -253v-206h-132v207q-295 0 -295 253zM202 236q0 -69 37.5 -105.5t99.5 -36.5v278q-63 0 -100 -37.5t-37 -98.5zM471 94q66 0 99.5 38t33.5 104q0 62 -35 99t-98 37v-278z" />
<glyph unicode="&#x3d6;" horiz-adv-x="920" d="M3 430q15 16 25 24.5t31.5 20t51.5 20.5q93 27 198 27q35 0 179.5 -13t176.5 -13q44 0 89 15l18 6l133 -24q-21 -38 -108 -68q13 -15 26.5 -51.5t15.5 -47.5q6 -24 6 -62q0 -123 -47 -201q-26 -44 -67.5 -63t-114.5 -19q-84 0 -134 63q-51 -63 -133 -63q-70 0 -106 14 q-61 23 -92.5 94.5t-31.5 169.5q0 37 6 60l1 5q1 4 3 10t4.5 14t6 16.5t7.5 17t8.5 16t9.5 13.5q-5 -1 -39 -10zM290 253q0 -169 63 -169q29 0 40.5 30t11.5 125v108h155v-108q0 -66 5.5 -100t15.5 -44.5t30 -10.5q37 0 51 54t14 172q0 21 -12 81q-2 3 -21 3q-42 -3 -88 -3 q-90 0 -216 14q-26 -18 -43 -79q-6 -22 -6 -73z" />
<glyph unicode="&#x3f5;" horiz-adv-x="470" d="M38 242q0 75 34 131.5t92 83.5q47 22 92 22q49 0 95.5 -25.5t76.5 -66.5l-68 -100q-31 62 -56.5 86t-52.5 24q-35 0 -60.5 -31.5t-30.5 -77.5h158v-94h-159q6 -61 47 -94q37 -29 75 -29q63 0 130 90l56 -45q-76 -128 -181 -128q-84 0 -134.5 31.5t-83.5 96.5 q-30 60 -30 126z" />
<glyph unicode="&#x400;" horiz-adv-x="720" d="M20 0v82l20 2q42 5 55 20.5t13 63.5v345q0 48 -13 63.5t-55 20.5l-20 2v82h577l99 -206l-68 -34q-104 150 -239 150q-32 0 -52 -3.5t-31 -8.5t-16 -19t-6 -25t-1 -37v-85h29q32 0 47 2t29.5 12.5t19.5 32.5t6 62h78v-311h-78q-9 70 -31.5 90t-71.5 20h-28v-118 q0 -79 11.5 -96t71.5 -17q86 0 154.5 42.5t133.5 136.5l70 -33l-110 -236h-594zM170 868q0 30 20.5 51.5t49.5 21.5q37 0 84 -41l105 -94l-20 -49l-159 34q-80 17 -80 77z" />
<glyph unicode="&#x401;" horiz-adv-x="720" d="M20 0v82l20 2q42 5 55 20.5t13 63.5v345q0 48 -13 63.5t-55 20.5l-20 2v82h577l99 -206l-68 -34q-104 150 -239 150q-32 0 -52 -3.5t-31 -8.5t-16 -19t-6 -25t-1 -37v-85h29q32 0 47 2t29.5 12.5t19.5 32.5t6 62h78v-311h-78q-9 70 -31.5 90t-71.5 20h-28v-118 q0 -79 11.5 -96t71.5 -17q86 0 154.5 42.5t133.5 136.5l70 -33l-110 -236h-594zM135 850q0 30 19.5 49.5t49.5 19.5q28 0 49 -21.5t21 -50.5q0 -27 -20.5 -47t-48.5 -20q-29 0 -49.5 20.5t-20.5 49.5zM369 850q0 30 19.5 49.5t49.5 19.5q28 0 49 -21.5t21 -50.5 q0 -27 -20.5 -47t-48.5 -20q-29 0 -49.5 20.5t-20.5 49.5z" />
<glyph unicode="&#x402;" horiz-adv-x="916" d="M-4 474l75 207h551l81 -207l-73 -29q-39 65 -65 90q-57 55 -110 55q-15 0 -17.5 -4.5t-2.5 -30.5v-193q66 60 170 60q103 0 169 -45.5t66 -132.5v-222q0 -87 -66 -132.5t-169 -45.5h-40v97q45 0 72.5 28.5t27.5 56.5v214q0 28 -27.5 56.5t-72.5 28.5q-49 0 -75.5 -14 t-54.5 -46v-97q0 -50 12 -63q16 -19 56 -21l30 -2v-82h-371v82l30 2q40 2 56 21q12 13 12 63v384q0 23 -3 29.5t-14 6.5q-50 0 -98 -39.5t-74 -103.5z" />
<glyph unicode="&#x403;" horiz-adv-x="680" d="M20 0v82l20 2q42 5 55 20.5t13 63.5v345q0 48 -13 63.5t-55 20.5l-20 2v82h571l95 -205l-69 -35q-58 79 -115 112t-135 33q-61 0 -75 -18q-9 -13 -9 -67v-333q0 -50 12 -63q14 -17 56 -21l27 -2v-82h-358zM224 770l105 94q47 41 84 41q29 0 49.5 -21.5t20.5 -51.5 q0 -60 -80 -77l-159 -34z" />
<glyph unicode="&#x404;" horiz-adv-x="740" d="M35 341q0 89 34.5 165t96.5 123q86 65 211 65q92 0 167 -36l8 23h69l84 -236l-77 -29q-54 94 -83 125q-69 71 -142 71q-69 0 -114 -53t-57 -147h63q61 0 78 16q2 2 4.5 5t4 6t3 7.5t2.5 8t2.5 9.5t2 9.5t1.5 11t1.5 11.5t1.5 13t2 13h78v-311h-78q-1 77 -27 97 q-16 12 -75 12h-69q6 -134 78 -197q50 -44 114 -44q81 0 148 62q33 29 75 100l82 -42q-36 -96 -126.5 -154t-203.5 -58q-157 0 -258 99.5t-101 254.5z" />
<glyph unicode="&#x405;" horiz-adv-x="660" d="M21 244l75 25q101 -185 262 -185q55 0 90.5 25t35.5 64q0 28 -20 42.5t-76 28.5l-99 25q-7 2 -33 8t-37.5 9t-36 10.5t-37 15t-32.5 19t-30.5 25t-21.5 31t-16 40.5t-5 49q0 95 72.5 156.5t185.5 61.5q93 0 160 -45l12 32h60l66 -203l-72 -27q-58 80 -104 113t-115 33 q-48 0 -79 -19.5t-31 -50.5q0 -19 16 -34.5t41.5 -25t44 -14t35.5 -7.5l91 -19q29 -6 47.5 -10t54.5 -19.5t57.5 -34.5t39 -55t17.5 -81q0 -104 -80.5 -172t-202.5 -68q-110 0 -179 51l-14 -49h-59z" />
<glyph unicode="&#x406;" horiz-adv-x="400" d="M20 0v82l24 2q45 4 56.5 22.5t11.5 61.5v345q0 45 -11.5 63t-56.5 21l-24 2v82h359v-82l-24 -2q-45 -4 -56.5 -22.5t-11.5 -61.5v-345q0 -45 11.5 -63t56.5 -21l24 -2v-82h-359z" />
<glyph unicode="&#x407;" horiz-adv-x="400" d="M18 850q0 30 19.5 49.5t49.5 19.5q28 0 49 -21.5t21 -50.5q0 -27 -20.5 -47t-48.5 -20q-29 0 -49.5 20.5t-20.5 49.5zM20 0v82l24 2q45 4 56.5 22.5t11.5 61.5v345q0 45 -11.5 63t-56.5 21l-24 2v82h359v-82l-24 -2q-45 -4 -56.5 -22.5t-11.5 -61.5v-345q0 -45 11.5 -63 t56.5 -21l24 -2v-82h-359zM252 850q0 30 19.5 49.5t49.5 19.5q28 0 49 -21.5t21 -50.5q0 -27 -20.5 -47t-48.5 -20q-29 0 -49.5 20.5t-20.5 49.5z" />
<glyph unicode="&#x408;" horiz-adv-x="640" d="M-12 189q0 50 28.5 82t72.5 32q33 0 55 -21.5t22 -54.5q0 -34 -27 -65q-9 -10 -9 -17q0 -22 33 -39t74 -17q35 0 59.5 11.5t36.5 25.5t18 37t7 35.5t1 32.5v282q0 48 -13 63.5t-55 20.5l-20 2v82h351v-82l-20 -2q-42 -5 -55 -20.5t-13 -63.5v-272q0 -44 -5.5 -77.5 t-23 -68t-47.5 -57t-81.5 -37t-121.5 -14.5q-118 0 -192.5 56.5t-74.5 145.5z" />
<glyph unicode="&#x409;" horiz-adv-x="1079" d="M-25 87q0 32 18 53t47 21q52 0 65 -30q2 -5 4.5 -12t4 -11t4.5 -8t8 -5.5t13 -1.5q41 0 71 126t29 268q1 61 -12 83.5t-52 26.5l-25 3v81h638v-80l-18 -2q-42 -4 -55 -21t-13 -65v-108h95q137 0 208.5 -51.5t71.5 -150.5q0 -105 -78 -160q-32 -24 -77 -33.5t-124 -9.5 h-359v81l25 3q39 5 52 26.5t13 83.5v289q0 65 -7 83.5t-32 18.5h-79q-10 0 -17 -2.5t-10.5 -4.5t-6 -9t-3 -10.5t-1 -15.5t-1.5 -18q-12 -150 -25 -224.5t-51 -194.5q-17 -54 -52.5 -87t-81.5 -33q-187 0 -187 101zM702 165q0 -46 7 -55q11 -18 61 -18q51 0 83 30t32 79 q0 55 -39 85t-111 30q-17 0 -33 -2v-149z" />
<glyph unicode="&#x40a;" horiz-adv-x="1089" d="M20 0v82l20 2q42 5 55 20.5t13 63.5v345q0 48 -13 63.5t-55 20.5l-20 2v82h351v-82l-20 -2q-42 -5 -55 -20.5t-13 -63.5v-108h254v108q0 48 -13 63.5t-55 20.5l-20 2v82h351v-82l-20 -2q-42 -5 -55 -20.5t-13 -63.5v-108h95q137 0 208.5 -51.5t71.5 -150.5 q0 -105 -78 -160q-32 -24 -77 -33.5t-124 -9.5h-359v82l20 2q42 5 55 20.5t13 63.5v147h-254v-147q0 -48 13 -63.5t55 -20.5l20 -2v-82h-351zM712 165q0 -46 7 -55q11 -18 61 -18q51 0 83 30t32 79q0 55 -39 85t-111 30q-17 0 -33 -2v-149z" />
<glyph unicode="&#x40b;" horiz-adv-x="955" d="M-4 474l75 207h551l81 -207l-73 -29q-39 65 -65 90q-57 55 -110 55q-15 0 -17.5 -4.5t-2.5 -30.5v-193q66 60 170 60q103 0 169 -45.5t66 -132.5v-76q0 -48 13 -63.5t55 -20.5l20 -2v-82h-351v82l20 2q42 4 55 20.5t13 63.5v72q0 28 -27.5 56.5t-72.5 28.5 q-49 0 -75.5 -14t-54.5 -46v-97q0 -50 12 -63q16 -19 56 -21l30 -2v-82h-371v82l30 2q40 2 56 21q12 13 12 63v384q0 23 -3 29.5t-14 6.5q-50 0 -98 -39.5t-74 -103.5z" />
<glyph unicode="&#x40c;" horiz-adv-x="762" d="M45 0v80l25 3q39 5 52 27t13 83v294q0 61 -13 83.5t-52 26.5l-25 3v81h346v-84l-29 -3q-36 -4 -44.5 -24.5t-8.5 -85.5v-83h80q47 0 71.5 43t39.5 128q10 54 48 89t86 35q60 0 85 -27t27 -78q4 -77 -50 -78q-35 -1 -49.5 6.5t-21.5 23.5q-3 7 -5 17.5t-3 17t-5.5 12 t-12.5 5.5q-21 0 -24 -32q-14 -156 -102 -200q40 -5 73 -27.5t54.5 -56t34.5 -65t21 -64.5q1 -3 3 -13.5t3.5 -14t4.5 -11t6.5 -10t10 -5.5t14.5 -3q20 0 31 14t12 29l1 14l52 -10q-1 -6 -3 -16.5t-12.5 -37.5t-25.5 -47.5t-44 -37.5t-66 -17q-66 0 -98 24t-47 68 q-17 51 -27.5 100t-16.5 75t-18 42q-13 19 -25.5 25t-37.5 7h-64v-129q0 -65 8.5 -85.5t44.5 -24.5l29 -3v-83h-346zM290 785l105 94q47 41 84 41q29 0 49.5 -21.5t20.5 -51.5q0 -60 -80 -77l-159 -34z" />
<glyph unicode="&#x40d;" horiz-adv-x="820" d="M20 0v82l20 2q42 5 55 20.5t13 63.5v345q0 48 -13 63.5t-55 20.5l-20 2v82h351v-82l-20 -2q-42 -5 -55 -20.5t-13 -63.5v-238l254 228v10q0 48 -13 63.5t-55 20.5l-20 2v82h351v-82l-20 -2q-42 -5 -55 -20.5t-13 -63.5v-345q0 -48 13 -63.5t55 -20.5l20 -2v-82h-351v82 l20 2q42 5 55 20.5t13 63.5v238l-254 -228v-10q0 -48 13 -63.5t55 -20.5l20 -2v-82h-351zM280 832q0 29 21 51t49 22q37 0 84 -41l105 -94l-20 -49l-159 34q-80 18 -80 77z" />
<glyph unicode="&#x40e;" horiz-adv-x="768" d="M39 602v79h340v-80q-36 -5 -61.5 -16t-16.5 -27q3 -6 9 -20l112 -220l85 165q26 50 24 76q-1 10 -6.5 17t-21 12t-26 7.5t-37.5 7.5v78h299v-81q-26 -4 -37 -7t-28.5 -13.5t-32.5 -31.5t-33 -56l-174 -338q-60 -99 -106 -133.5t-130 -34.5q-49 0 -81.5 27.5t-31.5 68.5 q1 19 26 39.5t47 20.5q15 0 22.5 -1t20 -8.5t18.5 -23.5q4 -11 6 -15t8 -9.5t13 -5.5q25 0 48.5 23.5t34.5 46.5l11 23l-205 385q-7 11 -14 18t-12 11t-14.5 7t-14.5 4t-19.5 2.5t-21.5 2.5zM208 864l50 26q55 -61 132 -61q70 0 126 61l53 -26q-21 -62 -71.5 -102.5 t-107.5 -40.5q-112 0 -182 143z" />
<glyph unicode="&#x40f;" horiz-adv-x="820" d="M20 0v82l20 2q42 5 55 20.5t13 63.5v345q0 48 -13 63.5t-55 20.5l-20 2v82h351v-82l-20 -2q-42 -5 -55 -20.5t-13 -63.5v-416h254v416q0 48 -13 63.5t-55 20.5l-20 2v82h351v-82l-20 -2q-42 -5 -55 -20.5t-13 -63.5v-345q0 -48 13 -63.5t55 -20.5l20 -2v-82h-314v-154 h-146v154h-320z" />
<glyph unicode="&#x410;" horiz-adv-x="720" d="M-34 0v82l16 2q42 5 65 29t52 93l198 475h155l196 -488q31 -65 46.5 -83.5t52.5 -25.5l16 -2v-82h-365v82l25 2q32 2 45 9.5t13 22.5q-1 15 -10 41l-30 85h-215l-32 -86q-9 -23 -9 -30q0 -20 17 -28.5t57 -13.5l16 -2v-82h-309zM258 327h150l-74 195z" />
<glyph unicode="&#x411;" horiz-adv-x="720" d="M20 0v82l20 2q42 5 55 20.5t13 63.5v345q0 48 -13 63.5t-55 20.5l-20 2v82h571l95 -205l-69 -35q-58 79 -115 112t-135 33q-70 0 -79 -17q-5 -7 -5 -35v-129q82 15 137 15q72 0 128 -22.5t86 -57.5t44.5 -71t14.5 -69q0 -53 -25 -97.5t-68 -69.5q-33 -19 -71.5 -26 t-108.5 -7h-400zM283 140q0 -24 8 -33q16 -18 79 -18q66 0 103.5 32t37.5 89q0 55 -42.5 86.5t-107.5 31.5q-14 0 -33.5 -2.5t-31.5 -5.5l-13 -2v-178z" />
<glyph unicode="&#x412;" horiz-adv-x="720" d="M20 0v82l20 2q42 5 55 20.5t13 63.5v345q0 48 -13 63.5t-55 20.5l-20 2v82h380q78 0 133 -13t92.5 -52.5t37.5 -105.5q0 -46 -25.5 -84t-70.5 -60q61 -20 93.5 -62.5t32.5 -103.5q0 -54 -19.5 -93t-46.5 -59t-68.5 -31.5t-71 -14t-67.5 -2.5h-400zM283 140 q0 -26 16 -38.5t71 -12.5q66 0 103.5 32t37.5 89t-34 82.5t-111 25.5h-83v-178zM283 410h80q62 0 96 22.5t34 62.5q0 43 -33.5 67t-94.5 24q-39 0 -57.5 -7.5t-21.5 -16t-3 -28.5v-124z" />
<glyph unicode="&#x413;" horiz-adv-x="670" d="M20 0v82l20 2q42 5 55 20.5t13 63.5v345q0 48 -13 63.5t-55 20.5l-20 2v82h561l95 -205l-69 -35q-58 79 -115 112t-135 33q-51 0 -65 -18q-9 -13 -9 -67v-333q0 -50 12 -63q14 -17 56 -21l27 -2v-82h-358z" />
<glyph unicode="&#x414;" horiz-adv-x="780" d="M-14 -128l33 213h39.5t32 2.5t25.5 9t20 18t16 29.5q36 94 47 161.5t12 180.5q0 102 -65 110l-25 3v82h634v-82l-25 -3q-39 -4 -52 -26t-13 -84l1 -297q0 -68 18 -87t71 -17l21 -213h-64q-16 75 -27 92q-18 31 -79 35q-16 1 -36 1h-365q-80 0 -102 -17.5t-46 -92.5 q-5 -16 -8 -25zM289 155q-18 -63 20 -63h158q23 0 27.5 13.5t4.5 87.5v290q0 65 -7 83.5t-32 18.5h-97q-31 0 -30 -60q2 -125 -8.5 -204.5t-35.5 -165.5z" />
<glyph unicode="&#x415;" horiz-adv-x="720" d="M20 0v82l20 2q42 5 55 20.5t13 63.5v345q0 48 -13 63.5t-55 20.5l-20 2v82h577l99 -206l-68 -34q-104 150 -239 150q-32 0 -52 -3.5t-31 -8.5t-16 -19t-6 -25t-1 -37v-85h29q32 0 47 2t29.5 12.5t19.5 32.5t6 62h78v-311h-78q-9 70 -31.5 90t-71.5 20h-28v-118 q0 -79 11.5 -96t71.5 -17q86 0 154.5 42.5t133.5 136.5l70 -33l-110 -236h-594z" />
<glyph unicode="&#x416;" horiz-adv-x="1064" d="M-10 140l52 10q0 -6 1 -16t12 -25.5t31 -15.5q8 0 14.5 3t10 5.5t6.5 10t4.5 11t3.5 14t3 13.5q23 97 42 133q39 72 111 80q-17 9 -29.5 22.5t-19 25.5t-11 34t-6 34.5t-3.5 41.5t-3 42q-3 32 -24 32q-10 0 -14 -7.5t-6.5 -22t-5.5 -22.5q-7 -16 -21.5 -23.5t-49.5 -6.5 q-54 1 -50 78q2 51 27 78t85 27q48 0 86 -35t48 -89q3 -18 7.5 -46.5t6.5 -43t7.5 -33t12.5 -27t18.5 -15t28.5 -6.5h80l1 88q1 61 -12.5 82t-53.5 26l-25 3v81h346v-84l-29 -3q-36 -4 -44.5 -24.5t-8.5 -85.5v-83h80q17 0 28.5 6.5t18.5 15t12.5 27t7.5 33t6.5 43t7.5 46.5 q10 54 48 89t86 35q60 0 85 -27t27 -78q4 -77 -50 -78q-35 -1 -49.5 6.5t-21.5 23.5q-3 7 -5 17.5t-3 17t-5.5 12t-12.5 5.5q-21 0 -24 -32q-1 -13 -3 -42t-3.5 -41.5t-6 -34.5t-11 -34t-19 -25.5t-29.5 -22.5q30 -4 54.5 -18.5t39.5 -34.5t26.5 -47t17.5 -50t12 -49 q2 -10 3 -14q1 -3 3 -13.5t3.5 -14t4.5 -11t6.5 -10t10 -5.5t14.5 -3q20 0 31 14t12 29l1 14l52 -10q-1 -6 -3 -16.5t-12.5 -37.5t-25.5 -47.5t-44 -37.5t-66 -17q-66 0 -98 24t-47 68q-17 51 -27.5 100t-16.5 75t-18 42q-13 19 -25.5 25t-37.5 7h-34v-129q0 -65 8.5 -85.5 t44.5 -24.5l29 -3v-83h-346v80l25 3q40 5 53.5 26t12.5 82l-1 134h-34q-25 -1 -37.5 -7t-25.5 -25q-12 -16 -18 -42t-16.5 -75t-27.5 -100q-15 -44 -47 -68t-98 -24q-37 0 -66 16t-44.5 39t-25.5 46t-13 39z" />
<glyph unicode="&#x417;" horiz-adv-x="640" d="M22 201l67 37q23 -45 37.5 -68t38.5 -46t56.5 -31.5t80.5 -8.5q69 0 109.5 34t40.5 81q0 17 -0.5 26.5t-7.5 29t-19.5 30.5t-39.5 20t-65 9h-130v104h143q88 0 88 102q0 31 -31.5 54t-78.5 23q-79 0 -143 -64q-17 -17 -53 -82l-72 27l66 203h60l12 -32q67 45 137 45 q117 0 187.5 -47t70.5 -139q0 -39 -11.5 -80.5t-36.5 -53.5q40 -7 65.5 -52t25.5 -95q0 -109 -77 -175t-233 -65q-60 0 -106.5 14t-75 33.5t-51 50.5t-33 56t-21.5 60z" />
<glyph unicode="&#x418;" horiz-adv-x="820" d="M20 0v82l20 2q42 5 55 20.5t13 63.5v345q0 48 -13 63.5t-55 20.5l-20 2v82h351v-82l-20 -2q-42 -5 -55 -20.5t-13 -63.5v-238l254 228v10q0 48 -13 63.5t-55 20.5l-20 2v82h351v-82l-20 -2q-42 -5 -55 -20.5t-13 -63.5v-345q0 -48 13 -63.5t55 -20.5l20 -2v-82h-351v82 l20 2q42 5 55 20.5t13 63.5v238l-254 -228v-10q0 -48 13 -63.5t55 -20.5l20 -2v-82h-351z" />
<glyph unicode="&#x419;" horiz-adv-x="820" d="M20 0v82l20 2q42 5 55 20.5t13 63.5v345q0 48 -13 63.5t-55 20.5l-20 2v82h351v-82l-20 -2q-42 -5 -55 -20.5t-13 -63.5v-238l254 228v10q0 48 -13 63.5t-55 20.5l-20 2v82h351v-82l-20 -2q-42 -5 -55 -20.5t-13 -63.5v-345q0 -48 13 -63.5t55 -20.5l20 -2v-82h-351v82 l20 2q42 5 55 20.5t13 63.5v238l-254 -228v-10q0 -48 13 -63.5t55 -20.5l20 -2v-82h-351zM229 864l50 26q55 -61 132 -61q70 0 126 61l53 -26q-21 -62 -71.5 -102.5t-107.5 -40.5q-112 0 -182 143z" />
<glyph unicode="&#x41a;" horiz-adv-x="762" d="M45 0v80l25 3q39 5 52 27t13 83v294q0 61 -13 83.5t-52 26.5l-25 3v81h346v-84l-29 -3q-36 -4 -44.5 -24.5t-8.5 -85.5v-83h80q47 0 71.5 43t39.5 128q10 54 48 89t86 35q60 0 85 -27t27 -78q4 -77 -50 -78q-35 -1 -49.5 6.5t-21.5 23.5q-3 7 -5 17.5t-3 17t-5.5 12 t-12.5 5.5q-21 0 -24 -32q-14 -156 -102 -200q40 -5 73 -27.5t54.5 -56t34.5 -65t21 -64.5q1 -3 3 -13.5t3.5 -14t4.5 -11t6.5 -10t10 -5.5t14.5 -3q20 0 31 14t12 29l1 14l52 -10q-1 -6 -3 -16.5t-12.5 -37.5t-25.5 -47.5t-44 -37.5t-66 -17q-66 0 -98 24t-47 68 q-17 51 -27.5 100t-16.5 75t-18 42q-13 19 -25.5 25t-37.5 7h-64v-129q0 -65 8.5 -85.5t44.5 -24.5l29 -3v-83h-346z" />
<glyph unicode="&#x41b;" horiz-adv-x="820" d="M-25 87q0 32 18 53t47 21q52 0 65 -30q2 -5 4.5 -12t4 -11t4.5 -8t8 -5.5t13 -1.5q40 0 70 129.5t30 264.5q0 58 -13 82t-51 28l-25 3v81h638v-80l-25 -3q-39 -4 -52 -26t-13 -84v-295q0 -61 13 -83t52 -27l25 -3v-80h-349v81l25 3q39 5 52 26.5t13 83.5v289 q0 65 -7 83.5t-32 18.5h-79q-10 0 -17 -2.5t-10.5 -4.5t-6 -9t-3 -10.5t-1 -15.5t-1.5 -18q-12 -160 -25 -238.5t-49 -193.5q-17 -55 -56 -81t-116 -26q-151 0 -151 101z" />
<glyph unicode="&#x41c;" horiz-adv-x="940" d="M20 0v82l20 2q42 5 55 20.5t13 63.5v345q0 48 -13 63.5t-55 20.5l-20 2v82h311l138 -426l142 426h313v-82l-20 -2q-42 -5 -55 -20.5t-13 -63.5v-345q0 -48 13 -63.5t55 -20.5l20 -2v-82h-351v82l20 2q42 5 55 20.5t13 63.5v347l-175 -515h-108l-172 522v-354 q0 -48 13 -63.5t55 -20.5l20 -2v-82h-274z" />
<glyph unicode="&#x41d;" horiz-adv-x="820" d="M20 0v82l20 2q42 5 55 20.5t13 63.5v345q0 48 -13 63.5t-55 20.5l-20 2v82h351v-82l-20 -2q-42 -5 -55 -20.5t-13 -63.5v-98h254v98q0 48 -13 63.5t-55 20.5l-20 2v82h351v-82l-20 -2q-42 -5 -55 -20.5t-13 -63.5v-345q0 -48 13 -63.5t55 -20.5l20 -2v-82h-351v82l20 2 q42 5 55 20.5t13 63.5v150h-254v-150q0 -48 13 -63.5t55 -20.5l20 -2v-82h-351z" />
<glyph unicode="&#x41e;" horiz-adv-x="800" d="M35 334q0 156 105 258t265 102q157 0 260.5 -96t103.5 -252q0 -153 -108 -256t-269 -103q-150 0 -253.5 95t-103.5 252zM227 338q0 -41 8 -81t26 -79.5t54 -64t85 -24.5q79 0 128 70.5t49 184.5q0 117 -45.5 182.5t-125.5 65.5t-129.5 -70.5t-49.5 -183.5z" />
<glyph unicode="&#x41f;" horiz-adv-x="820" d="M20 0v82l20 2q42 5 55 20.5t13 63.5v345q0 48 -13 63.5t-55 20.5l-20 2v82h780v-82l-20 -2q-42 -5 -55 -20.5t-13 -63.5v-345q0 -48 13 -63.5t55 -20.5l20 -2v-82h-351v82l20 2q42 5 55 20.5t13 63.5v416h-254v-416q0 -48 13 -63.5t55 -20.5l20 -2v-82h-351z" />
<glyph unicode="&#x420;" horiz-adv-x="660" d="M20 0v82l20 2q42 5 55 20.5t13 63.5v345q0 48 -13 63.5t-55 20.5l-20 2v82h359q64 0 111.5 -9t87 -30.5t60 -62.5t20.5 -101q0 -99 -71.5 -150.5t-208.5 -51.5h-95v-108q0 -48 13 -63.5t55 -20.5l20 -2v-82h-351zM283 367q16 -2 33 -2q72 0 111 30t39 85q0 49 -32 79 t-83 30q-25 0 -39.5 -4t-20.5 -15.5t-7 -21.5t-1 -32v-149z" />
<glyph unicode="&#x421;" horiz-adv-x="740" d="M35 341q0 47 10.5 94t36 94t63.5 83.5t98 59t134 22.5q92 0 167 -36l8 23h69l84 -236l-77 -29q-54 94 -83 125q-69 71 -142 71q-81 0 -128.5 -73t-47.5 -197q0 -73 18.5 -127.5t49 -82t61.5 -40.5t63 -13q131 0 221 158l84 -38q-36 -96 -126.5 -154t-203.5 -58 q-157 0 -258 99.5t-101 254.5z" />
<glyph unicode="&#x422;" horiz-adv-x="700" d="M-4 474l75 207h551l81 -207l-73 -29q-23 38 -42 64t-56.5 53.5t-76.5 27.5q-14 0 -17 -5.5t-3 -29.5v-387q0 -17 0.5 -26t4 -21.5t10.5 -19t20.5 -11.5t32.5 -6l30 -2v-82h-371v82l30 2q24 1 39 7.5t21 20.5t7 24.5t1 31.5v384q0 26 -3 32t-14 6q-50 0 -98 -40.5 t-74 -104.5z" />
<glyph unicode="&#x423;" horiz-adv-x="768" d="M39 602v79h340v-80q-36 -5 -61.5 -16t-16.5 -27q3 -6 9 -20l112 -220l85 165q26 50 24 76q-1 10 -6.5 17t-21 12t-26 7.5t-37.5 7.5v78h299v-81q-26 -4 -37 -7t-28.5 -13.5t-32.5 -31.5t-33 -56l-174 -338q-60 -99 -106 -133.5t-130 -34.5q-49 0 -81.5 27.5t-31.5 68.5 q1 19 26 39.5t47 20.5q15 0 22.5 -1t20 -8.5t18.5 -23.5q4 -11 6 -15t8 -9.5t13 -5.5q25 0 48.5 23.5t34.5 46.5l11 23l-205 385q-7 11 -14 18t-12 11t-14.5 7t-14.5 4t-19.5 2.5t-21.5 2.5z" />
<glyph unicode="&#x424;" horiz-adv-x="779" d="M10 340q0 42 20.5 76t52 55t71.5 35.5t77 20t71 5.5q0 31 -12 44q-14 18 -56 21l-24 2v82h359v-82l-24 -2q-36 -3 -52 -17t-16 -48q34 0 71 -5.5t77 -20t71.5 -35.5t52 -55t20.5 -76t-20.5 -76t-52 -55t-71.5 -35.5t-77 -20t-71 -5.5q0 -34 16 -47.5t52 -16.5l24 -2v-82 h-359v82l24 2q42 3 56 21q12 13 12 43q-34 0 -71 5.5t-77 20t-71.5 35.5t-52 55t-20.5 76zM172 340q0 -93 130 -93v187q-22 0 -49 -6.5t-54 -29.5t-27 -58zM477 247q130 0 130 93q0 35 -27 58t-54 29.5t-49 6.5v-187z" />
<glyph unicode="&#x425;" horiz-adv-x="780" d="M1 0v82q67 5 123 74l152 187l-118 157q-47 63 -68.5 79t-69.5 20v82h372v-82q-63 -3 -63 -21q0 -10 12 -27l74 -105l73 103q9 20 9 28q0 22 -48 22h-16v82h313v-82q-101 -14 -176 -110l-98 -124l135 -176q52 -60 77.5 -80t60.5 -25l25 -2v-82h-391v82l20 2q47 4 47 21 q0 5 -12 24l-100 141l-86 -124q-15 -23 -15 -35q0 -23 53 -27l25 -2v-82h-310z" />
<glyph unicode="&#x426;" horiz-adv-x="836" d="M20 0v82l20 2q42 5 55 20.5t13 63.5v345q0 48 -13 63.5t-55 20.5l-20 2v82h351v-82l-20 -2q-42 -5 -55 -20.5t-13 -63.5v-416h254v416q0 48 -13 63.5t-55 20.5l-20 2v82h351v-82l-20 -2q-42 -5 -55 -20.5t-13 -63.5v-333q0 -49 13.5 -66t54.5 -18l21 -1l35 -204l-69 -20 q-8 19 -16.5 43t-12 34t-10.5 22.5t-12.5 16t-17.5 8.5t-26 5.5t-38 0.5z" />
<glyph unicode="&#x427;" horiz-adv-x="786" d="M10 599v82h351v-82l-20 -2q-42 -5 -55 -20.5t-13 -63.5v-94q0 -28 27.5 -56.5t72.5 -28.5q49 0 75.5 14t54.5 46v119q0 48 -13 63.5t-55 20.5l-20 2v82h351v-82l-20 -2q-42 -5 -55 -20.5t-13 -63.5v-345q0 -48 13 -63.5t55 -20.5l20 -2v-82h-351v82l20 2q42 5 55 20.5 t13 63.5v129q-66 -60 -170 -60q-103 0 -169 45.5t-66 132.5v98q0 48 -13 63.5t-55 20.5z" />
<glyph unicode="&#x428;" horiz-adv-x="1140" d="M20 0v82l20 2q42 5 55 20.5t13 63.5v345q0 48 -13 63.5t-55 20.5l-20 2v82h351v-82l-20 -2q-42 -5 -55 -20.5t-13 -63.5v-416l199 -1l1 417q0 48 -13 63.5t-55 20.5l-20 2v82h351v-82l-20 -2q-42 -4 -54.5 -20t-12.5 -64v-417l198 1v416q0 48 -13 63.5t-55 20.5l-20 2v82 h351v-82l-20 -2q-42 -5 -55 -20.5t-13 -63.5l-1 -345q0 -48 13 -63.5t55 -20.5l20 -2v-82h-1099z" />
<glyph unicode="&#x429;" horiz-adv-x="1156" d="M20 0v82l20 2q42 5 55 20.5t13 63.5v345q0 48 -13 63.5t-55 20.5l-20 2v82h351v-82l-20 -2q-42 -5 -55 -20.5t-13 -63.5v-416l199 -1l1 417q0 48 -13 63.5t-55 20.5l-20 2v82h351v-82l-20 -2q-42 -5 -55 -20.5t-13 -63.5l1 -417l198 1v416q0 48 -13 63.5t-55 20.5l-20 2 v82h351v-82l-20 -2q-42 -5 -55 -20.5t-13 -63.5v-333q0 -49 13.5 -66t54.5 -18l21 -1l35 -204l-69 -20q-8 19 -16.5 43t-12 34t-10.5 22.5t-12.5 16t-17.5 8.5t-26 5.5t-38 0.5z" />
<glyph unicode="&#x42a;" horiz-adv-x="866" d="M-10 476l95 205h484v-82l-20 -2q-42 -5 -55 -20.5t-13 -63.5v-108q61 16 103 16q129 0 200.5 -59t71.5 -159q0 -105 -78 -160q-32 -24 -77 -33.5t-124 -9.5h-359v82l20 2q43 5 55.5 19.5t12.5 61.5v336q0 54 -9 67q-13 18 -65 18q-21 0 -37.5 -4.5t-27 -9t-25 -20.5 t-22 -25.5t-28 -38.5t-33.5 -47zM481 165q0 -46 7 -55q11 -18 61 -18q51 0 83 30t32 79q0 59 -31 95t-99 36q-9 0 -26.5 -5t-26.5 -13v-149z" />
<glyph unicode="&#x42b;" horiz-adv-x="1038" d="M20 0v82l20 2q42 5 55 20.5t13 63.5v345q0 48 -13 63.5t-55 20.5l-20 2v82h351v-82l-20 -2q-42 -5 -55 -20.5t-13 -63.5v-108q61 16 103 16q129 0 200.5 -59t71.5 -159q0 -105 -78 -160q-32 -24 -77 -33.5t-124 -9.5h-359zM283 165q0 -46 7 -55q11 -18 61 -18q51 0 83 30 t32 79q0 59 -31 95t-99 36q-9 0 -26.5 -5t-26.5 -13v-149zM649 0v82l24 2q42 3 56 21q12 13 12 63v345q0 50 -12 63q-14 18 -56 21l-24 2v82h369v-82l-34 -2q-42 -3 -56 -21q-12 -13 -12 -63v-345q0 -50 12 -63q14 -18 56 -21l24 -2v-82h-359z" />
<glyph unicode="&#x42c;" horiz-adv-x="681" d="M20 0v82l20 2q42 5 55 20.5t13 63.5v345q0 48 -13 63.5t-55 20.5l-20 2v82h351v-82l-20 -2q-42 -5 -55 -20.5t-13 -63.5v-108q61 16 103 16q129 0 200.5 -59t71.5 -159q0 -105 -78 -160q-32 -24 -77 -33.5t-124 -9.5h-359zM283 165q0 -46 7 -55q11 -18 61 -18q51 0 83 30 t32 79q0 59 -31 95t-99 36q-9 0 -26.5 -5t-26.5 -13v-149z" />
<glyph unicode="&#x42d;" horiz-adv-x="740" d="M35 199l82 42q42 -71 75 -100q67 -62 148 -62q64 0 114 44q72 63 78 197h-249v92h245q-13 94 -58 147t-114 53q-73 0 -142 -71q-29 -31 -83 -125l-77 29l84 236h69l8 -23q75 36 167 36q125 0 211 -65q62 -47 96.5 -123t34.5 -165q0 -155 -101 -254.5t-258 -99.5 q-113 0 -203.5 58t-126.5 154z" />
<glyph unicode="&#x42e;" horiz-adv-x="1116" d="M20 0v82l20 2q42 5 55 20.5t13 63.5v345q0 48 -13 63.5t-55 20.5l-20 2v82h351v-82l-20 -2q-42 -5 -55 -20.5t-13 -63.5v-98h95q27 125 125.5 202t236.5 77q146 0 249 -86q115 -97 115 -262q0 -153 -108 -256t-269 -103q-127 0 -224 72q-126 95 -132 259h-88v-150 q0 -48 13 -63.5t55 -20.5l20 -2v-82h-351zM562 338q0 -106 43 -177.5t130 -71.5q79 0 128 70.5t49 184.5q0 117 -45.5 182.5t-125.5 65.5t-129.5 -70.5t-49.5 -183.5z" />
<glyph unicode="&#x42f;" horiz-adv-x="663" d="M-46 140l52 10q0 -8 1 -19.5t12 -31t31 -19.5q12 0 20.5 3.5t13 7t8 12.5t4 13.5t2 17t2.5 16.5q10 61 34.5 86.5t69.5 39.5q-199 27 -199 202q0 105 78 160q32 24 77 33.5t124 9.5h359v-82l-20 -2q-42 -5 -55 -20.5t-13 -63.5v-345q0 -48 13 -63.5t55 -20.5l20 -2v-82 h-351v82l20 2q42 5 55 20.5t13 63.5v108h-40q-31 0 -65 -63t-35 -137q-1 -43 -37 -67.5t-89 -24.5q-44 0 -77 16t-48 39t-24 46t-10 39zM197 480q0 -55 39 -85t111 -30q17 0 33 2v149q0 46 -7 55q-11 18 -61 18q-51 0 -83 -30t-32 -79z" />
<glyph unicode="&#x430;" d="M28 128q0 114 150 159q65 20 146 27v51q0 54 -63 54q-24 0 -44 -10t-20 -34q0 -33 -14 -50q-22 -27 -63 -27q-31 0 -52.5 21.5t-21.5 53.5q0 60 62.5 99t159.5 39q218 0 218 -165v-197q0 -56 21 -56q8 0 25 17l56 -68q-64 -51 -127 -51q-34 0 -65.5 14t-49.5 37 q-75 -51 -159 -51q-71 0 -115 38t-44 99zM198 149q0 -22 13 -36t34 -14q41 0 79 35v100q-126 -23 -126 -85z" />
<glyph unicode="&#x431;" horiz-adv-x="612" d="M31 258q2 330 167 413q23 11 46.5 19.5t40 12.5t39 6t31 2.5t30 0t23.5 -0.5q31 0 68 29h80q-6 -48 -35 -99t-73 -59q-32 -6 -91.5 -8.5t-92.5 -13.5q-62 -21 -98.5 -49t-60.5 -89q36 51 92 70t106 19q129 0 205.5 -71t76.5 -192q0 -117 -75.5 -187t-201.5 -70 q-128 0 -202.5 72t-74.5 195zM213 246q0 -158 96 -158q94 0 94 156q0 165 -94 165q-96 0 -96 -163z" />
<glyph unicode="&#x432;" horiz-adv-x="624" d="M20 0v83h17q61 0 61 69v196q0 38 -10.5 52.5t-47.5 16.5l-20 1v84h294q151 0 208 -37q55 -36 55 -90q0 -39 -24.5 -71t-71.5 -35q58 -7 92 -41t34 -81q0 -39 -24.5 -71.5t-68.5 -51.5q-56 -24 -180 -24h-314zM261 124q0 -17 8 -25q13 -10 54 -10q53 0 77.5 16t24.5 57 q0 20 -10 33t-31.5 18.5t-41.5 7t-52 1.5h-29v-98zM261 308h45q60 0 80.5 11t20.5 41q0 28 -20 41t-69 13q-39 0 -47 -8q-10 -9 -10 -37v-61z" />
<glyph unicode="&#x433;" horiz-adv-x="488" d="M16 0v81l32 7q28 6 36 19.5t8 56.5v174q0 43 -7.5 56.5t-36.5 19.5l-32 7v81h447l40 -165l-80 -18q-5 8 -10 17t-7.5 13t-6 9.5t-8 9.5t-11.5 9q-45 33 -98 33h-28v-246q0 -43 7.5 -56t36.5 -20l31 -7v-81h-313z" />
<glyph unicode="&#x434;" horiz-adv-x="676" d="M12 -109l22 194l73 -1q19 0 35.5 24t27.5 66.5t18 81t12 83.5q4 32 -11.5 53.5t-52.5 24.5l-25 2v83h544v-83l-15 -2q-39 -5 -51.5 -20t-12.5 -58v-179q0 -44 11 -58t50 -16l15 -1l17 -194l-59 -11q-11 31 -19.5 51t-20 34t-18.5 20.5t-24.5 10t-28 4t-38.5 0.5h-16h-206 h-16q-39 0 -54.5 -1.5t-35 -13t-32 -35.5t-28.5 -70zM252 112q0 -8 -1.5 -12.5t4 -6t7.5 -2t9.5 0t9.5 0.5h70q39 0 51.5 14t12.5 58v173q0 46 -7 59.5t-32 13.5h-43q-19 0 -27.5 -8t-10.5 -35q-1 -7 -2.5 -33.5t-2 -32t-2.5 -27t-3.5 -29.5t-4.5 -27t-7 -32.5t-9 -33 t-12 -40.5z" />
<glyph unicode="&#x435;" d="M31 253q0 113 74 185.5t189 72.5q72 0 129.5 -29.5t86.5 -81.5q26 -47 26 -146h-324q0 -75 31 -115t90 -40q74 0 131 85l84 -41q-20 -32 -35.5 -52t-45 -46.5t-71 -40t-93.5 -13.5q-118 0 -195 74t-77 188zM218 331h141q-1 47 -16.5 67.5t-49.5 20.5t-53.5 -23t-21.5 -65 z" />
<glyph unicode="&#x436;" horiz-adv-x="946" d="M-10 101l70 8q1 -1 -0.5 -10t5.5 -19.5t21 -10.5t20 6.5t8.5 23.5t4.5 22q42 126 169 136q-49 18 -66.5 47.5t-24.5 82.5q-4 32 -13 36q-3 1 -6 1q-8 0 -12 -5.5t-7.5 -16t-6.5 -15.5q-13 -21 -54 -21q-54 0 -50 55q3 42 23 67.5t72 25.5q67 0 91 -14.5t56 -73.5 q13 -23 19.5 -61t17.5 -56t41 -18h25v50q0 8 0.5 22t0.5 18.5t-1.5 13t-4 11t-7.5 6t-12.5 5t-18.5 2.5l-25 2v81h296v-81l-21 -2q-25 -2 -35 -11.5t-11 -20t-1 -46.5v-50h25q30 0 41 18t17.5 56t19.5 61q32 59 56 73.5t91 14.5q52 0 72 -25.5t23 -67.5q4 -55 -50 -55 q-41 0 -54 21q-3 5 -6.5 15.5t-7.5 16t-12 5.5q-15 0 -19 -33v-4q-7 -53 -24.5 -82.5t-66.5 -47.5q127 -10 169 -136q2 -5 4.5 -22t8.5 -23.5t20 -6.5t20.5 10t5.5 20v10l70 -8q0 -5 -2 -12.5t-11 -27t-23 -34.5t-42.5 -27t-65.5 -12q-58 0 -82.5 10.5t-55.5 55.5 q-27 39 -37 92.5t-25 65.5q-4 3 -8 9.5t-11.5 7.5t-30.5 1h-9v-59q0 -45 15.5 -65.5t35.5 -22.5l17 -2v-81h-296v81l25 4q29 5 35.5 17t6.5 50v14l1 64h-9q-23 0 -30.5 -1t-11.5 -7.5t-8 -9.5q-15 -12 -25 -65.5t-37 -92.5q-31 -45 -55.5 -55.5t-82.5 -10.5 q-37 0 -65.5 11.5t-42.5 28t-23 33.5t-11 29z" />
<glyph unicode="&#x437;" horiz-adv-x="520" d="M33 147l66 34q10 -23 17 -35t23 -29.5t40.5 -25.5t58.5 -8q51 1 77.5 21.5t26.5 51.5q0 78 -109 78h-73v72h73q28 0 46 6t24 17.5t7.5 19t0.5 19.5q-1 26 -20.5 39t-48.5 12q-37 -1 -60 -18t-46 -59l-82 12l19 148h63l12 -24q45 33 130 33q83 1 132.5 -34.5t49.5 -99.5 q0 -85 -39 -100q29 -10 50 -40.5t21 -81.5q0 -67 -59 -116t-160 -49q-97 0 -157 41.5t-83 115.5z" />
<glyph unicode="&#x438;" horiz-adv-x="720" d="M16 0v81l32 7q28 6 36 19.5t8 56.5v174q0 43 -7.5 56.5t-36.5 19.5l-32 7v81h313v-81l-31 -7q-29 -7 -36.5 -20t-7.5 -56v-116l211 139q0 23 -8 35t-36 18l-31 7v81h313v-81l-32 -7q-29 -6 -36.5 -19.5t-7.5 -56.5v-174q0 -43 8 -56.5t36 -19.5l32 -7v-81h-313v81l31 7 q29 7 36.5 20t7.5 56v109l-211 -139q0 -18 7.5 -28t36.5 -18l31 -7v-81h-313z" />
<glyph unicode="&#x439;" horiz-adv-x="720" d="M16 0v81l32 7q28 6 36 19.5t8 56.5v174q0 43 -7.5 56.5t-36.5 19.5l-32 7v81h313v-81l-31 -7q-29 -7 -36.5 -20t-7.5 -56v-116l211 139q0 23 -8 35t-36 18l-31 7v81h313v-81l-32 -7q-29 -6 -36.5 -19.5t-7.5 -56.5v-174q0 -43 8 -56.5t36 -19.5l32 -7v-81h-313v81l31 7 q29 7 36.5 20t7.5 56v109l-211 -139q0 -18 7.5 -28t36.5 -18l31 -7v-81h-313zM179 685l50 26q55 -61 132 -61q70 0 126 61l53 -26q-21 -62 -71.5 -102.5t-107.5 -40.5q-112 0 -182 143z" />
<glyph unicode="&#x43a;" horiz-adv-x="665" d="M20 0v81l25 4q33 5 42.5 21t9.5 61v174q0 47 -7.5 61t-44.5 17l-25 2v81h296v-81l-21 -2q-15 -2 -23 -4t-12 -10t-4.5 -12.5t0.5 -23t1 -28.5v-50h25q31 0 46 17t28.5 58t23.5 60q32 59 56 73.5t91 14.5q52 0 72 -25.5t23 -67.5q4 -55 -50 -55q-41 0 -54 21 q-3 5 -6.5 15.5t-7.5 16t-12 5.5q-15 0 -19 -33v-4q-12 -94 -111 -130q77 -6 125 -46.5t64 -89.5q2 -5 4.5 -22t8.5 -23.5t20 -6.5t20.5 10t5.5 20v10l70 -8q0 -5 -2 -12.5t-11 -27t-23 -34.5t-42.5 -27t-65.5 -12q-58 0 -82.5 10.5t-55.5 55.5q-27 39 -37 92.5t-25 65.5 q-17 14 -25 16t-45 2h-9v-59q0 -84 42 -88l17 -2v-81h-296z" />
<glyph unicode="&#x43b;" horiz-adv-x="768" d="M32 67q0 23 18.5 42.5t46.5 19.5q52 0 65 -21q3 -5 5.5 -16t7 -16t16.5 -5q39 0 62.5 78.5t32.5 189.5q1 43 -12.5 59t-52.5 19l-25 2v83h545v-83l-22 -3q-38 -5 -47 -19.5t-9 -60.5v-169q0 -46 8.5 -60.5t44.5 -20.5l25 -4v-82h-315v81l10 2q41 8 53 20.5t12 53.5v180 q0 46 -7 59.5t-32 13.5h-36q-32 0 -38 -43q-2 -14 -6 -54.5t-5.5 -53t-5.5 -43t-8 -44.5t-10 -36t-13.5 -38.5t-17.5 -32.5q-30 -50 -62.5 -63.5t-120.5 -13.5q-62 0 -84.5 20t-22.5 59z" />
<glyph unicode="&#x43c;" horiz-adv-x="873" d="M22 0v81l32 7q28 6 36 19.5t8 56.5v174q0 43 -7.5 56.5t-36.5 19.5l-32 7v81h284l130 -315l138 315h277v-81l-32 -7q-29 -6 -36.5 -19.5t-7.5 -56.5v-174q0 -43 8 -56.5t36 -19.5l32 -7v-81h-313v81l31 7q29 7 36.5 20t7.5 56v169l-157 -333h-101l-155 333v-169 q0 -42 8 -55.5t36 -20.5l31 -7v-81h-253z" />
<glyph unicode="&#x43d;" horiz-adv-x="696" d="M16 0v81l32 7q28 6 36 19.5t8 56.5v174q0 43 -7.5 56.5t-36.5 19.5l-32 7v81h313v-81l-31 -7q-29 -7 -36.5 -20t-7.5 -56v-43h189v43q0 43 -7.5 56t-36.5 20l-31 7v81h313v-81l-32 -7q-29 -6 -36.5 -19.5t-7.5 -56.5v-174q0 -43 8 -56.5t36 -19.5l32 -7v-81h-313v81l31 7 q29 7 36.5 20t7.5 56v43h-189v-43q0 -43 7.5 -56t36.5 -20l31 -7v-81h-313z" />
<glyph unicode="&#x43e;" horiz-adv-x="620" d="M31 258q0 113 75 183t197 70q129 0 205.5 -71t76.5 -192q0 -117 -75.5 -187t-201.5 -70q-128 0 -202.5 72t-74.5 195zM213 246q0 -158 96 -158q94 0 94 156q0 165 -94 165q-96 0 -96 -163z" />
<glyph unicode="&#x43f;" horiz-adv-x="702" d="M16 0v81l32 7q28 6 36 19.5t8 56.5v174q0 43 -7.5 56.5t-36.5 19.5l-32 7v81h667v-81l-32 -7q-29 -6 -36.5 -19.5t-7.5 -56.5v-174q0 -43 8 -56.5t36 -19.5l32 -7v-81h-313v81l31 7q29 7 36.5 20t7.5 56v246h-191v-246q0 -43 7.5 -56t36.5 -20l31 -7v-81h-313z" />
<glyph unicode="&#x440;" horiz-adv-x="640" d="M22 -132l29 7q29 7 36.5 20t7.5 56v357q0 46 -11 62t-44 20l-18 2v81l156 29h62v-29q80 38 134 38q100 0 168.5 -73t68.5 -179q0 -116 -66.5 -192t-167.5 -76q-49 0 -120 28v-68q0 -43 7.5 -56t36.5 -20l29 -7v-81h-308v81zM257 124q34 -31 77 -31q51 0 79 44.5t28 124.5 q0 70 -26 111t-71 41q-51 0 -87 -41v-249z" />
<glyph unicode="&#x441;" d="M31 251q0 118 75 189t199 71q93 0 157.5 -42.5t64.5 -104.5q0 -35 -24 -58.5t-59 -23.5q-32 0 -57.5 21t-25.5 47v29q0 16 -17 28t-39 12q-46 0 -71 -41.5t-25 -117.5q0 -78 32.5 -125t86.5 -47q87 0 141 98l81 -42q-30 -72 -96.5 -112.5t-155.5 -40.5q-119 0 -193 72.5 t-74 187.5z" />
<glyph unicode="&#x442;" horiz-adv-x="600" d="M-2 337l40 165h524l40 -165l-80 -18q-5 8 -10 17t-7.5 13t-6 9.5t-8 9.5t-11.5 9q-45 33 -98 33v-246q0 -43 7.5 -56t36.5 -20l31 -7v-81h-313v81l32 7q28 6 36 19.5t8 56.5v246q-53 0 -98 -33q-8 -6 -14 -12t-8.5 -10t-9 -16t-11.5 -20z" />
<glyph unicode="&#x443;" horiz-adv-x="620" d="M6 420v82h311v-82h-11q-55 0 -55 -25q0 -4 4 -20l74 -188l71 186q4 8 4 17q0 30 -46 30h-12v82h267v-82l-12 -2q-39 -10 -58.5 -28t-41.5 -66l-172 -371q-14 -30 -23.5 -48t-28.5 -45t-38 -42.5t-49 -27t-65 -11.5q-48 0 -78 24.5t-30 63.5q0 35 22.5 58.5t56.5 23.5 t66 -29q8 -8 14 -8q9 0 30.5 29.5t37.5 63.5l-151 341q-19 42 -31 55t-40 17z" />
<glyph unicode="&#x444;" horiz-adv-x="928" d="M29 259q0 106 68.5 179t168.5 73q38 0 63.5 -7t53.5 -31v44q0 50 -13 63q-15 15 -46 18l-17 2v81q92 8 172 43h66v-251q30 24 55.5 31t61.5 7q100 0 168.5 -73t68.5 -179q0 -116 -66.5 -192t-167.5 -76q-44 0 -109 24l-11 4v-68q0 -43 7.5 -56t36.5 -20l29 -7v-81h-308 v81l29 7q29 7 36.5 20t7.5 56v68l-11 -4q-65 -24 -109 -24q-101 0 -167.5 76t-66.5 192zM199 262q0 -80 28 -124.5t79 -44.5q43 0 77 31v249q-36 41 -87 41q-45 0 -71 -41t-26 -111zM545 124q34 -31 77 -31q51 0 79 44.5t28 124.5q0 70 -26 111t-71 41q-51 0 -87 -41v-249z " />
<glyph unicode="&#x445;" horiz-adv-x="600" d="M8 0v81q33 10 53 25.5t76 75.5l72 78l-62 84q-31 43 -52 57t-66 20v81h288v-81q-40 -3 -40 -18q0 -7 10 -20l32 -42l43 41q16 15 16 23q0 13 -34 16v81h240v-81q-78 -15 -155 -93l-60 -53l93 -120q28 -35 52 -49t77 -25v-81h-310v81q40 7 40 21q0 10 -15 29l-40 54 l-48 -54q-16 -19 -16 -27q0 -18 51 -23v-81h-245z" />
<glyph unicode="&#x446;" horiz-adv-x="700" d="M16 0v81l32 7q29 6 36.5 19.5t7.5 56.5v174q0 43 -8 56.5t-36 19.5l-32 7v81h313v-81l-31 -7q-29 -7 -36.5 -20t-7.5 -56v-246h191v246q0 43 -7.5 56t-36.5 20l-31 7v81h313v-81l-32 -7q-28 -6 -36 -19.5t-8 -56.5v-171q0 -46 8 -61t36 -15h32l39 -180l-80 -18 q-7 12 -14 26.5t-13 25t-16 21.5q-19 21 -40 27t-58 6z" />
<glyph unicode="&#x447;" horiz-adv-x="689" d="M12 421v81h313v-81l-31 -7q-29 -7 -36.5 -20t-7.5 -56v-29q0 -32 29.5 -47t64.5 -15q57 0 90 38v53q0 43 -7.5 56t-36.5 20l-31 7v81h313v-81l-32 -7q-29 -6 -36.5 -19.5t-7.5 -56.5v-174q0 -43 8 -56.5t36 -19.5l32 -7v-81h-313v81l31 7q29 7 36.5 20t7.5 56v33 q-33 -38 -150 -38q-80 0 -138 34t-58 106v39q0 43 -7.5 56.5t-36.5 19.5z" />
<glyph unicode="&#x448;" horiz-adv-x="1026" d="M22 0v81l32 7q29 6 36.5 19.5t7.5 56.5v174q0 43 -8 56.5t-36 19.5l-32 7v81h313v-81l-31 -7q-29 -7 -36.5 -20t-7.5 -56v-246h175v246q0 43 -8 56.5t-36 19.5l-32 7v81h313v-81l-31 -7q-29 -7 -36.5 -20t-7.5 -56v-246h174v246q0 43 -7.5 56t-36.5 20l-31 7v81h313v-81 l-32 -7q-28 -6 -36 -19.5t-8 -56.5v-178q0 -43 7.5 -54.5t36.5 -17.5l32 -7v-81h-987z" />
<glyph unicode="&#x449;" horiz-adv-x="1026" d="M22 0v81l32 7q29 6 36.5 19.5t7.5 56.5v174q0 43 -8 56.5t-36 19.5l-32 7v81h313v-81l-31 -7q-29 -7 -36.5 -20t-7.5 -56v-246h175v246q0 43 -8 56.5t-36 19.5l-32 7v81h313v-81l-31 -7q-29 -7 -36.5 -20t-7.5 -56v-246h174v246q0 43 -7.5 56t-36.5 20l-31 7v81h313v-81 l-32 -7q-28 -6 -36 -19.5t-8 -56.5v-171q0 -46 8 -61t36 -15h32l39 -180l-80 -18q-7 12 -14 26.5t-13 25t-16 21.5q-19 21 -40 27t-58 6z" />
<glyph unicode="&#x44a;" horiz-adv-x="768" d="M-12 337l40 165h450v-84l-20 -1q-37 -2 -47.5 -16.5t-10.5 -52.5v-40q59 12 98 12q74 0 125 -16t75.5 -43t34 -54.5t9.5 -59.5q-1 -39 -25.5 -71.5t-67.5 -51.5q-33 -14 -67 -19t-103 -5h-320v83h17q61 0 61 69v258h-28q-53 0 -98 -33q-8 -6 -14 -12t-8.5 -10t-9 -16 t-11.5 -20zM400 124q0 -17 8 -25q16 -13 63 -13t68 17.5t21 58.5q0 40 -24.5 56t-75.5 16q-11 0 -26 -3t-24 -6l-10 -3v-98z" />
<glyph unicode="&#x44b;" horiz-adv-x="936" d="M20 0v83h17q61 0 61 69v196q0 38 -10.5 52.5t-47.5 16.5l-20 1v84h319v-84l-20 -1q-37 -2 -47.5 -16.5t-10.5 -52.5v-40q59 12 98 12q74 0 125 -16t75.5 -43t34 -54.5t9.5 -59.5q-1 -39 -25.5 -71.5t-67.5 -51.5q-33 -14 -67 -19t-103 -5h-320zM261 124q0 -17 8 -25 q16 -13 63 -13t68 17.5t21 58.5q0 40 -24.5 56t-75.5 16q-11 0 -26 -3t-25 -6l-9 -3v-98zM603 0v81l31 7q29 7 36.5 20t7.5 56v174q0 40 -11.5 54.5t-42.5 21.5l-21 7v81h313v-81l-32 -7q-29 -6 -36.5 -19.5t-7.5 -56.5v-174q0 -43 8 -56.5t36 -19.5l32 -7v-81h-313z" />
<glyph unicode="&#x44c;" horiz-adv-x="618" d="M20 0v83h17q61 0 61 69v196q0 38 -10.5 52.5t-47.5 16.5l-20 1v84h319v-84l-20 -1q-37 -2 -47.5 -16.5t-10.5 -52.5v-40q59 12 98 12q74 0 125 -16t75.5 -43t34 -54.5t9.5 -59.5q-1 -39 -25.5 -71.5t-67.5 -51.5q-33 -14 -67 -19t-103 -5h-320zM261 124q0 -17 8 -25 q16 -13 63 -13t68 17.5t21 58.5q0 40 -24.5 56t-75.5 16q-11 0 -26 -3t-25 -6l-9 -3v-98z" />
<glyph unicode="&#x44d;" d="M31 144l81 42q54 -98 141 -98q44 0 73.5 32t40.5 87h-113v88h116q-5 60 -29.5 92t-64.5 32q-22 0 -39.5 -12t-17.5 -28l1 -29q0 -26 -25.5 -47t-57.5 -21q-35 0 -59 23.5t-24 58.5q0 62 64.5 104.5t157.5 42.5q124 0 199 -71t75 -189q0 -115 -74 -187.5t-193 -72.5 q-89 0 -155.5 40.5t-96.5 112.5z" />
<glyph unicode="&#x44e;" horiz-adv-x="918" d="M22 0v81l32 7q28 6 36 19.5t8 56.5v174q0 43 -7.5 56.5t-36.5 19.5l-32 7v81h313v-81l-31 -7q-29 -7 -36.5 -20t-7.5 -56v-43h73q12 99 85 157.5t184 58.5q129 0 205.5 -71t76.5 -192q0 -117 -75.5 -187t-201.5 -70q-113 0 -185 58t-88 158h-74v-43q0 -43 7.5 -56 t36.5 -20l31 -7v-81h-313zM512 246q0 -158 96 -158q94 0 94 156q0 165 -94 165q-96 0 -96 -163z" />
<glyph unicode="&#x44f;" horiz-adv-x="656" d="M-34 101l70 8q1 -1 -0.5 -10t5.5 -19.5t21 -10.5q15 0 20.5 5.5t8.5 24.5t4 22q11 41 29.5 59t52.5 22q-45 8 -75 24t-43 38.5t-17 43t-4 47.5q1 39 25.5 71.5t67.5 51.5q56 24 180 24h335v-83h-17q-61 0 -61 -69v-196q0 -38 10.5 -52.5t47.5 -16.5l20 -1v-84h-319v84 l20 1q37 2 47.5 16.5t10.5 52.5v40h-105q-14 -9 -16.5 -28t-8.5 -50t-27 -62q-31 -45 -55.5 -55.5t-82.5 -10.5q-37 0 -65.5 11.5t-42.5 28t-23 33.5t-11 29zM220 340q0 -60 127 -60h58v98q0 17 -8 25q-16 13 -54 13q-123 0 -123 -76z" />
<glyph unicode="&#x450;" d="M31 253q0 113 74 185.5t189 72.5q72 0 129.5 -29.5t86.5 -81.5q26 -47 26 -146h-324q0 -75 31 -115t90 -40q74 0 131 85l84 -41q-20 -32 -35.5 -52t-45 -46.5t-71 -40t-93.5 -13.5q-118 0 -195 74t-77 188zM147 689q0 30 20.5 51.5t49.5 21.5q37 0 84 -41l105 -94 l-20 -49l-159 34q-80 17 -80 77zM218 331h141q-1 47 -16.5 67.5t-49.5 20.5t-53.5 -23t-21.5 -65z" />
<glyph unicode="&#x451;" d="M31 253q0 113 74 185.5t189 72.5q72 0 129.5 -29.5t86.5 -81.5q26 -47 26 -146h-324q0 -75 31 -115t90 -40q74 0 131 85l84 -41q-20 -32 -35.5 -52t-45 -46.5t-71 -40t-93.5 -13.5q-118 0 -195 74t-77 188zM112 671q0 30 19.5 49.5t49.5 19.5q28 0 49 -21.5t21 -50.5 q0 -27 -20.5 -47t-48.5 -20q-29 0 -49.5 20.5t-20.5 49.5zM218 331h141q-1 47 -16.5 67.5t-49.5 20.5t-53.5 -23t-21.5 -65zM346 671q0 30 19.5 49.5t49.5 19.5q28 0 49 -21.5t21 -50.5q0 -27 -20.5 -47t-48.5 -20q-29 0 -49.5 20.5t-20.5 49.5z" />
<glyph unicode="&#x452;" horiz-adv-x="624" d="M22 0v81l35 7q28 5 36 19.5t8 56.5v310h-61v85h58q-7 33 -56 39l-20 2v81q72 -2 176 43h65v-165h102v-85h-102v-88q80 45 155 45q69 0 114 -42q42 -38 42 -115v-285q0 -77 -42 -115q-45 -42 -114 -42h-48v108q42 0 42 62v259q0 62 -42 62q-24 0 -56.5 -11.5t-50.5 -27.5 v-120q0 -43 6 -54t38 -24l13 -5v-81h-298z" />
<glyph unicode="&#x453;" horiz-adv-x="488" d="M16 0v81l32 7q28 6 36 19.5t8 56.5v174q0 43 -7.5 56.5t-36.5 19.5l-32 7v81h447l40 -165l-80 -18q-5 8 -10 17t-7.5 13t-6 9.5t-8 9.5t-11.5 9q-45 33 -98 33h-28v-246q0 -43 7.5 -56t36.5 -20l31 -7v-81h-313zM130 591l105 94q47 41 84 41q29 0 49.5 -21.5t20.5 -51.5 q0 -60 -80 -77l-159 -34z" />
<glyph unicode="&#x454;" d="M31 251q0 118 75 189t199 71q93 0 157.5 -42.5t64.5 -104.5q0 -35 -24 -58.5t-59 -23.5q-32 0 -57.5 21t-25.5 47l1 29q0 16 -17.5 28t-39.5 12q-40 0 -64.5 -32t-29.5 -92h116v-88h-113q11 -55 40.5 -87t73.5 -32q87 0 141 98l81 -42q-30 -72 -96.5 -112.5t-155.5 -40.5 q-119 0 -193 72.5t-74 187.5z" />
<glyph unicode="&#x455;" horiz-adv-x="520" d="M22 165l77 16q37 -41 45 -48q45 -40 111 -40q37 0 62 12.5t25 29.5q0 35 -88 46l-64 8q-78 10 -119 48t-41 100q0 76 57.5 125t146.5 49q59 0 128 -33l12 24h63l19 -148l-82 -12q-56 77 -130 77q-30 0 -49.5 -11t-19.5 -28q0 -31 78 -45l75 -14q27 -5 40 -8t41 -14.5 t43 -25.5t27.5 -41t12.5 -61q0 -76 -64 -128t-157 -52q-64 0 -131 30l-12 -25h-66z" />
<glyph unicode="&#x456;" horiz-adv-x="360" d="M22 0v81l32 7q28 6 36 19.5t8 56.5v144q0 46 -11.5 62.5t-43.5 19.5l-21 2v81l176 29h62v-338q0 -43 7.5 -56t36.5 -20l31 -7v-81h-313zM87 671q0 41 27 68t68 27q38 0 67 -29.5t29 -69.5q0 -37 -28 -64.5t-66 -27.5q-40 0 -68.5 28t-28.5 68z" />
<glyph unicode="&#x457;" horiz-adv-x="360" d="M-3 671q0 30 19.5 49.5t49.5 19.5q28 0 49 -21.5t21 -50.5q0 -27 -20.5 -47t-48.5 -20q-29 0 -49.5 20.5t-20.5 49.5zM22 0v81l32 7q28 6 36 19.5t8 56.5v144q0 46 -11.5 62.5t-43.5 19.5l-21 2v81l176 29h62v-338q0 -43 7.5 -56t36.5 -20l31 -7v-81h-313zM231 671 q0 30 19.5 49.5t49.5 19.5q28 0 49 -21.5t21 -50.5q0 -27 -20.5 -47t-48.5 -20q-29 0 -49.5 20.5t-20.5 49.5z" />
<glyph unicode="&#x458;" horiz-adv-x="340" d="M-94 -142q0 28 20.5 47t52.5 19q20 0 33 -7t36 -32q14 -14 28 -14q37 0 37 68v369q0 46 -11 62t-44 20l-18 2v81l173 29h62v-515q0 -213 -233 -213q-64 0 -100 22.5t-36 61.5zM102 671q0 41 27 68t68 27q38 0 67 -29.5t29 -69.5q0 -37 -28 -64.5t-66 -27.5 q-40 0 -68.5 28t-28.5 68z" />
<glyph unicode="&#x459;" horiz-adv-x="1056" d="M32 67q0 23 18.5 42.5t46.5 19.5q52 0 65 -21q3 -5 5.5 -16t7 -16t16.5 -5q39 0 62.5 78.5t32.5 189.5q1 43 -12.5 59t-52.5 19l-25 2v83h545v-83l-20 -1q-36 -2 -45 -16.5t-9 -53.5v-40h110q142 0 198.5 -46.5t55.5 -114.5q-1 -39 -25.5 -71.5t-67.5 -51.5 q-56 -24 -180 -24h-332v81l10 2q41 8 53 20.5t12 53.5v180q0 46 -7 59.5t-32 13.5h-41q-32 0 -38 -43q-2 -14 -6 -54.5t-5.5 -53t-5.5 -43t-8 -44.5t-10 -36t-13.5 -38.5t-17.5 -32.5q-30 -50 -62.5 -63.5t-120.5 -13.5q-61 0 -81.5 19.5t-20.5 59.5zM667 124q0 -17 8 -25 q16 -13 65 -13q64 0 86.5 16.5t22.5 59.5q0 39 -30.5 49.5t-114.5 10.5h-37v-98z" />
<glyph unicode="&#x45a;" horiz-adv-x="1012" d="M16 0v81l32 7q28 6 36 19.5t8 56.5v174q0 43 -7.5 56.5t-36.5 19.5l-32 7v81h313v-81l-31 -7q-29 -7 -36.5 -20t-7.5 -56v-30h211v30q0 43 -7.5 56t-36.5 20l-31 7v81h313v-81l-20 -1q-36 -2 -44 -16.5t-8 -55.5v-40h111q254 0 254 -161q0 -39 -24.5 -71.5t-68.5 -51.5 q-56 -24 -180 -24h-333v81l31 7q29 7 36.5 20t7.5 56v56h-211v-56q0 -43 7.5 -56t36.5 -20l31 -7v-81h-313zM631 124q0 -17 8 -25q16 -13 66 -13q58 0 83.5 17t25.5 59q0 39 -30.5 49.5t-114.5 10.5h-38v-98z" />
<glyph unicode="&#x45b;" horiz-adv-x="680" d="M22 0v81l35 7q28 5 36 19.5t8 56.5v310h-61v85h58q-7 33 -56 39l-20 2v81q72 -2 176 43h65v-165h102v-85h-102v-88q80 45 155 45q69 0 114 -42q42 -38 42 -115v-110q0 -42 8 -56.5t36 -19.5l36 -7v-81h-299v81l13 5q32 13 38 24t6 54v97q0 62 -42 62q-24 0 -56.5 -11.5 t-50.5 -27.5v-120q0 -43 6 -54t38 -24l13 -5v-81h-298z" />
<glyph unicode="&#x45c;" horiz-adv-x="665" d="M20 0v81l25 4q33 5 42.5 21t9.5 61v174q0 47 -7.5 61t-44.5 17l-25 2v81h296v-81l-21 -2q-15 -2 -23 -4t-12 -10t-4.5 -12.5t0.5 -23t1 -28.5v-50h25q31 0 46 17t28.5 58t23.5 60q32 59 56 73.5t91 14.5q52 0 72 -25.5t23 -67.5q4 -55 -50 -55q-41 0 -54 21 q-3 5 -6.5 15.5t-7.5 16t-12 5.5q-15 0 -19 -33v-4q-12 -94 -111 -130q77 -6 125 -46.5t64 -89.5q2 -5 4.5 -22t8.5 -23.5t20 -6.5t20.5 10t5.5 20v10l70 -8q0 -5 -2 -12.5t-11 -27t-23 -34.5t-42.5 -27t-65.5 -12q-58 0 -82.5 10.5t-55.5 55.5q-27 39 -37 92.5t-25 65.5 q-17 14 -25 16t-45 2h-9v-59q0 -84 42 -88l17 -2v-81h-296zM221 603l105 94q47 41 84 41q29 0 49.5 -21.5t20.5 -51.5q0 -60 -80 -77l-159 -34z" />
<glyph unicode="&#x45d;" horiz-adv-x="720" d="M16 0v81l32 7q28 6 36 19.5t8 56.5v174q0 43 -7.5 56.5t-36.5 19.5l-32 7v81h313v-81l-31 -7q-29 -7 -36.5 -20t-7.5 -56v-116l211 139q0 23 -8 35t-36 18l-31 7v81h313v-81l-32 -7q-29 -6 -36.5 -19.5t-7.5 -56.5v-174q0 -43 8 -56.5t36 -19.5l32 -7v-81h-313v81l31 7 q29 7 36.5 20t7.5 56v109l-211 -139q0 -18 7.5 -28t36.5 -18l31 -7v-81h-313zM230 653q0 29 21 51t49 22q37 0 84 -41l105 -94l-20 -49l-159 34q-80 18 -80 77z" />
<glyph unicode="&#x45e;" horiz-adv-x="620" d="M6 420v82h311v-82h-11q-55 0 -55 -25q0 -4 4 -20l74 -188l71 186q4 8 4 17q0 30 -46 30h-12v82h267v-82l-12 -2q-39 -10 -58.5 -28t-41.5 -66l-172 -371q-14 -30 -23.5 -48t-28.5 -45t-38 -42.5t-49 -27t-65 -11.5q-48 0 -78 24.5t-30 63.5q0 35 22.5 58.5t56.5 23.5 t66 -29q8 -8 14 -8q9 0 30.5 29.5t37.5 63.5l-151 341q-19 42 -31 55t-40 17zM150 729l50 26q55 -61 132 -61q70 0 126 61l53 -26q-21 -62 -71.5 -102.5t-107.5 -40.5q-112 0 -182 143z" />
<glyph unicode="&#x45f;" horiz-adv-x="720" d="M16 0v81l32 7q29 6 36.5 19.5t7.5 56.5v174q0 43 -8 56.5t-36 19.5l-32 7v81h313v-81l-31 -7q-29 -7 -36.5 -20t-7.5 -56v-246h211v246q0 43 -7.5 56t-36.5 20l-31 7v81h313v-81l-32 -7q-28 -6 -36 -19.5t-8 -56.5v-174q0 -43 7.5 -56.5t36.5 -19.5l32 -7v-81h-273v-132 h-142v132h-272z" />
<glyph unicode="&#x48c;" horiz-adv-x="660" d="M20 0v82l20 2q42 5 55 20.5t13 63.5v275h-70v85h70q-1 38 -15 51.5t-53 17.5l-20 2v82h351v-82l-20 -2q-39 -4 -53 -17.5t-15 -51.5h70v-85h-70v-38h95q137 0 208.5 -51.5t71.5 -150.5q0 -105 -78 -160q-32 -24 -77 -33.5t-124 -9.5h-359zM283 165q0 -46 7 -55 q11 -18 61 -18q51 0 83 30t32 79q0 55 -39 85t-111 30q-17 0 -33 -2v-149z" />
<glyph unicode="&#x48d;" horiz-adv-x="618" d="M20 0v83h17q61 0 61 69v184h-58v48h55q-7 30 -55 33l-20 1v84h319v-84l-20 -1q-48 -3 -55 -33h51v-48h-54v-28q59 12 98 12q74 0 125 -16t75.5 -43t34 -54.5t9.5 -59.5q-1 -39 -25.5 -71.5t-67.5 -51.5q-33 -14 -67 -19t-103 -5h-320zM261 124q0 -17 8 -25q16 -13 63 -13 t68 17.5t21 58.5q0 40 -24.5 56t-75.5 16q-11 0 -26 -3t-25 -6l-9 -3v-98z" />
<glyph unicode="&#x48e;" horiz-adv-x="660" d="M20 0v82l20 2q42 5 55 20.5t13 63.5v345q0 48 -13 63.5t-55 20.5l-20 2v82h359q79 0 124 -9.5t77 -33.5q78 -55 78 -160q0 -120 -104 -170l44 -44l-60 -60l-77 78q-38 -6 -83 -6h-95v-108q0 -48 13 -63.5t55 -20.5l20 -2v-82h-351zM283 367q16 -2 33 -2q30 0 56 6l-56 56 l60 60l71 -71q19 27 19 64q0 49 -32 79t-83 30q-50 0 -61 -18q-7 -9 -7 -55v-149z" />
</font>
</defs>
</svg>
